<svg id="inner-ring" class="svg-element" xmlns="http://www.w3.org/2000/svg" xmlns:xlink="http://www.w3.org/1999/xlink" viewBox="0 0 250 250"><defs><style>.inner-ring{fill:url(#inner-ring-radial-gradient);}</style><radialGradient id="inner-ring-radial-gradient" cx="124.83" cy="126.9" r="66.76" gradientUnits="userSpaceOnUse"><stop offset="0.88" stop-color="#093b51"/><stop offset="1" stop-color="#095480"/></radialGradient></defs><path class="inner-ring" d="M123,60.12h3.18a66.72,66.72,0,0,1,65.11,60.41c.14,1.34.18,2.69.32,4v4.61c-.19,2.12-.28,4.25-.58,6.37a66.74,66.74,0,0,1-132.92-7.2v-2.84a67.71,67.71,0,0,1,2.73-17.6,66.87,66.87,0,0,1,47.3-45.65A69.06,69.06,0,0,1,123,60.12m-2.32,9.64a57.55,57.55,0,1,0,36.49,10,57.57,57.57,0,0,0-36.49-10"/></svg>