<svg id="logo-text-es" class="svg-element" xmlns="http://www.w3.org/2000/svg" xmlns:xlink="http://www.w3.org/1999/xlink" viewBox="0 0 250 250"><defs><style>.cls-1,.cls-10,.cls-11,.cls-12,.cls-13,.cls-14,.cls-15,.cls-16,.cls-17,.cls-18,.cls-19,.cls-2,.cls-20,.cls-21,.cls-22,.cls-23,.cls-24,.cls-25,.cls-26,.cls-27,.cls-28,.cls-3,.cls-4,.cls-5,.cls-6,.cls-7,.cls-8,.cls-9{stroke:#000;stroke-miterlimit:10;stroke-width:0.25px;}.cls-1{fill:url(#radial-gradient);}.cls-2{fill:url(#radial-gradient-2);}.cls-3{fill:url(#radial-gradient-3);}.cls-4{fill:url(#radial-gradient-4);}.cls-5{fill:url(#radial-gradient-5);}.cls-6{fill:url(#radial-gradient-6);}.cls-7{fill:url(#radial-gradient-7);}.cls-8{fill:url(#radial-gradient-8);}.cls-9{fill:url(#radial-gradient-9);}.cls-10{fill:url(#radial-gradient-10);}.cls-11{fill:url(#radial-gradient-11);}.cls-12{fill:url(#radial-gradient-12);}.cls-13{fill:url(#radial-gradient-13);}.cls-14{fill:url(#radial-gradient-14);}.cls-15{fill:url(#radial-gradient-15);}.cls-16{fill:url(#radial-gradient-16);}.cls-17{fill:url(#radial-gradient-17);}.cls-18{fill:url(#radial-gradient-18);}.cls-19{fill:url(#radial-gradient-19);}.cls-20{fill:url(#radial-gradient-20);}.cls-21{fill:url(#radial-gradient-21);}.cls-22{fill:url(#radial-gradient-22);}.cls-23{fill:url(#radial-gradient-23);}.cls-24{fill:url(#radial-gradient-24);}.cls-25{fill:url(#radial-gradient-25);}.cls-26{fill:url(#radial-gradient-26);}.cls-27{fill:url(#radial-gradient-27);}.cls-28{fill:url(#radial-gradient-28);}</style><radialGradient id="radial-gradient" cx="40.17" cy="102.73" r="8.8" gradientTransform="matrix(1, 0.05, -0.05, 1, 6.82, -6.29)" gradientUnits="userSpaceOnUse"><stop offset="0.02" stop-color="#095480"/><stop offset="0.51" stop-color="#2f7e80"/><stop offset="1" stop-color="#095480"/></radialGradient><radialGradient id="radial-gradient-2" cx="46.92" cy="88.9" r="10.04" xlink:href="#radial-gradient"/><radialGradient id="radial-gradient-3" cx="55.43" cy="75.21" r="10.55" xlink:href="#radial-gradient"/><radialGradient id="radial-gradient-4" cx="70.09" cy="60.83" r="10.43" xlink:href="#radial-gradient"/><radialGradient id="radial-gradient-5" cx="84.45" cy="52.77" r="10.28" xlink:href="#radial-gradient"/><radialGradient id="radial-gradient-6" cx="103.12" cy="46.27" r="9.86" xlink:href="#radial-gradient"/><radialGradient id="radial-gradient-7" cx="119.66" cy="42.16" r="9.01" xlink:href="#radial-gradient"/><radialGradient id="radial-gradient-8" cx="134.01" cy="42.72" r="7.07" xlink:href="#radial-gradient"/><radialGradient id="radial-gradient-9" cx="149.97" cy="43.59" r="11.26" xlink:href="#radial-gradient"/><radialGradient id="radial-gradient-10" cx="171.17" cy="56.16" r="12.57" xlink:href="#radial-gradient"/><radialGradient id="radial-gradient-11" cx="191.81" cy="75.51" r="10.51" xlink:href="#radial-gradient"/><radialGradient id="radial-gradient-12" cx="202.74" cy="92.79" r="9.89" xlink:href="#radial-gradient"/><radialGradient id="radial-gradient-13" cx="38.15" cy="125.68" r="8.23" xlink:href="#radial-gradient"/><radialGradient id="radial-gradient-14" cx="40.72" cy="143.61" r="10.63" xlink:href="#radial-gradient"/><radialGradient id="radial-gradient-15" cx="46.45" cy="162.86" r="10.73" xlink:href="#radial-gradient"/><radialGradient id="radial-gradient-16" cx="57.19" cy="180.03" r="10.61" xlink:href="#radial-gradient"/><radialGradient id="radial-gradient-17" cx="74.34" cy="196.31" r="10.73" xlink:href="#radial-gradient"/><radialGradient id="radial-gradient-18" cx="92.03" cy="206.1" r="9.67" xlink:href="#radial-gradient"/><radialGradient id="radial-gradient-19" cx="117.17" cy="211.78" r="8.85" xlink:href="#radial-gradient"/><radialGradient id="radial-gradient-20" cx="133.38" cy="211.5" r="9.12" xlink:href="#radial-gradient"/><radialGradient id="radial-gradient-21" cx="148.09" cy="208.7" r="9.14" xlink:href="#radial-gradient"/><radialGradient id="radial-gradient-22" cx="168.24" cy="203.34" r="11.22" xlink:href="#radial-gradient"/><radialGradient id="radial-gradient-23" cx="182.77" cy="188.13" r="10.91" xlink:href="#radial-gradient"/><radialGradient id="radial-gradient-24" cx="191.45" cy="178.58" r="8.64" xlink:href="#radial-gradient"/><radialGradient id="radial-gradient-25" cx="201.25" cy="169.42" r="11.13" xlink:href="#radial-gradient"/><radialGradient id="radial-gradient-26" cx="206.15" cy="151.03" r="8.99" xlink:href="#radial-gradient"/><radialGradient id="radial-gradient-27" cx="208.7" cy="134.37" r="8.94" xlink:href="#radial-gradient"/><radialGradient id="radial-gradient-28" cx="208.63" cy="118.14" r="9.09" xlink:href="#radial-gradient"/></defs><title>sgf-logo-text-es</title><path class="cls-1" d="M49.46,106.83,31.92,100.4,35.7,90.07l3.17,1.16-2.41,6.58,3.6,1.32,2.41-6.58,3.19,1.17-2.41,6.58,7.59,2.78Z"/><path class="cls-2" d="M54.3,94.41,38.17,85l5.57-9.5,2.9,1.71-3.54,6,3.32,2,3.54-6,2.93,1.72-3.54,6,4,2.37,3.54-6,2.93,1.72Z"/><path class="cls-3" d="M61.48,82.36,47.7,69.74,51.14,66a21.11,21.11,0,0,1,3.51-3.22,8.46,8.46,0,0,1,3.1-1.3,8.12,8.12,0,0,1,4.09.26,11.31,11.31,0,0,1,6.46,5.94,8.09,8.09,0,0,1,.57,4.07,8.42,8.42,0,0,1-.94,3,19.65,19.65,0,0,1-2.8,3.65l-.95,1Zm.21-5.23,1.5-1.63a6.34,6.34,0,0,0,2-4.34A6.2,6.2,0,0,0,62.86,67a6.2,6.2,0,0,0-4.31-2,6.25,6.25,0,0,0-4.15,2.41l-1.5,1.63Z"/><path class="cls-4" d="M74.58,68.92,63.73,53.71l9-6.39,2,2.74-5.7,4.07,2.23,3.13,5.7-4.07,2,2.76L73.14,60l2.72,3.82,5.71-4.07,2,2.76Z"/><path class="cls-5" d="M98.49,55.32l-4.18,1.93L86.2,51.36l3.64,7.94L86.21,61l-7.8-17,5.2-2.39a8.29,8.29,0,0,1,5.19-.93A4.73,4.73,0,0,1,92,43.57a4.87,4.87,0,0,1,.32,3.48,4.52,4.52,0,0,1-2.06,2.7ZM85.37,49.55l.54-.25a6.3,6.3,0,0,0,2.69-1.82,2,2,0,0,0-.06-2A2.22,2.22,0,0,0,87,44.05a6,6,0,0,0-3.1.78l-.54.25Z"/><path class="cls-6" d="M97.74,55.38l2.89-19.78,4.46-1,11.09,16.68-4.44,1-2.34-3.55-7.07,1.57-.41,4.16Zm10.07-9.51-3.35-5.44c-.1-.17-.24-.45-.43-.85s-.39-.9-.63-1.5c0,.62,0,1.17,0,1.66s0,.82,0,1L102.75,47Z"/><path class="cls-7" d="M131.88,37.7a8.43,8.43,0,0,0-2.48-1.6,7.28,7.28,0,0,0-2.73-.51,6.4,6.4,0,0,0-4.77,1.77,6.53,6.53,0,0,0-1.79,4.79,6.56,6.56,0,0,0,1.63,4.69,5.94,5.94,0,0,0,4.49,1.74,8,8,0,0,0,3-.53,8.38,8.38,0,0,0,2.59-1.62l0,4.1a10.55,10.55,0,0,1-2.68,1.11,10.94,10.94,0,0,1-3,.36,10.09,10.09,0,0,1-7.32-2.8A9.41,9.41,0,0,1,116,42.14a9.36,9.36,0,0,1,2.9-7,10.21,10.21,0,0,1,7.41-2.74,14.16,14.16,0,0,1,2.94.33,13.15,13.15,0,0,1,2.79,1Z"/><path class="cls-8" d="M134.87,52.26,138,33.84l3.94.67L138.8,52.93Z"/><path class="cls-9" d="M163.51,51.16a9.83,9.83,0,0,1-2,3.29,9.34,9.34,0,0,1-3.11,2.19,10.44,10.44,0,0,1-3.82.85,10,10,0,0,1-6.74-2.35,10.36,10.36,0,0,1-2.23-2.61,9.78,9.78,0,0,1,1.26-11.64A9.24,9.24,0,0,1,150,38.71a10,10,0,0,1,3.8-.85,10.4,10.4,0,0,1,3.84.63,10.12,10.12,0,0,1,3.3,2,10.38,10.38,0,0,1,2.31,3.12,9.57,9.57,0,0,1,.92,3.71A9.83,9.83,0,0,1,163.51,51.16ZM152,53.52a5.43,5.43,0,0,0,4.55-.2,6.81,6.81,0,0,0,3.1-8.37A5.75,5.75,0,0,0,151.8,42a6.87,6.87,0,0,0-3.15,8.38A5.51,5.51,0,0,0,152,53.52Zm11.24-19.4-5.39,3-1.7-.64,4-3.53Z"/><path class="cls-10" d="M162.18,61.1l11-15.1,3.35,2.45.27,13.66a8.42,8.42,0,0,1-.13,1.51c-.1.62-.25,1.32-.45,2.11.25-.5.52-1,.81-1.45s.67-1,1.15-1.68l6.16-8.45,3.09,2.25-11,15.1-3.16-2.31-.34-14a8.42,8.42,0,0,1,.13-1.51c.11-.62.26-1.33.46-2.14-.24.49-.51,1-.79,1.44s-.68,1-1.18,1.71l-6.28,8.62Z"/><path class="cls-11" d="M183.77,79.4,199.29,69l2.84,4.23a21.11,21.11,0,0,1,2.29,4.18,8.28,8.28,0,0,1,.53,3.32,8.08,8.08,0,0,1-1.21,3.91,11.29,11.29,0,0,1-7.31,4.87,8.16,8.16,0,0,1-4.09-.4,8.54,8.54,0,0,1-2.68-1.63,19.92,19.92,0,0,1-2.88-3.58L186,82.72Zm5,1.44L190,82.69c1.17,1.74,2.41,2.74,3.74,3s2.84-.18,4.56-1.33a6.18,6.18,0,0,0,3-3.71,6.26,6.26,0,0,0-1.36-4.6L198.7,74.2Z"/><path class="cls-12" d="M193.71,95.31l17.37-6.89,4,10.23L212,99.89l-2.58-6.52-3.57,1.42,2.58,6.52-3.16,1.25L202.69,96l-4.35,1.73,2.58,6.51-3.16,1.25Z"/><path class="cls-13" d="M48.45,127l-13.32-.68a23.3,23.3,0,0,1-3.33-.35,5.9,5.9,0,0,1-1.78-.69,4,4,0,0,1-1.62-1.88,6.48,6.48,0,0,1-.43-2.89,5.14,5.14,0,0,1,1.24-3.35,5,5,0,0,1,3.2-1.48l1.33,3.21a2.81,2.81,0,0,0-1.46.42,1.27,1.27,0,0,0-.53,1,1.19,1.19,0,0,0,.54,1.18,7.08,7.08,0,0,0,2.67.45l1.81.09,11.9.62Z"/><path class="cls-14" d="M50.81,147l-12.45,1.94q-4.06.65-6.41-1.2t-3-6.14q-.67-4.4,1-6.85t5.74-3.09l12.45-1.94.66,4.25L37,135.75a5.58,5.58,0,0,0-3.55,1.68,4.14,4.14,0,0,0-.74,3.46A4.29,4.29,0,0,0,34.48,144a5.55,5.55,0,0,0,3.89.54l11.78-1.84Z"/><path class="cls-15" d="M33.06,157l18.79-7.56,4.44,11.06-3.38,1.36-2.84-7-3.86,1.55,2.83,7-3.41,1.37-2.83-7-4.71,1.89,2.83,7-3.41,1.38Z"/><path class="cls-16" d="M55.17,176.57l5.35,7.52c-.09.08-.19.17-.3.25l-.52.38a10.48,10.48,0,0,1-7.51,2.15A8.74,8.74,0,0,1,46,183,10.58,10.58,0,0,1,44,175a11,11,0,0,1,12.42-8.82,10.63,10.63,0,0,1,6.94,4.59,9.85,9.85,0,0,1,1.78,4.3,10.9,10.9,0,0,1-.39,4.79l-3.45-1.13a7.3,7.3,0,0,0,.27-3,6.17,6.17,0,0,0-1.12-2.62,6.39,6.39,0,0,0-4.31-2.83A7.77,7.77,0,0,0,48,176a6.21,6.21,0,0,0,1.19,4.93A5.54,5.54,0,0,0,52,183.17a3.12,3.12,0,0,0,2.9-.44l.18-.12-2.82-4Z"/><path class="cls-17" d="M79.14,200.48a10.38,10.38,0,0,1-3.22,2.66,10,10,0,0,1-4,1.16,11,11,0,0,1-4.21-.46,10.71,10.71,0,0,1-6.09-4.75,11.3,11.3,0,0,1-1.38-3.46,10.32,10.32,0,0,1,0-4.66,10.77,10.77,0,0,1,5.31-6.84,10.19,10.19,0,0,1,4-1.15,11,11,0,0,1,10.58,5.68,11.08,11.08,0,0,1,1.28,4,10.06,10.06,0,0,1-.35,4.13A10.61,10.61,0,0,1,79.14,200.48Zm-12.63-1.59a5.93,5.93,0,0,0,4.74,1.38,7.4,7.4,0,0,0,6.1-7.51,6.24,6.24,0,0,0-7-5.75,7.43,7.43,0,0,0-6.15,7.49A6,6,0,0,0,66.51,198.89Z"/><path class="cls-18" d="M78.84,208.31l3.33-1.47a3.61,3.61,0,0,0,.6,2.21,4.12,4.12,0,0,0,1.79,1.53,3.73,3.73,0,0,0,2.49.35,2.41,2.41,0,0,0,1.61-1.4q.6-1.31-1.49-3.82l-1.06-1.31a11.36,11.36,0,0,1-2.22-4,5,5,0,0,1,.38-3.29,5.06,5.06,0,0,1,3.51-2.91,7.89,7.89,0,0,1,5.36.68,7.28,7.28,0,0,1,2.62,1.9,6.46,6.46,0,0,1,1.3,2.81l-3.34,1.16a3.07,3.07,0,0,0-.55-1.7,3.61,3.61,0,0,0-1.47-1.15,3.18,3.18,0,0,0-2.16-.28,2.05,2.05,0,0,0-1.41,1.19q-.66,1.45,1.63,4l.69.78a10.65,10.65,0,0,1,2.36,4,5.1,5.1,0,0,1-.28,3.59,5.75,5.75,0,0,1-3.65,3.32,7.67,7.67,0,0,1-5.46-.63,8.92,8.92,0,0,1-3.28-2.39A5.36,5.36,0,0,1,78.84,208.31Z"/><path class="cls-19" d="M105.52,220.59l2.62-20.07L120,202.06l-.47,3.62-7.53-1-.54,4.12,7.53,1-.48,3.64-7.52-1-.66,5,7.52,1-.47,3.64Z"/><path class="cls-20" d="M122.5,219.83l2.23-2.87a3.68,3.68,0,0,0,1.57,1.67,4.14,4.14,0,0,0,2.31.5,3.7,3.7,0,0,0,2.35-.86,2.38,2.38,0,0,0,.77-2c-.06-1-1.1-1.85-3.12-2.68-.65-.26-1.17-.48-1.55-.65a11.28,11.28,0,0,1-3.84-2.47A5,5,0,0,1,122,207.4a5,5,0,0,1,1.72-4.22,7.9,7.9,0,0,1,5-1.93,7.21,7.21,0,0,1,3.21.45,6.39,6.39,0,0,1,2.48,1.86l-2.4,2.6a3.06,3.06,0,0,0-1.29-1.24,3.61,3.61,0,0,0-1.84-.33,3.19,3.19,0,0,0-2,.77,2.06,2.06,0,0,0-.69,1.72q.11,1.59,3.3,2.73l1,.35a10.7,10.7,0,0,1,4,2.42,5.13,5.13,0,0,1,1.44,3.29,5.71,5.71,0,0,1-1.66,4.65,7.66,7.66,0,0,1-5.1,2,9.11,9.11,0,0,1-4-.56A5.31,5.31,0,0,1,122.5,219.83Z"/><path class="cls-21" d="M142.07,220.54l-5-19.61,4.83-1.24c2.57-.66,4.59-.65,6.07,0a5.65,5.65,0,0,1,3,4.09,5.81,5.81,0,0,1-.71,5,7.8,7.8,0,0,1-4.72,2.93l-1.15.3,1.92,7.49Zm1.46-11.84.61-.15a3.83,3.83,0,0,0,2.31-1.35,3.07,3.07,0,0,0,.19-2.48,2.74,2.74,0,0,0-1.32-1.91,3.88,3.88,0,0,0-2.66,0l-.6.15Z"/><path class="cls-22" d="M156.1,217.09l-1.87-21.58,4.46-2.15,15.84,14.83-4.44,2.14-3.35-3.16-7.06,3.41.6,4.49Zm8.25-12.54-4.88-4.91a10.12,10.12,0,0,1-.66-.78c-.3-.38-.64-.86-1-1.42.18.64.33,1.22.46,1.74s.2.86.23,1l.84,6.77Z"/><path class="cls-23" d="M181.35,183.51a9.35,9.35,0,0,0-3.17.39,8,8,0,0,0-2.64,1.46,7,7,0,0,0-2.74,4.78,8,8,0,0,0,6.42,8,6.38,6.38,0,0,0,4.95-1.65,8.71,8.71,0,0,0,3.18-5.67l2.8,3.44a11.33,11.33,0,0,1-1.46,2.78,12.42,12.42,0,0,1-2.2,2.34,11,11,0,0,1-8.05,2.74,10.93,10.93,0,0,1-9.7-11.78,11.05,11.05,0,0,1,4.28-7.42,14.66,14.66,0,0,1,2.67-1.76,14.08,14.08,0,0,1,3-1.1Z"/><path class="cls-24" d="M195,190.27l-15.41-13.12,2.8-3.3L197.77,187Z"/><path class="cls-25" d="M200.87,183.83l-13.54-16.9,2.51-4.27,21.41,3.53-2.5,4.24-4.54-.76-4,6.76,3,3.39Zm-.1-15L194,167.45a9.69,9.69,0,0,1-1-.29c-.46-.15-1-.35-1.66-.6.51.44,1,.83,1.35,1.19s.65.61.77.75l4.46,5.16Z"/><path class="cls-26" d="M212.7,161.65l-19.19-6.46,1.38-4.1,15.7,5.29,2.21-6.56,3.48,1.18Z"/><path class="cls-27" d="M217.37,146.15l-20-2.88,1.7-11.8,3.61.52-1.08,7.52,4.12.59,1.08-7.52,3.64.53-1.08,7.51,5,.73,1.08-7.52,3.65.52Z"/><path class="cls-28" d="M216.82,129.16,214,126.89a3.66,3.66,0,0,0,1.68-1.55,4.13,4.13,0,0,0,.54-2.3,3.72,3.72,0,0,0-.84-2.37,2.39,2.39,0,0,0-2-.79c-1,.05-1.86,1.08-2.71,3.09-.27.65-.5,1.16-.67,1.54a11.37,11.37,0,0,1-2.52,3.8,5,5,0,0,1-3.1,1.18,5.07,5.07,0,0,1-4.2-1.78,7.89,7.89,0,0,1-1.86-5.06,7.27,7.27,0,0,1,.48-3.2,6.48,6.48,0,0,1,1.9-2.46l2.57,2.43A3.1,3.1,0,0,0,202,120.7a3.57,3.57,0,0,0-.35,1.84,3.16,3.16,0,0,0,.75,2,2,2,0,0,0,1.7.7q1.6-.07,2.77-3.26l.37-1a10.71,10.71,0,0,1,2.46-3.93,5.13,5.13,0,0,1,3.31-1.4,5.73,5.73,0,0,1,4.64,1.71,7.64,7.64,0,0,1,1.94,5.13,9,9,0,0,1-.6,4A5.43,5.43,0,0,1,216.82,129.16Z"/></svg>