<svg id="logo-shadow" class="svg-element" xmlns="http://www.w3.org/2000/svg" viewBox="0 0 250 250"><defs><style>.logo-shadow1{isolation:isolate;}.logo-shadow2{mix-blend-mode:multiply;}.logo-shadow3,.logo-shadow4,.logo-shadow5{stroke:#000;stroke-miterlimit:10;}.logo-shadow3{stroke-width:0.5px;}.logo-shadow4,.logo-shadow5{fill:none;}.logo-shadow4{stroke-width:0.75px;}.logo-shadow5{stroke-width:0.25px;}</style></defs><title>sgf-logo-shadow</title><g class="logo-shadow1"><g id="Shadow"><g class="logo-shadow2"><path id="OuterRingStrong" class="logo-shadow3" d="M120.7,13.29h5.35v0A112.36,112.36,0,0,1,235.71,115h0c.23,2.26.3,4.55.54,6.84h0v7.77h0c-.32,3.58-.47,7.18-1,10.73h0A112.38,112.38,0,0,1,11.46,128.07h0v-4.79h0A112.57,112.57,0,0,1,95.69,16.79a115.14,115.14,0,0,1,25-3.54V13a115,115,0,0,0-25,3.55A112.79,112.79,0,0,0,11.21,123.28h0v4.79h0A112.64,112.64,0,0,0,235.5,140.32h-.13l.13,0c.53-3.57.68-7.18,1-10.75h0v-7.78h0c-.24-2.27-.31-4.56-.54-6.84h0A112.61,112.61,0,0,0,126.06,13H120.7v.25m-3.87,8A104.62,104.62,0,0,0,19.27,125.53q0,3.57.24,7.17a104.63,104.63,0,0,0,104.27,97.56q3.56,0,7.17-.25a104.61,104.61,0,0,0-7-209q-3.54,0-7.07.24v.25c2.35-.16,4.71-.24,7.06-.24a104.36,104.36,0,0,1,7,208.49q-3.6.26-7.15.25a104.37,104.37,0,0,1-104-97.33q-.24-3.6-.24-7.15a104.37,104.37,0,0,1,97.32-104v-.25"/><path id="InnerRingStroke" class="logo-shadow4" d="M120.9,69.81a57.54,57.54,0,1,0,36.49,10,57.56,57.56,0,0,0-36.49-10"/><path id="Text_Shadow" data-name="Text Shadow" d="M111.54,201.78v0H112c1.85,0,3.86.09,5.41,1.25h0a3.54,3.54,0,0,1,1.35,2.88,4,4,0,0,1-2.1,3.59,5.14,5.14,0,0,1-2.39.52,29,29,0,0,1-3.11-.31h0c-.09,0-.24,0-.38,0s-.27-.1-.27-.26l0-.14h0c.34-2.43.67-5,1-7.43h0m-4.08-4.37h-.85c-1.08,8.57-2.33,17.1-3.33,25.66,1.8.22,3.58.5,5.38.69.43-3.44.91-6.89,1.34-10.34v0h0a10.45,10.45,0,0,1,4,.84h0a4.2,4.2,0,0,1,1.86,3.21,60.47,60.47,0,0,0,1.12,7.46c1.85.23,3.7.48,5.54.73-.49-2.67-.74-5.38-1.16-8.06h0a6.18,6.18,0,0,0-2.44-4.44.55.55,0,0,1-.34-.51l0-.19v0h0a7.25,7.25,0,0,0,3.67-2h0a6.95,6.95,0,0,0-.1-9.65c-1.91-1.74-4.51-2.31-7-2.73h0a49.42,49.42,0,0,0-7.87-.62m-.89,0h0m31.18,4.33v0h.46v0c1.32,3.15,2.91,6.19,4.44,9.26a4.62,4.62,0,0,1,.53,1.28l0,.06h-.06c-2.11.33-4.2.77-6.31,1.11h-.06v-.07c.22-3,.64-6.1.75-9.1h0a24.83,24.83,0,0,1,.17-2.58h.05m3.36-4.66c-2.44.49-4.94.88-7.39,1.36-1,9.07-2.21,18.12-3.21,27.18,1.86-.31,3.71-.7,5.58-1,.26-2.36.42-4.73.68-7.1v0h0c2.6-.4,5.21-.92,7.82-1.4h0l0,0c1.11,2.09,2.18,4.21,3.22,6.34,2-.24,3.87-.65,5.83-1-.44-1.07-1.05-2.11-1.55-3.09h0q-3.09-5.94-6.17-11.88h0c-1.66-3.13-3.22-6.32-4.92-9.42m4.64-.71h0M89.38,190l-10.33,24,0,0,0,0h0V214c5,2.21,10.1,4.32,15.08,6.53.64-1.32,1.18-2.69,1.77-4-3.33-1.52-6.76-2.83-10.06-4.41l0,0,0,0c1-2,1.72-4.18,2.72-6.19l0,0,0,0c3,1.27,6,2.59,9,3.85.57-1.34,1.2-2.66,1.7-4-3-1.3-6-2.53-9-3.9l0,0,0,0c.82-1.82,1.56-3.67,2.39-5.48l0,0,0,0c3.18,1.35,6.35,2.75,9.54,4.1.57-1.36,1.2-2.68,1.71-4.06-4.88-2.1-9.75-4.22-14.64-6.29m74.57-1.9q-9,4.17-18.09,8.28c.52,1.4,1.25,2.73,1.83,4.13,2.21-.86,4.32-2,6.51-2.91l.05,0,0,.05c3,6.52,6,13.08,9,19.62,1.7-.67,3.35-1.51,5-2.25-2.92-6.56-5.91-13-8.9-19.53h0v0a.36.36,0,0,1,.21-.31c.1-.06.23-.09.32-.14h0c2-.9,4-1.83,6-2.75-.68-1.37-1.25-2.79-2-4.12m1.26-1.61h0m4.51-3.22c-1.49,1-2.95,2.16-4.44,3.23,5.1,7.07,10.32,14.07,15.44,21.14,1.53-1,3-2.16,4.48-3.25-5.17-7-10.3-14.14-15.48-21.12M59.71,195l0,0q5.76-6.82,11.58-13.64l0,0,0,0a11.61,11.61,0,0,1,5.56,6.11h0a7.86,7.86,0,0,1,.29,2.09,7.66,7.66,0,0,1-1.5,4.56,11.59,11.59,0,0,1-6.48,5h0a8.66,8.66,0,0,1-1.6.15,8.48,8.48,0,0,1-5.21-1.79,14.35,14.35,0,0,1-2.67-2.43l0,0h0m9.81-20.19c-5.51,6.58-11.1,13.08-16.62,19.65a52.59,52.59,0,0,0,5,4.7h0a23.3,23.3,0,0,0,7.85,4.61h0a11,11,0,0,0,3.47.55,11.25,11.25,0,0,0,2.31-.24,15.47,15.47,0,0,0,11-11.37,10.53,10.53,0,0,0,.13-1.67,11.43,11.43,0,0,0-2.12-6.64h0a30.71,30.71,0,0,0-6.7-6.62h0a33,33,0,0,0-4.25-3m-31.87-1.9h0v0h0l0,0m148.44.44v0a8.57,8.57,0,0,1,1.74-.18,8.86,8.86,0,0,1,4.9,1.48,14.7,14.7,0,0,1,5,5h0a7.17,7.17,0,0,1,1.09,3.81,7,7,0,0,1-.09,1.12h0a6.13,6.13,0,0,1-3.57,4.27h0a7.28,7.28,0,0,1-2.52.45,7.38,7.38,0,0,1-3.08-.68h0a15,15,0,0,1-5.78-4.47,8.71,8.71,0,0,1-2-5.2h0a6,6,0,0,1,4.31-5.59m3.06-5.52a13.14,13.14,0,0,0-2.07.17V168h0V168a11.84,11.84,0,0,0-6.12,3.37h0a13.14,13.14,0,0,0-3.93,7.9c0,.34,0,.67,0,1a12.53,12.53,0,0,0,2,6.84,17.18,17.18,0,0,0,6.73,6h0a12.25,12.25,0,0,0,9,1,13.31,13.31,0,0,0,7.64-6.62h0a11.61,11.61,0,0,0,1.46-5.63,11.94,11.94,0,0,0-.35-2.84,15.8,15.8,0,0,0-6.1-8.36h0a13.26,13.26,0,0,0-8.17-2.83m-129.3-8.94Q48.77,166,37.7,173c2.89,4.65,5.88,9.3,8.87,14,1.23-.79,2.48-1.55,3.69-2.36-1.85-3.1-3.9-6.15-5.83-9.24l0,0,.05,0c1.89-1.25,3.82-2.45,5.74-3.65l0,0,0,0c1.76,2.74,3.47,5.52,5.26,8.24,1.22-.78,2.49-1.52,3.68-2.37-1.78-2.73-3.55-5.47-5.24-8.26l0,0,0,0c1.7-1,3.36-2.18,5.06-3.19l0,0,0,0c1.84,2.92,3.71,5.81,5.52,8.74,1.3-.71,2.53-1.55,3.76-2.36-2.86-4.5-5.68-9-8.54-13.44m136.45-17.5c-.54,1.56-1.23,3.08-1.67,4.67,5.79,2,11.43,4.41,17.41,5.87.28,0,.48.16.48.39a.6.6,0,0,1-.07.27l0,0h0a87.39,87.39,0,0,0-9,.77h0c-4.09.64-8.16,1.34-12.24,2-.77,2.07-1.59,4.14-2.26,6.25,8.16,3.07,16.34,6,24.5,9,.68-1.51,1.17-3.12,1.77-4.69-6-2.22-12-4.51-18.17-6.45a.33.33,0,0,1-.31-.25,1.13,1.13,0,0,1,0-.4v-.05h0a97.18,97.18,0,0,0,10.63-1.1c3.86-.62,7.74-1.14,11.59-1.82.61-1.82,1.25-3.65,2-5.45a13.21,13.21,0,0,0-1.7-.7h0c-7.68-2.78-15.27-5.63-22.89-8.37m-142.5,0c-8.3,2.59-16.61,5.32-24.94,7.92.47,1.77,1.09,3.52,1.65,5.27,3.4-1.06,6.78-2.18,10.19-3.22l0,0v0c1,3,1.93,6.1,2.93,9.08,1.37-.42,2.74-.87,4.11-1.3-.86-3.06-2-6.07-2.84-9.15l0,0H45c1.56-.47,3.11-1,4.67-1.47a6.52,6.52,0,0,1,1.63-.42h0v0c1,3.24,2.06,6.44,3.06,9.67,1.38-.39,2.74-.91,4.14-1.28a15.83,15.83,0,0,0-.66-2.33h0c-1.37-4.25-2.71-8.52-4.08-12.77m142.4-.06h0m13.29-31.1h0M29.23,108.39a16.69,16.69,0,0,0-2.13,8.15c0,.51,0,1,.07,1.52h-.05l0,0h.05a9,9,0,0,0,3.34,6.4h0a7.17,7.17,0,0,0,4.22,1.38,7.07,7.07,0,0,0,3.13-.73,10.67,10.67,0,0,0,4-4.32h0c.9-1.61,1.54-3.47,2.91-4.81h0l0,0h0a2.68,2.68,0,0,1,1.81-.7h0a2.66,2.66,0,0,1,2,.87h0a4.41,4.41,0,0,1,.85,2.62,2.82,2.82,0,0,1,0,.41h0a15.17,15.17,0,0,1-2.33,7.12c1.53.63,3.1,1.12,4.65,1.73A10,10,0,0,0,53,125.72h0a18.88,18.88,0,0,0,1.3-6.88,18.48,18.48,0,0,0-.12-2.1h0a8.92,8.92,0,0,0-3.26-6.1,7.81,7.81,0,0,0-4.62-1.51,8,8,0,0,0-2,.27,8.71,8.71,0,0,0-4.73,4.06h0c-1.16,1.81-1.83,3.93-3.3,5.55h0a2.31,2.31,0,0,1-2.84.54h0a3.22,3.22,0,0,1-1.43-2.68v-.14h0a12.9,12.9,0,0,1,1.82-6.55l-4.53-1.79m185.22-.1h0a6.65,6.65,0,0,0-4.94,2.07h0l0,0a13.5,13.5,0,0,0-2.93,6.3,9.75,9.75,0,0,1-1.56,3.75h0l0,0a2.62,2.62,0,0,1-2,.87h0a2.64,2.64,0,0,1-1.78-.69h0a5,5,0,0,1-1.29-2.93h0a15.79,15.79,0,0,1,.85-7.17c-1.65-.22-3.31-.49-5-.65a18.24,18.24,0,0,0-.47,9.52h0a10.49,10.49,0,0,0,3.87,6.61,7.78,7.78,0,0,0,4.35,1.33,7.66,7.66,0,0,0,3.42-.8,8.06,8.06,0,0,0,3.63-4.23h0c.87-2,1.11-4.21,2-6.22a2.85,2.85,0,0,1,1.77-1.83h0a2.3,2.3,0,0,1,.58-.07,2.36,2.36,0,0,1,2,1.09,6.9,6.9,0,0,1,1,4q0,.54,0,1.08h0a23,23,0,0,1-.61,3.29c1.59.23,3.19.51,4.78.77a16.5,16.5,0,0,0,.74-4.88,16.08,16.08,0,0,0-.15-2.18h0a11.62,11.62,0,0,0-3-6.89h0a7.19,7.19,0,0,0-5.13-2.07M188,92.79h0l0,0,.05,0h0m24.76-9.86c-8.25,3.3-16.5,6.57-24.74,9.9,2.1,5.25,4.18,10.49,6.3,15.72,1.53-.6,3-1.16,4.47-1.81-1.35-3.37-2.71-6.74-4-10.12l0,0,0,0c1.9-.84,3.91-1.59,5.9-2.39l.05,0,0,0c1.25,3,2.38,6.11,3.68,9.09,1.45-.62,2.93-1.17,4.39-1.77-1.18-3-2.4-6.09-3.61-9.07l0,0,0,0c1.71-.73,3.45-1.46,5.22-2.07l0,0,0,0c1.24,3.21,2.56,6.4,3.81,9.59,1.55-.56,3-1.16,4.49-1.78-2-5.07-4-10.15-6.05-15.22M40,88.79l0,0A3.42,3.42,0,0,1,42,88.07a4.29,4.29,0,0,1,4.18,3.3h0a8.27,8.27,0,0,1,0,.86,7.84,7.84,0,0,1-1.15,4.08h0c-.11.15-.21.46-.46.47l-.2-.07h0c-2.35-1-4.76-1.92-7.08-3l0,0v0c.46-1.78,1.08-3.72,2.55-4.89l0,0H40m2.5-6.49a8,8,0,0,0-1.19.08h0v0h0l0,0v.05a7.65,7.65,0,0,0-4.34,2.42h0a18,18,0,0,0-3.24,5.56h0a53.64,53.64,0,0,0-2.24,6.54,3.06,3.06,0,0,0-.1.73c8.1,3.27,16.14,6.69,24.24,10,.71-1.8,1.48-3.58,2.21-5.38-2.8-1.23-5.66-2.34-8.48-3.54a.2.2,0,0,1-.18-.21,1.15,1.15,0,0,1,.15-.43h0a15.14,15.14,0,0,0,1.91-7.35c0-.39,0-.79,0-1.18a7.7,7.7,0,0,0-2.56-4.89h0a9,9,0,0,0-6.08-2.34M51.7,68.56l0,0a11.22,11.22,0,0,1,1.83.76h0c2.79,1.35,5.7,2.35,8.49,3.66l.06,0,0,.05c-1.22,1.59-2.42,3.12-3.72,4.59l0,.05,0-.05c-1.8-2.43-3.46-4.95-5.37-7.29h0a19.11,19.11,0,0,1-1.27-1.69l0,0h0l0,0h0m-.84-6a.37.37,0,0,0-.29.22h0c-1.54,2-3.15,3.87-4.67,5.86l15.67,23c1.31-1.53,2.55-3.13,3.81-4.73-1.25-2-2.8-3.8-4.06-5.8l0,0,0,0c1.59-2,3.16-4.07,4.84-6l0,0h0q3.27,1.37,6.57,2.66c1-1.3,2.12-2.59,3.11-3.89h0a5.37,5.37,0,0,0,.8-1.09C68.15,69.35,59.62,66,51,62.63h0l-.14-.05h0m138-11c-1,.68-1.88,1.49-2.87,2.22h0l0,0h0l-.05,0,0,0c-6,4.78-12.07,9.52-18,14.31,1.2,1.37,2.41,2.71,3.64,4.05,5.05-4.1,10-8.18,15-12.34h0a10.22,10.22,0,0,1,1.34-1l.17-.11-.1.18a13.71,13.71,0,0,1-1.13,1.61c-3.86,5.18-7.13,10.77-10.67,16.16,1,1.12,2,2.19,3,3.28h0l.16.1h0a.91.91,0,0,0,.35-.12l9.39-4.32q4.38-2,8.62-4.15a5.45,5.45,0,0,1,1.35-.6l.18-.05-.13.13c-.84.86-1.78,1.63-2.65,2.47-4.3,4-8.46,8.16-12.69,12.24,1.27,1.44,2.57,2.86,3.86,4.28,6.29-6.25,12.52-12.59,18.79-18.87-1.68-1.95-3.46-3.79-5.15-5.77-2.77,1.13-5.46,2.44-8.2,3.63h0c-3.13,1.45-6.16,3.14-9.24,4.69l-.13.06.06-.12a4.15,4.15,0,0,1,.62-1c3.59-4.83,6.7-10,9.8-15.14-1.78-1.89-3.5-3.87-5.28-5.85M79.75,39.93a10.53,10.53,0,0,0-2.62.78h0l0,0h0l0,0a18,18,0,0,0-8.58,7.21A12.61,12.61,0,0,0,67,56.35a16.45,16.45,0,0,0,4.12,8h0a12.22,12.22,0,0,0,8,4.08h.58A14.7,14.7,0,0,0,87.93,66h0a20,20,0,0,0,5.59-5,9,9,0,0,0-1.17-1.29h0c-.72-.69-1.39-1.42-2.1-2.11-1.91,2.39-4.47,4.52-7.56,5.07h0a8.5,8.5,0,0,1-1.23.1,7.5,7.5,0,0,1-5.23-2.12h0a11.54,11.54,0,0,1-3.45-6.12h0a7.85,7.85,0,0,1-.1-1.27,7.57,7.57,0,0,1,2.12-5.25,12.61,12.61,0,0,1,6.57-3.57c-.34-1.34-.91-2.62-1.32-3.94-.11-.23-.12-.5-.3-.62m84.53,4h0a6.55,6.55,0,0,1,1.2-1.32l.11-.09,0,.14c-.76,3.66-1.41,7.34-2,11v.07l-.06,0c-1.81-.81-3.58-1.72-5.35-2.6l-.06,0,.05,0c2.06-2.37,4.24-4.64,6.16-7.12M164.15,37q-9.08,9.63-18.06,19.29h0a4.82,4.82,0,0,0-.9,1.06c1.85.85,3.62,1.85,5.5,2.63,1.5-1.77,3.09-3.48,4.6-5.25l0,0h0c2.36,1,4.64,2.23,7,3.36l0,0v0c-.35,2.37-.83,4.71-1.11,7.08,1.91.87,3.73,1.88,5.69,2.74,1.42-9.18,2.89-18.36,4.28-27.54-2.36-1.11-4.68-2.31-7-3.41m0-.06h0M88.32,35.41h0M104,30.67c-5.22,1.53-10.39,3.21-15.6,4.76,1,3.63,2.22,7.22,3.3,10.84,1.51,4.88,3,9.74,4.5,14.62,5.41-1.61,10.77-3.37,16.18-5-.43-1.55-.92-3.09-1.41-4.63-3.43,1.06-6.94,2.12-10.4,3.21l0,0v-.05c-.73-1.95-1.22-4-1.93-6l0,0,0,0a7,7,0,0,1,1.46-.51L107,45.76h0a5.2,5.2,0,0,0,.95-.37c-.51-1.49-.94-3-1.41-4.5-3.12.86-6.22,1.92-9.34,2.85l0,0v0c-.6-1.76-1.11-3.54-1.66-5.32l0,0h0c3.29-1.06,6.59-2,9.89-3-.42-1.54-.91-3.08-1.4-4.61m32.62-1.31h-.7a14.45,14.45,0,0,0-9.42,3.56l0,0v0h0l0,0a13.83,13.83,0,0,0-4.19,8.85h0a14.35,14.35,0,0,0-.13,1.84,13,13,0,0,0,2.61,7.8,12.71,12.71,0,0,0,6.42,4.18,27.21,27.21,0,0,0,13.13.37q.85-7,1.57-13.92c-3.26-.34-6.51-.76-9.76-1.07-.16,1.51-.35,3-.51,4.53,1.33.18,2.67.32,4,.45h.05V46c-.16,1.89-.38,3.77-.63,5.64v0h0a11.32,11.32,0,0,1-4.77-.32,7.66,7.66,0,0,1-5-4.24h0a10.64,10.64,0,0,1-.76-4,10.86,10.86,0,0,1,.51-3.29A7.6,7.6,0,0,1,133.26,35a9.41,9.41,0,0,1,3.79-.74,17.27,17.27,0,0,1,4.69.74h0a25.71,25.71,0,0,1,2.72,1.09c.55-1.55,1.17-3,1.72-4.49a11.11,11.11,0,0,0-1.84-.88,22.55,22.55,0,0,0-7.71-1.35"/><path id="Test_Stroke" data-name="Test Stroke" class="logo-shadow5" d="M125.47,31.9a14.52,14.52,0,0,1,9.46-3.58,22.54,22.54,0,0,1,8.42,1.35,10.91,10.91,0,0,1,1.89.9c-.56,1.53-1.2,3-1.75,4.58A26.66,26.66,0,0,0,140.72,34c-2.73-.77-5.76-1.17-8.44,0A7.56,7.56,0,0,0,128,38.93a10.76,10.76,0,0,0,.24,7.21,7.64,7.64,0,0,0,5,4.21,11.39,11.39,0,0,0,4.75.32c.25-1.87.47-3.75.63-5.64-1.36-.13-2.72-.27-4.07-.45.16-1.55.36-3.09.52-4.63,3.29.31,6.57.74,9.86,1.08q-.72,7-1.58,14a27.26,27.26,0,0,1-13.19-.36,12.7,12.7,0,0,1-6.44-4.2,13,13,0,0,1-2.49-9.67,13.89,13.89,0,0,1,4.2-8.88M87.32,34.41c5.25-1.56,10.46-3.26,15.72-4.8.5,1.56,1,3.13,1.43,4.71-3.32,1-6.63,2-9.94,3.06.55,1.78,1.06,3.56,1.66,5.32,3.14-.94,6.25-2,9.39-2.87.48,1.53.92,3.07,1.44,4.59a5.76,5.76,0,0,1-1,.39L99.08,47a6.42,6.42,0,0,0-1.45.51c.71,2,1.2,4,1.93,6,3.48-1.1,7-2.16,10.45-3.23.5,1.57,1,3.14,1.44,4.73-5.44,1.61-10.83,3.38-16.28,5-1.47-4.9-3-9.78-4.51-14.67-1.08-3.63-2.29-7.23-3.31-10.87m75.78,1.48c2.38,1.11,4.72,2.32,7.1,3.44-1.39,9.22-2.87,18.43-4.29,27.65-2-.88-3.85-1.9-5.79-2.79.28-2.38.77-4.73,1.12-7.11-2.31-1.13-4.59-2.32-6.94-3.36-1.52,1.78-3.12,3.49-4.63,5.27-1.91-.79-3.71-1.81-5.59-2.67a5,5,0,0,1,.94-1.11q9-9.67,18.08-19.32m.2,7c-1.93,2.49-4.11,4.76-6.18,7.14,1.77.88,3.54,1.79,5.35,2.6.59-3.7,1.24-7.39,2-11a6.75,6.75,0,0,0-1.19,1.31m-87.2-3.23a10.36,10.36,0,0,1,2.65-.79c.22.14.22.44.33.65.42,1.34,1,2.64,1.34,4a12.55,12.55,0,0,0-6.6,3.57,7.51,7.51,0,0,0-2,6.47,11.49,11.49,0,0,0,3.43,6.1,7.53,7.53,0,0,0,6.42,2c3.09-.55,5.65-2.69,7.56-5.09.73.7,1.41,1.45,2.14,2.15a8.32,8.32,0,0,1,1.2,1.32,20.11,20.11,0,0,1-5.63,5,14.71,14.71,0,0,1-8.76,2.47,12.3,12.3,0,0,1-8.07-4.09A16.56,16.56,0,0,1,66,55.36,12.74,12.74,0,0,1,67.5,46.9a18,18,0,0,1,8.61-7.23M185,52.74c1-.73,1.89-1.55,2.9-2.24,1.8,2,3.54,4,5.34,5.91-3.11,5.15-6.22,10.33-9.82,15.17a4.29,4.29,0,0,0-.62,1c3.08-1.55,6.11-3.24,9.25-4.69,2.75-1.2,5.45-2.51,8.23-3.65,1.71,2,3.51,3.86,5.21,5.84-6.3,6.3-12.55,12.66-18.87,18.94-1.31-1.45-2.63-2.89-3.92-4.36,4.24-4.09,8.41-8.26,12.72-12.27.87-.84,1.81-1.61,2.65-2.47a4.88,4.88,0,0,0-1.34.6q-4.23,2.15-8.62,4.15L178.69,79c-.21.09-.45.22-.59,0-1-1.1-2-2.18-3-3.31,3.55-5.4,6.83-11,10.7-16.2a13.51,13.51,0,0,0,1.12-1.6,9.07,9.07,0,0,0-1.33,1c-5,4.17-10,8.26-15.06,12.37-1.25-1.36-2.48-2.73-3.71-4.12,6-4.8,12.07-9.56,18.1-14.35m-135.4,9c.11-.19.31-.32.51-.19,8.62,3.33,17.17,6.73,25.74,10.08a5.84,5.84,0,0,1-.84,1.15c-1,1.31-2.1,2.61-3.14,3.92-2.21-.86-4.41-1.76-6.6-2.67-1.67,1.93-3.24,4-4.83,6,1.26,2,2.82,3.84,4.08,5.83-1.28,1.62-2.54,3.25-3.88,4.81l-15.73-23c1.53-2,3.15-3.92,4.7-5.89m1.13,5.82a20.55,20.55,0,0,0,1.27,1.68c1.91,2.34,3.57,4.87,5.37,7.29,1.3-1.47,2.5-3,3.72-4.59-2.79-1.31-5.7-2.31-8.5-3.66a10.76,10.76,0,0,0-1.82-.76M40.26,81.33a9.06,9.06,0,0,1,7.31,2.28,7.7,7.7,0,0,1,2.58,4.92,15.13,15.13,0,0,1-1.87,8.56c-.08.18-.28.52,0,.58,2.84,1.2,5.71,2.32,8.53,3.56-.74,1.83-1.52,3.64-2.25,5.47-8.12-3.29-16.19-6.72-24.31-10a3.33,3.33,0,0,1,.1-.78,55.55,55.55,0,0,1,2.24-6.55,18.07,18.07,0,0,1,3.25-5.58,7.7,7.7,0,0,1,4.37-2.44m-1.3,6.45c-1.46,1.16-2.08,3.09-2.53,4.87,2.32,1.08,4.73,2,7.08,3,.31.23.46-.18.59-.38a7.71,7.71,0,0,0,1.1-4.91c-.46-2.62-4-4.24-6.19-2.59m148,4c8.25-3.34,16.52-6.62,24.78-9.92,2.09,5.1,4.09,10.21,6.09,15.31-1.52.63-3,1.25-4.58,1.82-1.26-3.21-2.58-6.41-3.83-9.64-1.76.61-3.5,1.34-5.21,2.07,1.22,3,2.45,6.07,3.63,9.12-1.49.61-3,1.18-4.48,1.81-1.31-3-2.44-6.11-3.7-9.14-2,.8-4,1.55-5.9,2.39,1.33,3.39,2.7,6.77,4.05,10.16-1.5.66-3,1.24-4.56,1.85-2.13-5.26-4.22-10.53-6.33-15.8m21.55,17.51c2.59-2.85,7.51-2.7,10.14,0a11.58,11.58,0,0,1,3.07,6.92,16.5,16.5,0,0,1-.61,7.12c-1.62-.27-3.25-.55-4.88-.79a21.24,21.24,0,0,0,.63-3.33,8.18,8.18,0,0,0-.92-5,2.29,2.29,0,0,0-2.51-1,2.83,2.83,0,0,0-1.74,1.8c-.88,2-1.12,4.22-2,6.22a8.15,8.15,0,0,1-3.65,4.26,7.8,7.8,0,0,1-7.82-.54,10.51,10.51,0,0,1-3.89-6.64,18.44,18.44,0,0,1,.48-9.58c1.7.16,3.39.44,5.08.66a15.39,15.39,0,0,0-.87,7.21,5.07,5.07,0,0,0,1.27,2.9,2.62,2.62,0,0,0,3.68-.18v0a9.44,9.44,0,0,0,1.55-3.73,13.59,13.59,0,0,1,3-6.39M26.12,117.07a16.85,16.85,0,0,1,2.08-9.74l4.63,1.83A12.77,12.77,0,0,0,31,115.73a3.19,3.19,0,0,0,1.4,2.78,2.28,2.28,0,0,0,2.78-.53c1.46-1.61,2.13-3.73,3.29-5.54a8.76,8.76,0,0,1,4.76-4.08,7.85,7.85,0,0,1,6.72,1.24,8.93,8.93,0,0,1,3.28,6.14,18.69,18.69,0,0,1-1.19,9,9.66,9.66,0,0,1-1.2,2.35c-1.57-.62-3.18-1.12-4.74-1.76a15.1,15.1,0,0,0,2.36-7.15,4.39,4.39,0,0,0-.82-3,2.63,2.63,0,0,0-3.71-.18l0,0c-1.36,1.33-2,3.18-2.9,4.8a10.76,10.76,0,0,1-4.07,4.34,7.18,7.18,0,0,1-7.4-.66,9,9,0,0,1-3.36-6.43m1.68,31.17c8.35-2.61,16.68-5.34,25-7.94,1.37,4.27,2.72,8.55,4.09,12.82a15,15,0,0,1,.68,2.38c-1.43.37-2.82.91-4.24,1.3-1-3.24-2.09-6.46-3.07-9.71a6.55,6.55,0,0,0-1.62.42c-1.56.48-3.11,1-4.67,1.47.89,3.09,2,6.12,2.86,9.2-1.4.44-2.8.9-4.21,1.33-1-3-1.93-6.1-2.94-9.13-3.42,1-6.82,2.17-10.24,3.24-.57-1.79-1.2-3.57-1.68-5.38m167.41-7.94c7.66,2.76,15.29,5.62,23,8.42a11.1,11.1,0,0,1,1.75.72c-.73,1.82-1.38,3.67-2,5.52-3.86.68-7.75,1.2-11.62,1.82a97.18,97.18,0,0,1-10.63,1.1c0,.25,0,.58.32.6,6.15,1.95,12.17,4.25,18.22,6.47-.61,1.6-1.11,3.24-1.81,4.79-8.19-3.06-16.4-6-24.59-9.08.68-2.13,1.51-4.23,2.29-6.32,4.09-.65,8.17-1.36,12.27-2a87.63,87.63,0,0,1,9-.77c.17-.34,0-.58-.37-.59-6-1.46-11.66-3.85-17.46-5.88.44-1.64,1.16-3.2,1.71-4.81M36.65,171.93q11.1-7,22.21-14.09c2.88,4.51,5.72,9,8.6,13.53-1.26.83-2.52,1.69-3.85,2.41-1.82-2.94-3.7-5.85-5.55-8.78-1.7,1-3.36,2.14-5.06,3.19,1.7,2.8,3.48,5.55,5.26,8.3-1.21.87-2.51,1.62-3.76,2.42-1.8-2.73-3.52-5.53-5.29-8.28-1.92,1.2-3.85,2.4-5.74,3.65,1.94,3.1,4,6.16,5.85,9.28-1.23.83-2.51,1.6-3.77,2.41-3-4.67-6-9.34-8.9-14m149.42-5a13.27,13.27,0,0,1,10.28,2.67,15.71,15.71,0,0,1,6.12,8.39,11.63,11.63,0,0,1-1.11,8.51,13.37,13.37,0,0,1-7.67,6.64,12.35,12.35,0,0,1-9-1,17.33,17.33,0,0,1-6.74-6,12.63,12.63,0,0,1-2-7.88,13.17,13.17,0,0,1,3.94-7.93A11.86,11.86,0,0,1,186,167m-.93,5.44a5.88,5.88,0,0,0-4.28,5.54,8.64,8.64,0,0,0,2,5.17,14.92,14.92,0,0,0,5.76,4.46,7.38,7.38,0,0,0,5.56.23,6.1,6.1,0,0,0,3.54-4.24,7.08,7.08,0,0,0-1-4.9,14.42,14.42,0,0,0-5-5,8.79,8.79,0,0,0-6.6-1.3m-116.6,1.38a31.31,31.31,0,0,1,4.31,3,30.58,30.58,0,0,1,6.71,6.63,11.52,11.52,0,0,1,2,8.35,15.53,15.53,0,0,1-11,11.41,11.35,11.35,0,0,1-5.81-.31,23.51,23.51,0,0,1-7.87-4.62,55.83,55.83,0,0,1-5-4.73c5.54-6.6,11.15-13.13,16.69-19.73M58.73,194a14.61,14.61,0,0,0,2.67,2.42,8.44,8.44,0,0,0,6.77,1.63,11.6,11.6,0,0,0,6.46-5,7.65,7.65,0,0,0,1.2-6.61,11.52,11.52,0,0,0-5.54-6.08Q64.49,187.19,58.71,194m105.5-8.58c1.51-1.09,3-2.23,4.52-3.28,5.2,7,10.35,14.14,15.54,21.19-1.52,1.11-3,2.29-4.57,3.31-5.13-7.1-10.37-14.12-15.49-21.22m-19.46,9.89q9.12-4.14,18.22-8.34c.73,1.36,1.31,2.81,2,4.21-2,.92-4,1.86-6.05,2.77-.2.1-.52.14-.5.43,3,6.53,6,13,8.92,19.58-1.71.75-3.38,1.61-5.12,2.29q-4.5-9.84-9-19.67c-2.21.94-4.33,2.06-6.56,2.93-.58-1.42-1.33-2.77-1.86-4.2M78,212.89l10.35-24c4.92,2.08,9.82,4.21,14.73,6.33-.52,1.41-1.17,2.76-1.75,4.15-3.2-1.36-6.39-2.76-9.58-4.12-.83,1.81-1.57,3.66-2.39,5.48,3,1.37,6,2.61,9,3.92-.51,1.39-1.16,2.74-1.74,4.11-3-1.27-6-2.59-9-3.87-1,2-1.76,4.14-2.72,6.18,3.31,1.58,6.76,2.9,10.1,4.43-.6,1.38-1.15,2.78-1.81,4.13-5-2.22-10.12-4.34-15.15-6.56v-.15m54.63-15.56c2.48-.48,5-.88,7.46-1.37,1.71,3.11,3.28,6.31,4.94,9.45l6.17,11.88c.51,1,1.13,2.06,1.58,3.15-2,.34-3.95.76-5.93,1-1-2.14-2.12-4.27-3.24-6.37-2.61.48-5.22,1-7.83,1.4-.27,2.38-.43,4.76-.69,7.14-1.9.29-3.78.69-5.68,1,1-9.1,2.18-18.18,3.22-27.29m4.08,3.35a24.47,24.47,0,0,0-.17,2.58c-.11,3-.53,6.06-.75,9.1,2.11-.34,4.2-.78,6.31-1.11a4.44,4.44,0,0,0-.53-1.27c-1.53-3.07-3.12-6.11-4.44-9.27h-.42m-31.18-4.36a49.32,49.32,0,0,1,8.76.61c2.47.42,5.08,1,7,2.75a7,7,0,0,1,.1,9.72,7.28,7.28,0,0,1-3.69,2,.51.51,0,0,0,.28.64c1.54.95,2.18,2.78,2.47,4.48.42,2.7.67,5.43,1.17,8.12-1.88-.25-3.76-.51-5.64-.74a61.42,61.42,0,0,1-1.13-7.5,4.09,4.09,0,0,0-1.84-3.17,10.35,10.35,0,0,0-4-.84c-.44,3.47-.92,6.93-1.35,10.39-1.83-.19-3.65-.48-5.48-.7,1-8.59,2.26-17.16,3.34-25.76m5,4.42c-.33,2.48-.66,5-1,7.43-.16.4.35.34.58.4,1.81.2,3.77.68,5.47-.2,2.34-1.1,2.85-4.81.75-6.39-1.66-1.23-3.85-1.25-5.82-1.24Zm89.64-69.52h.18a3.66,3.66,0,0,1,1.46.33,3.72,3.72,0,0,1,1.62,1.42,3.51,3.51,0,0,1,.54,1.6v.84a3.65,3.65,0,0,1-.45,1.35,3.39,3.39,0,0,1-.78.95,3.61,3.61,0,0,1-2.49.92,3.66,3.66,0,0,1-1.52-.34,3.85,3.85,0,0,1-1.34-1.06,3.54,3.54,0,0,1-.61-1.13,3.79,3.79,0,0,1-.19-1.1v-.15a4.17,4.17,0,0,1,.15-1,3.73,3.73,0,0,1,.61-1.19,3.68,3.68,0,0,1,2.86-1.46m-.1.77a2.77,2.77,0,0,0-1.46.51,3,3,0,0,0-.81.83,3.11,3.11,0,0,0-.37.9,3.33,3.33,0,0,0-.08.78,2.88,2.88,0,0,0,.89,2,3,3,0,0,0,1.17.69,2.91,2.91,0,0,0,2.5-.38,3,3,0,0,0,.75-.75,2.78,2.78,0,0,0,.46-1.08,2.84,2.84,0,0,0-.08-1.45,2.89,2.89,0,0,0-1.66-1.81,2.67,2.67,0,0,0-1.31-.22m2.25,1.74-.11,1-1.91.79,1.79.22-.1.82-3.83-.46.14-1.17a1.72,1.72,0,0,1,.39-1,1,1,0,0,1,1.76.72Zm-2.43,1.7v-.13a1.27,1.27,0,0,0,0-.67.41.41,0,0,0-.36-.2.44.44,0,0,0-.42.12,1.26,1.26,0,0,0-.19.63v.13Z"/></g><path id="OuterRingStrong-2" data-name="OuterRingStrong" class="logo-shadow3" d="M120.7,13.29h5.35v0A112.36,112.36,0,0,1,235.71,115h0c.23,2.26.3,4.55.54,6.84h0v7.77h0c-.32,3.58-.47,7.18-1,10.73h0A112.38,112.38,0,0,1,11.46,128.07h0v-4.79h0A112.57,112.57,0,0,1,95.69,16.79a115.14,115.14,0,0,1,25-3.54V13a115,115,0,0,0-25,3.55A112.79,112.79,0,0,0,11.21,123.28h0v4.79h0A112.64,112.64,0,0,0,235.5,140.32h-.13l.13,0c.53-3.57.68-7.18,1-10.75h0v-7.78h0c-.24-2.27-.31-4.56-.54-6.84h0A112.61,112.61,0,0,0,126.06,13H120.7v.25m-3.87,8A104.62,104.62,0,0,0,19.27,125.53q0,3.57.24,7.17a104.63,104.63,0,0,0,104.27,97.56q3.56,0,7.17-.25a104.61,104.61,0,0,0-7-209q-3.54,0-7.07.24v.25c2.35-.16,4.71-.24,7.06-.24a104.36,104.36,0,0,1,7,208.49q-3.6.26-7.15.25a104.37,104.37,0,0,1-104-97.33q-.24-3.6-.24-7.15a104.37,104.37,0,0,1,97.32-104v-.25"/><path id="InnerRingStroke-2" data-name="InnerRingStroke" class="logo-shadow4" d="M120.9,69.81a57.54,57.54,0,1,0,36.49,10,57.56,57.56,0,0,0-36.49-10"/><path id="Text_Shadow-2" data-name="Text Shadow" d="M111.54,201.78v0H112c1.85,0,3.86.09,5.41,1.25h0a3.54,3.54,0,0,1,1.35,2.88,4,4,0,0,1-2.1,3.59,5.14,5.14,0,0,1-2.39.52,29,29,0,0,1-3.11-.31h0c-.09,0-.24,0-.38,0s-.27-.1-.27-.26l0-.14h0c.34-2.43.67-5,1-7.43h0m-4.08-4.37h-.85c-1.08,8.57-2.33,17.1-3.33,25.66,1.8.22,3.58.5,5.38.69.43-3.44.91-6.89,1.34-10.34v0h0a10.45,10.45,0,0,1,4,.84h0a4.2,4.2,0,0,1,1.86,3.21,60.47,60.47,0,0,0,1.12,7.46c1.85.23,3.7.48,5.54.73-.49-2.67-.74-5.38-1.16-8.06h0a6.18,6.18,0,0,0-2.44-4.44.55.55,0,0,1-.34-.51l0-.19v0h0a7.25,7.25,0,0,0,3.67-2h0a6.95,6.95,0,0,0-.1-9.65c-1.91-1.74-4.51-2.31-7-2.73h0a49.42,49.42,0,0,0-7.87-.62m-.89,0h0m31.18,4.33v0h.46v0c1.32,3.15,2.91,6.19,4.44,9.26a4.62,4.62,0,0,1,.53,1.28l0,.06h-.06c-2.11.33-4.2.77-6.31,1.11h-.06v-.07c.22-3,.64-6.1.75-9.1h0a24.83,24.83,0,0,1,.17-2.58h.05m3.36-4.66c-2.44.49-4.94.88-7.39,1.36-1,9.07-2.21,18.12-3.21,27.18,1.86-.31,3.71-.7,5.58-1,.26-2.36.42-4.73.68-7.1v0h0c2.6-.4,5.21-.92,7.82-1.4h0l0,0c1.11,2.09,2.18,4.21,3.22,6.34,2-.24,3.87-.65,5.83-1-.44-1.07-1.05-2.11-1.55-3.09h0q-3.09-5.94-6.17-11.88h0c-1.66-3.13-3.22-6.32-4.92-9.42m4.64-.71h0M89.38,190l-10.33,24,0,0,0,0h0V214c5,2.21,10.1,4.32,15.08,6.53.64-1.32,1.18-2.69,1.77-4-3.33-1.52-6.76-2.83-10.06-4.41l0,0,0,0c1-2,1.72-4.18,2.72-6.19l0,0,0,0c3,1.27,6,2.59,9,3.85.57-1.34,1.2-2.66,1.7-4-3-1.3-6-2.53-9-3.9l0,0,0,0c.82-1.82,1.56-3.67,2.39-5.48l0,0,0,0c3.18,1.35,6.35,2.75,9.54,4.1.57-1.36,1.2-2.68,1.71-4.06-4.88-2.1-9.75-4.22-14.64-6.29m74.57-1.9q-9,4.17-18.09,8.28c.52,1.4,1.25,2.73,1.83,4.13,2.21-.86,4.32-2,6.51-2.91l.05,0,0,.05c3,6.52,6,13.08,9,19.62,1.7-.67,3.35-1.51,5-2.25-2.92-6.56-5.91-13-8.9-19.53h0v0a.36.36,0,0,1,.21-.31c.1-.06.23-.09.32-.14h0c2-.9,4-1.83,6-2.75-.68-1.37-1.25-2.79-2-4.12m1.26-1.61h0m4.51-3.22c-1.49,1-2.95,2.16-4.44,3.23,5.1,7.07,10.32,14.07,15.44,21.14,1.53-1,3-2.16,4.48-3.25-5.17-7-10.3-14.14-15.48-21.12M59.71,195l0,0q5.76-6.82,11.58-13.64l0,0,0,0a11.61,11.61,0,0,1,5.56,6.11h0a7.86,7.86,0,0,1,.29,2.09,7.66,7.66,0,0,1-1.5,4.56,11.59,11.59,0,0,1-6.48,5h0a8.66,8.66,0,0,1-1.6.15,8.48,8.48,0,0,1-5.21-1.79,14.35,14.35,0,0,1-2.67-2.43l0,0h0m9.81-20.19c-5.51,6.58-11.1,13.08-16.62,19.65a52.59,52.59,0,0,0,5,4.7h0a23.3,23.3,0,0,0,7.85,4.61h0a11,11,0,0,0,3.47.55,11.25,11.25,0,0,0,2.31-.24,15.47,15.47,0,0,0,11-11.37,10.53,10.53,0,0,0,.13-1.67,11.43,11.43,0,0,0-2.12-6.64h0a30.71,30.71,0,0,0-6.7-6.62h0a33,33,0,0,0-4.25-3m-31.87-1.9h0v0h0l0,0m148.44.44v0a8.57,8.57,0,0,1,1.74-.18,8.86,8.86,0,0,1,4.9,1.48,14.7,14.7,0,0,1,5,5h0a7.17,7.17,0,0,1,1.09,3.81,7,7,0,0,1-.09,1.12h0a6.13,6.13,0,0,1-3.57,4.27h0a7.28,7.28,0,0,1-2.52.45,7.38,7.38,0,0,1-3.08-.68h0a15,15,0,0,1-5.78-4.47,8.71,8.71,0,0,1-2-5.2h0a6,6,0,0,1,4.31-5.59m3.06-5.52a13.14,13.14,0,0,0-2.07.17V168h0V168a11.84,11.84,0,0,0-6.12,3.37h0a13.14,13.14,0,0,0-3.93,7.9c0,.34,0,.67,0,1a12.53,12.53,0,0,0,2,6.84,17.18,17.18,0,0,0,6.73,6h0a12.25,12.25,0,0,0,9,1,13.31,13.31,0,0,0,7.64-6.62h0a11.61,11.61,0,0,0,1.46-5.63,11.94,11.94,0,0,0-.35-2.84,15.8,15.8,0,0,0-6.1-8.36h0a13.26,13.26,0,0,0-8.17-2.83m-129.3-8.94Q48.77,166,37.7,173c2.89,4.65,5.88,9.3,8.87,14,1.23-.79,2.48-1.55,3.69-2.36-1.85-3.1-3.9-6.15-5.83-9.24l0,0,.05,0c1.89-1.25,3.82-2.45,5.74-3.65l0,0,0,0c1.76,2.74,3.47,5.52,5.26,8.24,1.22-.78,2.49-1.52,3.68-2.37-1.78-2.73-3.55-5.47-5.24-8.26l0,0,0,0c1.7-1,3.36-2.18,5.06-3.19l0,0,0,0c1.84,2.92,3.71,5.81,5.52,8.74,1.3-.71,2.53-1.55,3.76-2.36-2.86-4.5-5.68-9-8.54-13.44m136.45-17.5c-.54,1.56-1.23,3.08-1.67,4.67,5.79,2,11.43,4.41,17.41,5.87.28,0,.48.16.48.39a.6.6,0,0,1-.07.27l0,0h0a87.39,87.39,0,0,0-9,.77h0c-4.09.64-8.16,1.34-12.24,2-.77,2.07-1.59,4.14-2.26,6.25,8.16,3.07,16.34,6,24.5,9,.68-1.51,1.17-3.12,1.77-4.69-6-2.22-12-4.51-18.17-6.45a.33.33,0,0,1-.31-.25,1.13,1.13,0,0,1,0-.4v-.05h0a97.18,97.18,0,0,0,10.63-1.1c3.86-.62,7.74-1.14,11.59-1.82.61-1.82,1.25-3.65,2-5.45a13.21,13.21,0,0,0-1.7-.7h0c-7.68-2.78-15.27-5.63-22.89-8.37m-142.5,0c-8.3,2.59-16.61,5.32-24.94,7.92.47,1.77,1.09,3.52,1.65,5.27,3.4-1.06,6.78-2.18,10.19-3.22l0,0v0c1,3,1.93,6.1,2.93,9.08,1.37-.42,2.74-.87,4.11-1.3-.86-3.06-2-6.07-2.84-9.15l0,0H45c1.56-.47,3.11-1,4.67-1.47a6.52,6.52,0,0,1,1.63-.42h0v0c1,3.24,2.06,6.44,3.06,9.67,1.38-.39,2.74-.91,4.14-1.28a15.83,15.83,0,0,0-.66-2.33h0c-1.37-4.25-2.71-8.52-4.08-12.77m142.4-.06h0m13.29-31.1h0M29.23,108.39a16.69,16.69,0,0,0-2.13,8.15c0,.51,0,1,.07,1.52h-.05l0,0h.05a9,9,0,0,0,3.34,6.4h0a7.17,7.17,0,0,0,4.22,1.38,7.07,7.07,0,0,0,3.13-.73,10.67,10.67,0,0,0,4-4.32h0c.9-1.61,1.54-3.47,2.91-4.81h0l0,0h0a2.68,2.68,0,0,1,1.81-.7h0a2.66,2.66,0,0,1,2,.87h0a4.41,4.41,0,0,1,.85,2.62,2.82,2.82,0,0,1,0,.41h0a15.17,15.17,0,0,1-2.33,7.12c1.53.63,3.1,1.12,4.65,1.73A10,10,0,0,0,53,125.72h0a18.88,18.88,0,0,0,1.3-6.88,18.48,18.48,0,0,0-.12-2.1h0a8.92,8.92,0,0,0-3.26-6.1,7.81,7.81,0,0,0-4.62-1.51,8,8,0,0,0-2,.27,8.71,8.71,0,0,0-4.73,4.06h0c-1.16,1.81-1.83,3.93-3.3,5.55h0a2.31,2.31,0,0,1-2.84.54h0a3.22,3.22,0,0,1-1.43-2.68v-.14h0a12.9,12.9,0,0,1,1.82-6.55l-4.53-1.79m185.22-.1h0a6.65,6.65,0,0,0-4.94,2.07h0l0,0a13.5,13.5,0,0,0-2.93,6.3,9.75,9.75,0,0,1-1.56,3.75h0l0,0a2.62,2.62,0,0,1-2,.87h0a2.64,2.64,0,0,1-1.78-.69h0a5,5,0,0,1-1.29-2.93h0a15.79,15.79,0,0,1,.85-7.17c-1.65-.22-3.31-.49-5-.65a18.24,18.24,0,0,0-.47,9.52h0a10.49,10.49,0,0,0,3.87,6.61,7.78,7.78,0,0,0,4.35,1.33,7.66,7.66,0,0,0,3.42-.8,8.06,8.06,0,0,0,3.63-4.23h0c.87-2,1.11-4.21,2-6.22a2.85,2.85,0,0,1,1.77-1.83h0a2.3,2.3,0,0,1,.58-.07,2.36,2.36,0,0,1,2,1.09,6.9,6.9,0,0,1,1,4q0,.54,0,1.08h0a23,23,0,0,1-.61,3.29c1.59.23,3.19.51,4.78.77a16.5,16.5,0,0,0,.74-4.88,16.08,16.08,0,0,0-.15-2.18h0a11.62,11.62,0,0,0-3-6.89h0a7.19,7.19,0,0,0-5.13-2.07M188,92.79h0l0,0,.05,0h0m24.76-9.86c-8.25,3.3-16.5,6.57-24.74,9.9,2.1,5.25,4.18,10.49,6.3,15.72,1.53-.6,3-1.16,4.47-1.81-1.35-3.37-2.71-6.74-4-10.12l0,0,0,0c1.9-.84,3.91-1.59,5.9-2.39l.05,0,0,0c1.25,3,2.38,6.11,3.68,9.09,1.45-.62,2.93-1.17,4.39-1.77-1.18-3-2.4-6.09-3.61-9.07l0,0,0,0c1.71-.73,3.45-1.46,5.22-2.07l0,0,0,0c1.24,3.21,2.56,6.4,3.81,9.59,1.55-.56,3-1.16,4.49-1.78-2-5.07-4-10.15-6.05-15.22M40,88.79l0,0A3.42,3.42,0,0,1,42,88.07a4.29,4.29,0,0,1,4.18,3.3h0a8.27,8.27,0,0,1,0,.86,7.84,7.84,0,0,1-1.15,4.08h0c-.11.15-.21.46-.46.47l-.2-.07h0c-2.35-1-4.76-1.92-7.08-3l0,0v0c.46-1.78,1.08-3.72,2.55-4.89l0,0H40m2.5-6.49a8,8,0,0,0-1.19.08h0v0h0l0,0v.05a7.65,7.65,0,0,0-4.34,2.42h0a18,18,0,0,0-3.24,5.56h0a53.64,53.64,0,0,0-2.24,6.54,3.06,3.06,0,0,0-.1.73c8.1,3.27,16.14,6.69,24.24,10,.71-1.8,1.48-3.58,2.21-5.38-2.8-1.23-5.66-2.34-8.48-3.54a.2.2,0,0,1-.18-.21,1.15,1.15,0,0,1,.15-.43h0a15.14,15.14,0,0,0,1.91-7.35c0-.39,0-.79,0-1.18a7.7,7.7,0,0,0-2.56-4.89h0a9,9,0,0,0-6.08-2.34M51.7,68.56l0,0a11.22,11.22,0,0,1,1.83.76h0c2.79,1.35,5.7,2.35,8.49,3.66l.06,0,0,.05c-1.22,1.59-2.42,3.12-3.72,4.59l0,.05,0-.05c-1.8-2.43-3.46-4.95-5.37-7.29h0a19.11,19.11,0,0,1-1.27-1.69l0,0h0l0,0h0m-.84-6a.37.37,0,0,0-.29.22h0c-1.54,2-3.15,3.87-4.67,5.86l15.67,23c1.31-1.53,2.55-3.13,3.81-4.73-1.25-2-2.8-3.8-4.06-5.8l0,0,0,0c1.59-2,3.16-4.07,4.84-6l0,0h0q3.27,1.37,6.57,2.66c1-1.3,2.12-2.59,3.11-3.89h0a5.37,5.37,0,0,0,.8-1.09C68.15,69.35,59.62,66,51,62.63h0l-.14-.05h0m138-11c-1,.68-1.88,1.49-2.87,2.22h0l0,0h0l-.05,0,0,0c-6,4.78-12.07,9.52-18,14.31,1.2,1.37,2.41,2.71,3.64,4.05,5.05-4.1,10-8.18,15-12.34h0a10.22,10.22,0,0,1,1.34-1l.17-.11-.1.18a13.71,13.71,0,0,1-1.13,1.61c-3.86,5.18-7.13,10.77-10.67,16.16,1,1.12,2,2.19,3,3.28h0l.16.1h0a.91.91,0,0,0,.35-.12l9.39-4.32q4.38-2,8.62-4.15a5.45,5.45,0,0,1,1.35-.6l.18-.05-.13.13c-.84.86-1.78,1.63-2.65,2.47-4.3,4-8.46,8.16-12.69,12.24,1.27,1.44,2.57,2.86,3.86,4.28,6.29-6.25,12.52-12.59,18.79-18.87-1.68-1.95-3.46-3.79-5.15-5.77-2.77,1.13-5.46,2.44-8.2,3.63h0c-3.13,1.45-6.16,3.14-9.24,4.69l-.13.06.06-.12a4.15,4.15,0,0,1,.62-1c3.59-4.83,6.7-10,9.8-15.14-1.78-1.89-3.5-3.87-5.28-5.85M79.75,39.93a10.53,10.53,0,0,0-2.62.78h0l0,0h0l0,0a18,18,0,0,0-8.58,7.21A12.61,12.61,0,0,0,67,56.35a16.45,16.45,0,0,0,4.12,8h0a12.22,12.22,0,0,0,8,4.08h.58A14.7,14.7,0,0,0,87.93,66h0a20,20,0,0,0,5.59-5,9,9,0,0,0-1.17-1.29h0c-.72-.69-1.39-1.42-2.1-2.11-1.91,2.39-4.47,4.52-7.56,5.07h0a8.5,8.5,0,0,1-1.23.1,7.5,7.5,0,0,1-5.23-2.12h0a11.54,11.54,0,0,1-3.45-6.12h0a7.85,7.85,0,0,1-.1-1.27,7.57,7.57,0,0,1,2.12-5.25,12.61,12.61,0,0,1,6.57-3.57c-.34-1.34-.91-2.62-1.32-3.94-.11-.23-.12-.5-.3-.62m84.53,4h0a6.55,6.55,0,0,1,1.2-1.32l.11-.09,0,.14c-.76,3.66-1.41,7.34-2,11v.07l-.06,0c-1.81-.81-3.58-1.72-5.35-2.6l-.06,0,.05,0c2.06-2.37,4.24-4.64,6.16-7.12M164.15,37q-9.08,9.63-18.06,19.29h0a4.82,4.82,0,0,0-.9,1.06c1.85.85,3.62,1.85,5.5,2.63,1.5-1.77,3.09-3.48,4.6-5.25l0,0h0c2.36,1,4.64,2.23,7,3.36l0,0v0c-.35,2.37-.83,4.71-1.11,7.08,1.91.87,3.73,1.88,5.69,2.74,1.42-9.18,2.89-18.36,4.28-27.54-2.36-1.11-4.68-2.31-7-3.41m0-.06h0M88.32,35.41h0M104,30.67c-5.22,1.53-10.39,3.21-15.6,4.76,1,3.63,2.22,7.22,3.3,10.84,1.51,4.88,3,9.74,4.5,14.62,5.41-1.61,10.77-3.37,16.18-5-.43-1.55-.92-3.09-1.41-4.63-3.43,1.06-6.94,2.12-10.4,3.21l0,0v-.05c-.73-1.95-1.22-4-1.93-6l0,0,0,0a7,7,0,0,1,1.46-.51L107,45.76h0a5.2,5.2,0,0,0,.95-.37c-.51-1.49-.94-3-1.41-4.5-3.12.86-6.22,1.92-9.34,2.85l0,0v0c-.6-1.76-1.11-3.54-1.66-5.32l0,0h0c3.29-1.06,6.59-2,9.89-3-.42-1.54-.91-3.08-1.4-4.61m32.62-1.31h-.7a14.45,14.45,0,0,0-9.42,3.56l0,0v0h0l0,0a13.83,13.83,0,0,0-4.19,8.85h0a14.35,14.35,0,0,0-.13,1.84,13,13,0,0,0,2.61,7.8,12.71,12.71,0,0,0,6.42,4.18,27.21,27.21,0,0,0,13.13.37q.85-7,1.57-13.92c-3.26-.34-6.51-.76-9.76-1.07-.16,1.51-.35,3-.51,4.53,1.33.18,2.67.32,4,.45h.05V46c-.16,1.89-.38,3.77-.63,5.64v0h0a11.32,11.32,0,0,1-4.77-.32,7.66,7.66,0,0,1-5-4.24h0a10.64,10.64,0,0,1-.76-4,10.86,10.86,0,0,1,.51-3.29A7.6,7.6,0,0,1,133.26,35a9.41,9.41,0,0,1,3.79-.74,17.27,17.27,0,0,1,4.69.74h0a25.71,25.71,0,0,1,2.72,1.09c.55-1.55,1.17-3,1.72-4.49a11.11,11.11,0,0,0-1.84-.88,22.55,22.55,0,0,0-7.71-1.35"/><path id="Test_Stroke-2" data-name="Test Stroke" class="logo-shadow5" d="M125.47,31.9a14.52,14.52,0,0,1,9.46-3.58,22.54,22.54,0,0,1,8.42,1.35,10.91,10.91,0,0,1,1.89.9c-.56,1.53-1.2,3-1.75,4.58A26.66,26.66,0,0,0,140.72,34c-2.73-.77-5.76-1.17-8.44,0A7.56,7.56,0,0,0,128,38.93a10.76,10.76,0,0,0,.24,7.21,7.64,7.64,0,0,0,5,4.21,11.39,11.39,0,0,0,4.75.32c.25-1.87.47-3.75.63-5.64-1.36-.13-2.72-.27-4.07-.45.16-1.55.36-3.09.52-4.63,3.29.31,6.57.74,9.86,1.08q-.72,7-1.58,14a27.26,27.26,0,0,1-13.19-.36,12.7,12.7,0,0,1-6.44-4.2,13,13,0,0,1-2.49-9.67,13.89,13.89,0,0,1,4.2-8.88M87.32,34.41c5.25-1.56,10.46-3.26,15.72-4.8.5,1.56,1,3.13,1.43,4.71-3.32,1-6.63,2-9.94,3.06.55,1.78,1.06,3.56,1.66,5.32,3.14-.94,6.25-2,9.39-2.87.48,1.53.92,3.07,1.44,4.59a5.76,5.76,0,0,1-1,.39L99.08,47a6.42,6.42,0,0,0-1.45.51c.71,2,1.2,4,1.93,6,3.48-1.1,7-2.16,10.45-3.23.5,1.57,1,3.14,1.44,4.73-5.44,1.61-10.83,3.38-16.28,5-1.47-4.9-3-9.78-4.51-14.67-1.08-3.63-2.29-7.23-3.31-10.87m75.78,1.48c2.38,1.11,4.72,2.32,7.1,3.44-1.39,9.22-2.87,18.43-4.29,27.65-2-.88-3.85-1.9-5.79-2.79.28-2.38.77-4.73,1.12-7.11-2.31-1.13-4.59-2.32-6.94-3.36-1.52,1.78-3.12,3.49-4.63,5.27-1.91-.79-3.71-1.81-5.59-2.67a5,5,0,0,1,.94-1.11q9-9.67,18.08-19.32m.2,7c-1.93,2.49-4.11,4.76-6.18,7.14,1.77.88,3.54,1.79,5.35,2.6.59-3.7,1.24-7.39,2-11a6.75,6.75,0,0,0-1.19,1.31m-87.2-3.23a10.36,10.36,0,0,1,2.65-.79c.22.14.22.44.33.65.42,1.34,1,2.64,1.34,4a12.55,12.55,0,0,0-6.6,3.57,7.51,7.51,0,0,0-2,6.47,11.49,11.49,0,0,0,3.43,6.1,7.53,7.53,0,0,0,6.42,2c3.09-.55,5.65-2.69,7.56-5.09.73.7,1.41,1.45,2.14,2.15a8.32,8.32,0,0,1,1.2,1.32,20.11,20.11,0,0,1-5.63,5,14.71,14.71,0,0,1-8.76,2.47,12.3,12.3,0,0,1-8.07-4.09A16.56,16.56,0,0,1,66,55.36,12.74,12.74,0,0,1,67.5,46.9a18,18,0,0,1,8.61-7.23M185,52.74c1-.73,1.89-1.55,2.9-2.24,1.8,2,3.54,4,5.34,5.91-3.11,5.15-6.22,10.33-9.82,15.17a4.29,4.29,0,0,0-.62,1c3.08-1.55,6.11-3.24,9.25-4.69,2.75-1.2,5.45-2.51,8.23-3.65,1.71,2,3.51,3.86,5.21,5.84-6.3,6.3-12.55,12.66-18.87,18.94-1.31-1.45-2.63-2.89-3.92-4.36,4.24-4.09,8.41-8.26,12.72-12.27.87-.84,1.81-1.61,2.65-2.47a4.88,4.88,0,0,0-1.34.6q-4.23,2.15-8.62,4.15L178.69,79c-.21.09-.45.22-.59,0-1-1.1-2-2.18-3-3.31,3.55-5.4,6.83-11,10.7-16.2a13.51,13.51,0,0,0,1.12-1.6,9.07,9.07,0,0,0-1.33,1c-5,4.17-10,8.26-15.06,12.37-1.25-1.36-2.48-2.73-3.71-4.12,6-4.8,12.07-9.56,18.1-14.35m-135.4,9c.11-.19.31-.32.51-.19,8.62,3.33,17.17,6.73,25.74,10.08a5.84,5.84,0,0,1-.84,1.15c-1,1.31-2.1,2.61-3.14,3.92-2.21-.86-4.41-1.76-6.6-2.67-1.67,1.93-3.24,4-4.83,6,1.26,2,2.82,3.84,4.08,5.83-1.28,1.62-2.54,3.25-3.88,4.81l-15.73-23c1.53-2,3.15-3.92,4.7-5.89m1.13,5.82a20.55,20.55,0,0,0,1.27,1.68c1.91,2.34,3.57,4.87,5.37,7.29,1.3-1.47,2.5-3,3.72-4.59-2.79-1.31-5.7-2.31-8.5-3.66a10.76,10.76,0,0,0-1.82-.76M40.26,81.33a9.06,9.06,0,0,1,7.31,2.28,7.7,7.7,0,0,1,2.58,4.92,15.13,15.13,0,0,1-1.87,8.56c-.08.18-.28.52,0,.58,2.84,1.2,5.71,2.32,8.53,3.56-.74,1.83-1.52,3.64-2.25,5.47-8.12-3.29-16.19-6.72-24.31-10a3.33,3.33,0,0,1,.1-.78,55.55,55.55,0,0,1,2.24-6.55,18.07,18.07,0,0,1,3.25-5.58,7.7,7.7,0,0,1,4.37-2.44m-1.3,6.45c-1.46,1.16-2.08,3.09-2.53,4.87,2.32,1.08,4.73,2,7.08,3,.31.23.46-.18.59-.38a7.71,7.71,0,0,0,1.1-4.91c-.46-2.62-4-4.24-6.19-2.59m148,4c8.25-3.34,16.52-6.62,24.78-9.92,2.09,5.1,4.09,10.21,6.09,15.31-1.52.63-3,1.25-4.58,1.82-1.26-3.21-2.58-6.41-3.83-9.64-1.76.61-3.5,1.34-5.21,2.07,1.22,3,2.45,6.07,3.63,9.12-1.49.61-3,1.18-4.48,1.81-1.31-3-2.44-6.11-3.7-9.14-2,.8-4,1.55-5.9,2.39,1.33,3.39,2.7,6.77,4.05,10.16-1.5.66-3,1.24-4.56,1.85-2.13-5.26-4.22-10.53-6.33-15.8m21.55,17.51c2.59-2.85,7.51-2.7,10.14,0a11.58,11.58,0,0,1,3.07,6.92,16.5,16.5,0,0,1-.61,7.12c-1.62-.27-3.25-.55-4.88-.79a21.24,21.24,0,0,0,.63-3.33,8.18,8.18,0,0,0-.92-5,2.29,2.29,0,0,0-2.51-1,2.83,2.83,0,0,0-1.74,1.8c-.88,2-1.12,4.22-2,6.22a8.15,8.15,0,0,1-3.65,4.26,7.8,7.8,0,0,1-7.82-.54,10.51,10.51,0,0,1-3.89-6.64,18.44,18.44,0,0,1,.48-9.58c1.7.16,3.39.44,5.08.66a15.39,15.39,0,0,0-.87,7.21,5.07,5.07,0,0,0,1.27,2.9,2.62,2.62,0,0,0,3.68-.18v0a9.44,9.44,0,0,0,1.55-3.73,13.59,13.59,0,0,1,3-6.39M26.12,117.07a16.85,16.85,0,0,1,2.08-9.74l4.63,1.83A12.77,12.77,0,0,0,31,115.73a3.19,3.19,0,0,0,1.4,2.78,2.28,2.28,0,0,0,2.78-.53c1.46-1.61,2.13-3.73,3.29-5.54a8.76,8.76,0,0,1,4.76-4.08,7.85,7.85,0,0,1,6.72,1.24,8.93,8.93,0,0,1,3.28,6.14,18.69,18.69,0,0,1-1.19,9,9.66,9.66,0,0,1-1.2,2.35c-1.57-.62-3.18-1.12-4.74-1.76a15.1,15.1,0,0,0,2.36-7.15,4.39,4.39,0,0,0-.82-3,2.63,2.63,0,0,0-3.71-.18l0,0c-1.36,1.33-2,3.18-2.9,4.8a10.76,10.76,0,0,1-4.07,4.34,7.18,7.18,0,0,1-7.4-.66,9,9,0,0,1-3.36-6.43m1.68,31.17c8.35-2.61,16.68-5.34,25-7.94,1.37,4.27,2.72,8.55,4.09,12.82a15,15,0,0,1,.68,2.38c-1.43.37-2.82.91-4.24,1.3-1-3.24-2.09-6.46-3.07-9.71a6.55,6.55,0,0,0-1.62.42c-1.56.48-3.11,1-4.67,1.47.89,3.09,2,6.12,2.86,9.2-1.4.44-2.8.9-4.21,1.33-1-3-1.93-6.1-2.94-9.13-3.42,1-6.82,2.17-10.24,3.24-.57-1.79-1.2-3.57-1.68-5.38m167.41-7.94c7.66,2.76,15.29,5.62,23,8.42a11.1,11.1,0,0,1,1.75.72c-.73,1.82-1.38,3.67-2,5.52-3.86.68-7.75,1.2-11.62,1.82a97.18,97.18,0,0,1-10.63,1.1c0,.25,0,.58.32.6,6.15,1.95,12.17,4.25,18.22,6.47-.61,1.6-1.11,3.24-1.81,4.79-8.19-3.06-16.4-6-24.59-9.08.68-2.13,1.51-4.23,2.29-6.32,4.09-.65,8.17-1.36,12.27-2a87.63,87.63,0,0,1,9-.77c.17-.34,0-.58-.37-.59-6-1.46-11.66-3.85-17.46-5.88.44-1.64,1.16-3.2,1.71-4.81M36.65,171.93q11.1-7,22.21-14.09c2.88,4.51,5.72,9,8.6,13.53-1.26.83-2.52,1.69-3.85,2.41-1.82-2.94-3.7-5.85-5.55-8.78-1.7,1-3.36,2.14-5.06,3.19,1.7,2.8,3.48,5.55,5.26,8.3-1.21.87-2.51,1.62-3.76,2.42-1.8-2.73-3.52-5.53-5.29-8.28-1.92,1.2-3.85,2.4-5.74,3.65,1.94,3.1,4,6.16,5.85,9.28-1.23.83-2.51,1.6-3.77,2.41-3-4.67-6-9.34-8.9-14m149.42-5a13.27,13.27,0,0,1,10.28,2.67,15.71,15.71,0,0,1,6.12,8.39,11.63,11.63,0,0,1-1.11,8.51,13.37,13.37,0,0,1-7.67,6.64,12.35,12.35,0,0,1-9-1,17.33,17.33,0,0,1-6.74-6,12.63,12.63,0,0,1-2-7.88,13.17,13.17,0,0,1,3.94-7.93A11.86,11.86,0,0,1,186,167m-.93,5.44a5.88,5.88,0,0,0-4.28,5.54,8.64,8.64,0,0,0,2,5.17,14.92,14.92,0,0,0,5.76,4.46,7.38,7.38,0,0,0,5.56.23,6.1,6.1,0,0,0,3.54-4.24,7.08,7.08,0,0,0-1-4.9,14.42,14.42,0,0,0-5-5,8.79,8.79,0,0,0-6.6-1.3m-116.6,1.38a31.31,31.31,0,0,1,4.31,3,30.58,30.58,0,0,1,6.71,6.63,11.52,11.52,0,0,1,2,8.35,15.53,15.53,0,0,1-11,11.41,11.35,11.35,0,0,1-5.81-.31,23.51,23.51,0,0,1-7.87-4.62,55.83,55.83,0,0,1-5-4.73c5.54-6.6,11.15-13.13,16.69-19.73M58.73,194a14.61,14.61,0,0,0,2.67,2.42,8.44,8.44,0,0,0,6.77,1.63,11.6,11.6,0,0,0,6.46-5,7.65,7.65,0,0,0,1.2-6.61,11.52,11.52,0,0,0-5.54-6.08Q64.49,187.19,58.71,194m105.5-8.58c1.51-1.09,3-2.23,4.52-3.28,5.2,7,10.35,14.14,15.54,21.19-1.52,1.11-3,2.29-4.57,3.31-5.13-7.1-10.37-14.12-15.49-21.22m-19.46,9.89q9.12-4.14,18.22-8.34c.73,1.36,1.31,2.81,2,4.21-2,.92-4,1.86-6.05,2.77-.2.1-.52.14-.5.43,3,6.53,6,13,8.92,19.58-1.71.75-3.38,1.61-5.12,2.29q-4.5-9.84-9-19.67c-2.21.94-4.33,2.06-6.56,2.93-.58-1.42-1.33-2.77-1.86-4.2M78,212.89l10.35-24c4.92,2.08,9.82,4.21,14.73,6.33-.52,1.41-1.17,2.76-1.75,4.15-3.2-1.36-6.39-2.76-9.58-4.12-.83,1.81-1.57,3.66-2.39,5.48,3,1.37,6,2.61,9,3.92-.51,1.39-1.16,2.74-1.74,4.11-3-1.27-6-2.59-9-3.87-1,2-1.76,4.14-2.72,6.18,3.31,1.58,6.76,2.9,10.1,4.43-.6,1.38-1.15,2.78-1.81,4.13-5-2.22-10.12-4.34-15.15-6.56v-.15m54.63-15.56c2.48-.48,5-.88,7.46-1.37,1.71,3.11,3.28,6.31,4.94,9.45l6.17,11.88c.51,1,1.13,2.06,1.58,3.15-2,.34-3.95.76-5.93,1-1-2.14-2.12-4.27-3.24-6.37-2.61.48-5.22,1-7.83,1.4-.27,2.38-.43,4.76-.69,7.14-1.9.29-3.78.69-5.68,1,1-9.1,2.18-18.18,3.22-27.29m4.08,3.35a24.47,24.47,0,0,0-.17,2.58c-.11,3-.53,6.06-.75,9.1,2.11-.34,4.2-.78,6.31-1.11a4.44,4.44,0,0,0-.53-1.27c-1.53-3.07-3.12-6.11-4.44-9.27h-.42m-31.18-4.36a49.32,49.32,0,0,1,8.76.61c2.47.42,5.08,1,7,2.75a7,7,0,0,1,.1,9.72,7.28,7.28,0,0,1-3.69,2,.51.51,0,0,0,.28.64c1.54.95,2.18,2.78,2.47,4.48.42,2.7.67,5.43,1.17,8.12-1.88-.25-3.76-.51-5.64-.74a61.42,61.42,0,0,1-1.13-7.5,4.09,4.09,0,0,0-1.84-3.17,10.35,10.35,0,0,0-4-.84c-.44,3.47-.92,6.93-1.35,10.39-1.83-.19-3.65-.48-5.48-.7,1-8.59,2.26-17.16,3.34-25.76m5,4.42c-.33,2.48-.66,5-1,7.43-.16.4.35.34.58.4,1.81.2,3.77.68,5.47-.2,2.34-1.1,2.85-4.81.75-6.39-1.66-1.23-3.85-1.25-5.82-1.24Zm89.64-69.52h.18a3.66,3.66,0,0,1,1.46.33,3.72,3.72,0,0,1,1.62,1.42,3.51,3.51,0,0,1,.54,1.6v.84a3.65,3.65,0,0,1-.45,1.35,3.39,3.39,0,0,1-.78.95,3.61,3.61,0,0,1-2.49.92,3.66,3.66,0,0,1-1.52-.34,3.85,3.85,0,0,1-1.34-1.06,3.54,3.54,0,0,1-.61-1.13,3.79,3.79,0,0,1-.19-1.1v-.15a4.17,4.17,0,0,1,.15-1,3.73,3.73,0,0,1,.61-1.19,3.68,3.68,0,0,1,2.86-1.46m-.1.77a2.77,2.77,0,0,0-1.46.51,3,3,0,0,0-.81.83,3.11,3.11,0,0,0-.37.9,3.33,3.33,0,0,0-.08.78,2.88,2.88,0,0,0,.89,2,3,3,0,0,0,1.17.69,2.91,2.91,0,0,0,2.5-.38,3,3,0,0,0,.75-.75,2.78,2.78,0,0,0,.46-1.08,2.84,2.84,0,0,0-.08-1.45,2.89,2.89,0,0,0-1.66-1.81,2.67,2.67,0,0,0-1.31-.22m2.25,1.74-.11,1-1.91.79,1.79.22-.1.82-3.83-.46.14-1.17a1.72,1.72,0,0,1,.39-1,1,1,0,0,1,1.76.72Zm-2.43,1.7v-.13a1.27,1.27,0,0,0,0-.67.41.41,0,0,0-.36-.2.44.44,0,0,0-.42.12,1.26,1.26,0,0,0-.19.63v.13Z"/></g></g></svg>