<svg id="outer-ring" class="svg-element" xmlns="http://www.w3.org/2000/svg" xmlns:xlink="http://www.w3.org/1999/xlink" viewBox="0 0 250 250"><defs><style>.outer-ring{fill:url(#outer-ring-radial-gradient);}</style><radialGradient id="outer-ring-radial-gradient" cx="123.85" cy="125.86" r="112.55" gradientUnits="userSpaceOnUse"><stop offset="0.95" stop-color="#095480"/><stop offset="1" stop-color="#093b51"/></radialGradient></defs><path class="outer-ring" d="M120.7,13.33h5.35A112.48,112.48,0,0,1,235.83,115.12c.23,2.27.3,4.56.54,6.84v7.77c-.32,3.58-.47,7.18-1,10.74a112.5,112.5,0,0,1-224-12.23v-4.79A112.71,112.71,0,0,1,95.66,16.83a115.4,115.4,0,0,1,25-3.54l0,0m-3.87,8.22a104.49,104.49,0,1,0,27.64,1.81,104.5,104.5,0,0,0-27.64-1.81"/></svg>