<svg id="logo-text" class="svg-element" xmlns="http://www.w3.org/2000/svg" xmlns:xlink="http://www.w3.org/1999/xlink" viewBox="0 0 250 250"><defs><style>.logo-text{fill:url(#logo-text-radial-gradient);}</style><radialGradient id="logo-text-radial-gradient" cx="124" cy="126.47" r="98.04" gradientUnits="userSpaceOnUse"><stop offset="0.02" stop-color="#095480"/><stop offset="0.51" stop-color="#2f7e80"/><stop offset="1" stop-color="#095480"/></radialGradient></defs><title>Space Games Federation</title><path class="logo-text" d="M125.54,31.87A14.5,14.5,0,0,1,135,28.29a22.61,22.61,0,0,1,8.42,1.35,10.54,10.54,0,0,1,1.89.9c-.56,1.53-1.2,3-1.75,4.58A28.57,28.57,0,0,0,140.79,34c-2.73-.77-5.76-1.17-8.44,0a7.48,7.48,0,0,0-4.24,4.89,10.64,10.64,0,0,0,.24,7.21,7.59,7.59,0,0,0,5,4.21,11.37,11.37,0,0,0,4.75.32c.25-1.87.47-3.75.63-5.64-1.36-.13-2.72-.27-4.07-.45.16-1.55.36-3.09.52-4.63,3.29.31,6.57.74,9.86,1.08q-.72,7-1.58,14a27.26,27.26,0,0,1-13.19-.36,12.7,12.7,0,0,1-6.44-4.2,13,13,0,0,1-2.49-9.67,13.82,13.82,0,0,1,4.2-8.88M87.39,34.38c5.25-1.56,10.46-3.26,15.72-4.8.5,1.56,1,3.13,1.43,4.71-3.32,1-6.63,2-9.94,3.06.55,1.78,1.06,3.56,1.66,5.32,3.14-.94,6.25-2,9.39-2.87.48,1.53.92,3.07,1.44,4.59a6.09,6.09,0,0,1-1,.39l-6.94,2.14a6.09,6.09,0,0,0-1.45.51c.71,2,1.2,4,1.93,6,3.48-1.1,7-2.16,10.45-3.23.5,1.57,1,3.14,1.44,4.73-5.44,1.61-10.83,3.38-16.28,5-1.47-4.9-3-9.78-4.51-14.67-1.08-3.63-2.29-7.23-3.31-10.87m75.78,1.48c2.38,1.11,4.72,2.32,7.1,3.44C168.91,48.53,167.43,57.74,166,67c-2-.88-3.85-1.9-5.79-2.79.28-2.38.77-4.73,1.12-7.11-2.31-1.13-4.59-2.32-6.94-3.36-1.52,1.78-3.12,3.49-4.63,5.27-1.91-.79-3.71-1.81-5.59-2.67a4.54,4.54,0,0,1,.94-1.11q9-9.67,18.08-19.32m.2,7c-1.93,2.49-4.11,4.76-6.18,7.14,1.77.88,3.54,1.79,5.35,2.6.59-3.7,1.24-7.39,2-11a6.17,6.17,0,0,0-1.19,1.31m-87.2-3.23a9.76,9.76,0,0,1,2.65-.79c.22.14.22.44.33.65.42,1.34,1,2.64,1.34,4a12.48,12.48,0,0,0-6.6,3.57,7.48,7.48,0,0,0-2,6.47,11.43,11.43,0,0,0,3.43,6.1,7.51,7.51,0,0,0,6.42,2c3.09-.55,5.65-2.69,7.56-5.09.73.7,1.41,1.45,2.14,2.15A8.88,8.88,0,0,1,92.65,60,20.39,20.39,0,0,1,87,65a14.82,14.82,0,0,1-8.76,2.47,12.28,12.28,0,0,1-8.07-4.09,16.44,16.44,0,0,1-4.13-8.07,12.61,12.61,0,0,1,1.51-8.46,17.91,17.91,0,0,1,8.61-7.23M185,52.71c1-.73,1.89-1.55,2.9-2.24,1.8,2,3.54,4,5.34,5.91-3.11,5.15-6.22,10.33-9.82,15.17a4,4,0,0,0-.62,1c3.08-1.55,6.11-3.24,9.25-4.69,2.75-1.2,5.45-2.51,8.23-3.65,1.71,2,3.51,3.86,5.21,5.84C199.23,76.35,193,82.71,186.66,89c-1.31-1.45-2.63-2.89-3.92-4.36,4.24-4.09,8.41-8.26,12.72-12.27.87-.84,1.81-1.61,2.65-2.47a4.62,4.62,0,0,0-1.34.6q-4.25,2.15-8.62,4.15L178.76,79c-.21.09-.45.22-.59,0-1-1.1-2-2.18-3-3.31,3.55-5.4,6.83-11,10.7-16.2a14.8,14.8,0,0,0,1.12-1.6,8.12,8.12,0,0,0-1.33,1c-5,4.17-10,8.26-15.06,12.37-1.25-1.36-2.48-2.73-3.71-4.12,6-4.8,12.07-9.56,18.1-14.35m-135.4,9c.11-.19.31-.32.51-.19,8.62,3.33,17.17,6.73,25.74,10.08A6.78,6.78,0,0,1,75,72.79c-1,1.31-2.1,2.61-3.14,3.92-2.21-.86-4.41-1.76-6.6-2.67C63.59,76,62,78,60.43,80c1.26,2,2.82,3.84,4.08,5.83-1.28,1.62-2.54,3.25-3.88,4.81l-15.73-23c1.53-2,3.15-3.92,4.7-5.89m1.13,5.82A18.5,18.5,0,0,0,52,69.25c1.91,2.34,3.57,4.87,5.37,7.29,1.3-1.47,2.5-3,3.72-4.59-2.79-1.31-5.7-2.31-8.5-3.66a10.63,10.63,0,0,0-1.82-.76M40.33,81.3a9.08,9.08,0,0,1,7.31,2.28,7.79,7.79,0,0,1,2.58,4.92,15.22,15.22,0,0,1-1.87,8.56c-.08.18-.28.52,0,.58,2.84,1.2,5.71,2.32,8.53,3.56-.74,1.83-1.52,3.64-2.25,5.47-8.12-3.29-16.19-6.72-24.31-10a2.53,2.53,0,0,1,.1-.78,52.13,52.13,0,0,1,2.24-6.55,17.66,17.66,0,0,1,3.25-5.58,7.64,7.64,0,0,1,4.37-2.44M39,87.77c-1.46,1.16-2.08,3.09-2.53,4.87,2.32,1.08,4.73,2,7.08,3,.31.23.46-.18.59-.38a7.77,7.77,0,0,0,1.1-4.91c-.46-2.62-4-4.24-6.19-2.59m148,4c8.25-3.34,16.52-6.62,24.78-9.92,2.09,5.1,4.09,10.21,6.09,15.31-1.52.63-3,1.25-4.58,1.82-1.26-3.21-2.58-6.41-3.83-9.64-1.76.61-3.5,1.34-5.21,2.07,1.22,3,2.45,6.07,3.63,9.12-1.49.61-3,1.18-4.48,1.81-1.31-3-2.44-6.11-3.7-9.14-2,.8-4,1.55-5.9,2.39,1.33,3.39,2.7,6.77,4,10.16-1.5.66-3,1.24-4.56,1.85-2.13-5.26-4.22-10.53-6.33-15.8m21.55,17.51c2.59-2.85,7.51-2.7,10.14,0a11.7,11.7,0,0,1,3.07,6.92,16.52,16.52,0,0,1-.61,7.12c-1.62-.27-3.25-.55-4.88-.79a23.82,23.82,0,0,0,.63-3.33,8.18,8.18,0,0,0-.92-5,2.29,2.29,0,0,0-2.51-1,2.79,2.79,0,0,0-1.74,1.8c-.88,2-1.12,4.22-2,6.22a8.24,8.24,0,0,1-3.65,4.26,7.8,7.8,0,0,1-7.82-.54,10.43,10.43,0,0,1-3.89-6.64,18.23,18.23,0,0,1,.48-9.58c1.7.16,3.39.44,5.08.66a15.39,15.39,0,0,0-.87,7.21,5,5,0,0,0,1.27,2.9,2.6,2.6,0,0,0,3.67-.19h0a9.8,9.8,0,0,0,1.55-3.73,13.4,13.4,0,0,1,3-6.39M26.19,117a16.7,16.7,0,0,1,2.08-9.74l4.63,1.83a12.67,12.67,0,0,0-1.84,6.57,3.16,3.16,0,0,0,1.4,2.78,2.3,2.3,0,0,0,2.78-.53c1.46-1.61,2.13-3.73,3.29-5.54a8.65,8.65,0,0,1,4.76-4.08A7.86,7.86,0,0,1,50,109.57a9,9,0,0,1,3.28,6.14,18.94,18.94,0,0,1-1.19,9,10,10,0,0,1-1.2,2.35c-1.57-.62-3.18-1.12-4.74-1.76a15.33,15.33,0,0,0,2.36-7.15,4.49,4.49,0,0,0-.82-3A2.63,2.63,0,0,0,44,115l0,0c-1.36,1.33-2,3.18-2.9,4.8A10.76,10.76,0,0,1,37,124.15a7.18,7.18,0,0,1-7.4-.66,9,9,0,0,1-3.36-6.43m1.68,31.17c8.35-2.61,16.68-5.34,25-7.94,1.37,4.27,2.72,8.54,4.09,12.82a17.51,17.51,0,0,1,.68,2.38c-1.43.37-2.82.91-4.24,1.3-1-3.24-2.09-6.46-3.07-9.71a6.44,6.44,0,0,0-1.62.42c-1.56.48-3.11,1-4.67,1.47.89,3.09,2,6.11,2.86,9.2-1.4.44-2.8.9-4.21,1.33-1-3-1.93-6.1-2.94-9.13-3.42,1-6.82,2.17-10.24,3.24-.57-1.79-1.2-3.57-1.68-5.38m167.41-7.94c7.66,2.75,15.29,5.62,23,8.42a11.51,11.51,0,0,1,1.75.72c-.73,1.82-1.38,3.67-2,5.52-3.86.68-7.75,1.2-11.62,1.82a99.7,99.7,0,0,1-10.63,1.1c0,.25,0,.58.32.6,6.15,1.95,12.17,4.25,18.22,6.47-.61,1.6-1.11,3.24-1.81,4.79-8.19-3.06-16.4-6-24.59-9.08.68-2.13,1.51-4.23,2.29-6.32,4.09-.65,8.17-1.36,12.27-2a84.68,84.68,0,0,1,9-.77c.17-.34,0-.58-.37-.59-6-1.46-11.66-3.85-17.46-5.89.44-1.63,1.16-3.19,1.71-4.8M36.72,171.9q11.1-7,22.21-14.09c2.88,4.51,5.72,9,8.6,13.52-1.26.84-2.52,1.7-3.85,2.42-1.82-2.94-3.7-5.85-5.55-8.78-1.7,1-3.36,2.14-5.06,3.19,1.7,2.8,3.48,5.55,5.26,8.3-1.21.87-2.51,1.62-3.76,2.42-1.8-2.73-3.52-5.53-5.29-8.28-1.92,1.2-3.85,2.4-5.74,3.65,1.94,3.1,4,6.16,5.85,9.28-1.23.83-2.51,1.6-3.77,2.41-3-4.67-6-9.34-8.9-14m149.42-5a13.29,13.29,0,0,1,10.28,2.67,15.81,15.81,0,0,1,6.12,8.39,11.69,11.69,0,0,1-1.11,8.51,13.4,13.4,0,0,1-7.67,6.64,12.34,12.34,0,0,1-9-1,17.26,17.26,0,0,1-6.74-6,12.56,12.56,0,0,1-2-7.88,13.2,13.2,0,0,1,3.94-7.94,11.83,11.83,0,0,1,6.15-3.38m-.93,5.44a5.87,5.87,0,0,0-4.28,5.54,8.57,8.57,0,0,0,2,5.17,14.92,14.92,0,0,0,5.76,4.46,7.38,7.38,0,0,0,5.56.23,6.15,6.15,0,0,0,3.54-4.25,7.11,7.11,0,0,0-1-4.89,14.5,14.5,0,0,0-5-5,8.75,8.75,0,0,0-6.6-1.3m-116.6,1.38a32.57,32.57,0,0,1,4.31,3,30.8,30.8,0,0,1,6.71,6.63,11.57,11.57,0,0,1,2,8.35,15.57,15.57,0,0,1-11,11.41,11.34,11.34,0,0,1-5.81-.31,23.32,23.32,0,0,1-7.87-4.62,53.25,53.25,0,0,1-5-4.73c5.54-6.6,11.15-13.13,16.69-19.73M58.8,194a14.65,14.65,0,0,0,2.67,2.42A8.43,8.43,0,0,0,68.24,198a11.67,11.67,0,0,0,6.46-5,7.72,7.72,0,0,0,1.2-6.61,11.52,11.52,0,0,0-5.54-6.08Q64.54,187.16,58.78,194m105.5-8.58c1.51-1.09,3-2.23,4.52-3.28,5.2,7,10.35,14.14,15.54,21.19-1.52,1.11-3,2.29-4.57,3.31-5.13-7.1-10.37-14.12-15.49-21.22m-19.46,9.88q9.12-4.12,18.22-8.33c.73,1.36,1.31,2.81,2,4.21-2,.91-4,1.86-6,2.77-.2.1-.52.14-.5.43,3,6.53,6,13,8.92,19.58-1.71.75-3.38,1.61-5.12,2.29q-4.5-9.84-9-19.67c-2.21.94-4.33,2.06-6.56,2.93-.58-1.42-1.33-2.77-1.86-4.21m-66.8,17.57,10.35-24c4.92,2.08,9.82,4.21,14.73,6.33-.52,1.41-1.17,2.76-1.75,4.14-3.2-1.35-6.39-2.75-9.58-4.11-.83,1.81-1.57,3.66-2.39,5.48,3,1.37,6,2.61,9,3.92-.51,1.39-1.16,2.74-1.74,4.11-3-1.27-6-2.59-9-3.87-1,2-1.76,4.14-2.72,6.18,3.31,1.58,6.76,2.9,10.1,4.43-.6,1.38-1.15,2.78-1.81,4.13-5-2.22-10.12-4.34-15.15-6.56v-.15m54.63-15.56c2.48-.48,5-.88,7.46-1.37,1.71,3.11,3.28,6.31,4.94,9.45q3.08,5.94,6.17,11.88c.51,1,1.13,2.06,1.58,3.15-2,.34-3.95.76-5.93,1-1.05-2.15-2.12-4.27-3.24-6.37-2.61.47-5.22,1-7.83,1.4-.27,2.38-.43,4.76-.69,7.14-1.9.29-3.78.68-5.68,1,1-9.1,2.18-18.18,3.22-27.29m4.08,3.35a20.08,20.08,0,0,0-.17,2.58c-.11,3-.53,6.06-.75,9.1,2.11-.34,4.2-.78,6.31-1.11a4.74,4.74,0,0,0-.53-1.27c-1.53-3.07-3.12-6.11-4.44-9.27h-.42m-31.18-4.37a50.42,50.42,0,0,1,8.76.62c2.47.42,5.08,1,7,2.75a7,7,0,0,1,.1,9.72,7.32,7.32,0,0,1-3.69,2,.49.49,0,0,0,.28.64,6.24,6.24,0,0,1,2.47,4.48c.42,2.7.67,5.43,1.17,8.12-1.88-.25-3.76-.51-5.64-.74a57.77,57.77,0,0,1-1.13-7.5,4.15,4.15,0,0,0-1.84-3.17,10.43,10.43,0,0,0-4-.84c-.44,3.47-.92,6.92-1.35,10.38-1.83-.18-3.65-.47-5.48-.69,1-8.59,2.26-17.16,3.34-25.77m5,4.43c-.33,2.48-.66,5-1,7.43-.16.39.35.34.58.39,1.81.21,3.77.69,5.47-.19,2.34-1.1,2.85-4.81.75-6.39-1.66-1.23-3.85-1.25-5.82-1.24Zm89.64-69.52h.18a3.71,3.71,0,0,1,3.08,1.75,3.76,3.76,0,0,1,.54,1.59v.85a3.84,3.84,0,0,1-.45,1.35,4,4,0,0,1-.78.95,3.65,3.65,0,0,1-2.49.92,3.75,3.75,0,0,1-1.52-.34,3.67,3.67,0,0,1-1.34-1.06,3.36,3.36,0,0,1-.61-1.13,3.49,3.49,0,0,1-.19-1.1v-.15a3.37,3.37,0,0,1,.15-1,3.54,3.54,0,0,1,.61-1.19,3.2,3.2,0,0,1,.86-.82,3.47,3.47,0,0,1,2-.64m-.1.77a2.74,2.74,0,0,0-1.46.51,2.79,2.79,0,0,0-.81.83,2.64,2.64,0,0,0-.37.9,2.53,2.53,0,0,0-.08.78,2.85,2.85,0,0,0,.31,1.2,2.74,2.74,0,0,0,.58.78,2.9,2.9,0,0,0,3.67.3,2.9,2.9,0,0,0-.53-5.08,2.71,2.71,0,0,0-1.31-.22m2.25,1.74-.11,1-1.91.79,1.79.22-.1.82L198.3,136l.14-1.16a1.6,1.6,0,0,1,.39-1,1,1,0,0,1,.86-.25,1,1,0,0,1,.65.32,1.09,1.09,0,0,1,.25.65Zm-2.43,1.7v-.14a1.47,1.47,0,0,0,0-.66.42.42,0,0,0-.36-.2.45.45,0,0,0-.42.11,1.2,1.2,0,0,0-.19.64v.13Z"/></svg>