<svg id="globe-bg" class="svg-element" xmlns="http://www.w3.org/2000/svg" viewBox="0 0 250 250"><defs><style>.logo-globe-1{fill:#5f96b0;}.logo-globe-2{fill:#176990;}.logo-globe-3{fill:#84aec1;}.logo-globe-4{fill:#699db5;}.logo-globe-5{fill:#1d6d93;}.logo-globe-6{fill:#d9eef7;}.logo-globe-7{fill:#b5c6d7;}.logo-globe-8{fill:#1a6b91;}.logo-globe-9{fill:#1e6d93;}.logo-globe-10{fill:#30799b;}.logo-globe-11{fill:#1b6c92;}.logo-globe-12{fill:#bbd0da;}.logo-globe-13{fill:#1b6b91;}.logo-globe-14{fill:#2d789b;}.logo-globe-15{fill:#5c94af;}.logo-globe-16{fill:#cde1ec;}.logo-globe-17{fill:#236f93;}.logo-globe-18{fill:#267398;}.logo-globe-19{fill:#95bed2;}.logo-globe-20{fill:#d1e6f0;}.logo-globe-21{fill:#c3d6e4;}.logo-globe-22{fill:#cae4ef;}.logo-globe-23{fill:#247297;}.logo-globe-24{fill:#2a769a;}.logo-globe-25{fill:#4384a2;}.logo-globe-26{fill:#c8dbe8;}.logo-globe-27{fill:#bed0df;}.logo-globe-28{fill:#4286a6;}</style></defs><title>sgf-globe</title><g id="one"><path class="logo-globe-1" d="M117.41,70.28c1.86-.31,3.76,0,5.6-.37a57.81,57.81,0,0,1,8.83.32l.25.12A11.36,11.36,0,0,0,127,71.42l-.36-.13a9.16,9.16,0,0,1,3-1,10.57,10.57,0,0,0-2.45,0,2.43,2.43,0,0,0-1.26,1h-.49c.32-.34.66-.67,1-1-.9.1-1.93-.25-2.74.24a5.28,5.28,0,0,0-1.9,0,7.72,7.72,0,0,1,2,.89v.2c-.77-.19-1.44-.68-2.23-.84a9.07,9.07,0,0,0-3.52-.22,35.71,35.71,0,0,1,4.81,1,5.23,5.23,0,0,1-.69.12,22,22,0,0,0-4.71-.79,11.91,11.91,0,0,0-3.84.52c1.49.16,3-.33,4.49,0l-.35.34a18.65,18.65,0,0,0-5.48.16,3.16,3.16,0,0,0-1.25.53A30,30,0,0,1,116.7,72l.17.16a36.4,36.4,0,0,0-4.29.31l.93.23a1.68,1.68,0,0,0-.85.19l-.34-.2a2.5,2.5,0,0,0-2,.22l-.06-.08c.14-.17.27-.34.41-.5l-.2,0,.43-.38a12.9,12.9,0,0,0-2.14.54l-.35-.08-.21.54c0-.13,0-.38,0-.5l-.53.08c1.9-.88,4.08-.8,6-1.61a27.91,27.91,0,0,1,3.74-.67M93,174.64Z"/><path class="logo-globe-2" d="M123.7,70.43c.81-.49,1.84-.14,2.74-.24-.34.33-.68.66-1,1h.49a2.43,2.43,0,0,1,1.26-1,10.57,10.57,0,0,1,2.45,0,9.16,9.16,0,0,0-3,1l.36.13a11.36,11.36,0,0,1,5.14-1.07l.62.09a11.48,11.48,0,0,1-2.61.43,12.62,12.62,0,0,0-2.65.7,11.58,11.58,0,0,0,2.33-.39,17.67,17.67,0,0,1,6.76,0l.2.13a9.52,9.52,0,0,1-2.2,0,41,41,0,0,0-5.86.33,17.35,17.35,0,0,0,2.88-.11c1.74,0,3.5-.08,5.24.09A27.21,27.21,0,0,0,140,72a3.87,3.87,0,0,1,2,.21,63.09,63.09,0,0,1,9.36,3.67c.36.21.94.26,1,.75a46.13,46.13,0,0,0-14-4.36,17.07,17.07,0,0,0-3.26-.32c-1,0-2-.18-3-.12a14,14,0,0,1-3.48,0,3.82,3.82,0,0,0-2.06-.15l-.39-.17c-.28.17-.56.34-.83.52a.5.5,0,0,0,0-.82c-.1.25-.19.5-.28.76-.24-.67-.48-1.52-1.32-1.63A7,7,0,0,1,124.86,72c-.27-.12-.51-.4-.82-.35-.38.24-.8-.08-1.19-.16a35.71,35.71,0,0,0-4.81-1,9.07,9.07,0,0,1,3.52.22c.79.16,1.46.65,2.23.84v-.2a7.72,7.72,0,0,0-2-.89,5.28,5.28,0,0,1,1.9,0m3.19,1.44a10.82,10.82,0,0,0,4.28.31c1.19-.11,2.38,0,3.57,0s2.2.31,3.32.2c.93.26,2,.16,2.82.69l-.13-.25a47.51,47.51,0,0,1,10.41,3.4,12.64,12.64,0,0,1,4,2.64c-.88-.37-1.69-.87-2.56-1.26A50.09,50.09,0,0,0,142,73.89a2,2,0,0,1-.87-.39l.06.2a68.91,68.91,0,0,0-8.43-1.28c-1.21-.1-2.42.08-3.63,0a4.2,4.2,0,0,1-2.24-.54m-18.11.65a12.9,12.9,0,0,1,2.14-.54l-.43.38a1.8,1.8,0,0,1-1.71.16m3.8,0a36.4,36.4,0,0,1,4.29-.31c.18.18.35.37.52.56l-1,0a2.25,2.25,0,0,1-.7.77c.09-.29.2-.57.3-.85-.68.06-1.35.16-2,.25a3,3,0,0,1-.15.31l-.12-.39-.21-.08-.93-.23m-2.24.44a2.5,2.5,0,0,1,2-.22,3.58,3.58,0,0,0-1.23,1.06c-.26-.27-.51-.56-.75-.84m8.37-.3c.26-.17.41-.14.45.12-.27.18-.41.14-.45-.12m3.81,0,.75.16c.21.13.43.4.7.24a5,5,0,0,1,2.53-.29l.29.42a2,2,0,0,1,1.16-.19c.64.11,1.27-.25,1.91-.07l-.8.19c1.55.44,3.13.73,4.66,1.2,0-.08,0-.25,0-.33-1.32-.25-2.6-.63-3.92-.84a4.81,4.81,0,0,1,1.85,0,63.79,63.79,0,0,1,25.66,9.43A4.34,4.34,0,0,1,156.5,85a3.37,3.37,0,0,0,.9-2.38,62.36,62.36,0,0,1,10.1,8.15A20.43,20.43,0,0,1,169.64,93c-.14,1.41.29,3-.78,4.19a65.42,65.42,0,0,0-8.67-8.94,71.44,71.44,0,0,0-18.91-11.71c.14-.21.29-.41.44-.61-.23.18-.43.7-.78.48a64.29,64.29,0,0,0-6.44-2.2c-.2-.16-.37,0-.54,0a15.88,15.88,0,0,1,1.77.46,67.23,67.23,0,0,1,20.43,10.66A15.27,15.27,0,0,1,152.83,88,65.15,65.15,0,0,0,132.05,74.5a29.77,29.77,0,0,0-3.9-1.31,61.33,61.33,0,0,1,10.74,4.67,10.41,10.41,0,0,1-2.93,1,39.3,39.3,0,0,0-8.39-5.47,43.79,43.79,0,0,1,8.19,5.5c-.66.13-1.29.43-2,.51a1,1,0,0,1-.6-1.09c-.34-.14-.67-.26-1-.38v-.58a3.32,3.32,0,0,1-.83-.18,1.81,1.81,0,0,0-.72-.87l-.46.89a31.72,31.72,0,0,0-3.75-3.85,36.62,36.62,0,0,1,3.91,4.25,10.29,10.29,0,0,1-1.2.26l-.34-.55c-.4-.14-1-.11-1-.69l-.83,0a4.65,4.65,0,0,1,1.12-.49,2,2,0,0,0-.87-.32c-1.35-.12-2.6-1-4-.64a9.29,9.29,0,0,0,.17,1.38,4.86,4.86,0,0,0-1.11.79c.29.18.59.35.89.52-.14.59-.3,1.17-.49,1.75-1.49-.13-3,0-4.46,0a41.58,41.58,0,0,1,5.39-6.09A38.23,38.23,0,0,0,118,79.62c-1.16-.35-2.38-.5-3.52-1a43.68,43.68,0,0,1,8.3-5.28,15.06,15.06,0,0,0-2.67,1.32,45.59,45.59,0,0,0-5.82,3.92c-.41-.07-.82-.11-1.24-.14-.09-.44-.2-.88-.26-1.32.75-.86,2-1,2.9-1.62l-1.09.32c.33-.65,1.1-.27,1.63-.53a21.6,21.6,0,0,1,2.7-1.06c.05-.1.15-.3.21-.4,1.11-.45,2.66-.06,3.35-1.3m18,4.42h0m-1,.53c-.08.69.6-.23,0,0m-9.77-4.94a25.28,25.28,0,0,1,5.22.24,64.48,64.48,0,0,1,11.56,2.62,52.86,52.86,0,0,1,10,4.52,13.47,13.47,0,0,1,.51,2.06c-1.27-.7-2.47-1.51-3.77-2.15a64.06,64.06,0,0,0-21.74-6.95c-.56-.18-1.17-.15-1.74-.34m-12.57,1a3.83,3.83,0,0,1,1.11.21c-.13.38-1.06.14-1.11-.21M94.9,78.24a1.13,1.13,0,0,1,.83-.25l-.38.4a3.39,3.39,0,0,1-.94.7c-.06.17-.12.35-.17.52a12.19,12.19,0,0,1,2-1.07,6,6,0,0,1-1.11,1l.4.17-.35.52c-.19,0-.45-.17-.58.06a17.53,17.53,0,0,1-1.41,1.57,4.39,4.39,0,0,1,.94-2.28c-.43,0-.76.32-1.11.51a48.17,48.17,0,0,0-6.4,4.65l-.24.08c.16-.52.66-.8,1-1.15a57.47,57.47,0,0,1,7.5-5.46m43.73.06L139,78a57.55,57.55,0,0,1,6.59,4.22,83.54,83.54,0,0,1,7,5.8A24,24,0,0,1,147,90.41,67.09,67.09,0,0,0,136.14,79c.43-.38,1.06-.35,1.57-.58.3,0,.61-.4.92-.16M134,79.52a6.75,6.75,0,0,1,2-.51,29.62,29.62,0,0,1,2.37,2.1c-.85-.07-1.7-.22-2.55-.33a2.64,2.64,0,0,1,1.13-.54,4,4,0,0,0-1.41-.71c-.08.15-.23.45-.3.6l-.39-.4a.67.67,0,0,1-.81-.21m-14.54.2a9.17,9.17,0,0,1,2.67.09c-.32.1-.77,0-1,.34.19.2.4.38.61.57,0,.15-.14.44-.19.59l.41.57c-.14.26-.27.52-.43.76-.24.06-.49-.13-.72-.17l.24.67c-.23-.1-.57-.11-.65-.39-.4-1-.22-2.19-1-3M86.78,84.79a43.38,43.38,0,0,1,6.94-4.85A3.35,3.35,0,0,0,93,82,60.69,60.69,0,0,0,80.82,92.17a5.72,5.72,0,0,1,.93-2.2,2.35,2.35,0,0,0,.56-1.07.75.75,0,0,1,.7-.78c-.11.2-.22.4-.32.61a14.38,14.38,0,0,1,1.94-2,18.49,18.49,0,0,1,2.15-1.9m70.36-2.7a8.31,8.31,0,0,1-.19-1.91c.86.54,1.72,1.07,2.56,1.64.25.1.2.42.39.57a4.3,4.3,0,0,1,.79.26c1.84,1.29,3.53,2.8,5.25,4.25a7.66,7.66,0,0,1,1.28,1.39c-.39-.06-.67.16-.34.49a23.52,23.52,0,0,1,2.4,3c.39.74,1.06,1.28,1.47,2-.47-.2-.7-.71-1-1.06a59.84,59.84,0,0,0-12.57-10.59m-18.28-.43a52.82,52.82,0,0,1,4.64,4.82c1.1,1.3,2.22,2.59,3.19,4a57.64,57.64,0,0,1-7,1.56c-.28,0-.74.26-.83-.16-1.24-2.8-2.74-5.48-4.21-8.16.85-.17,2.05,0,2.37-1.06.7-.07,1.83,0,1.82-1M92.31,82.81a4,4,0,0,0,.85.18c0,.12,0,.37,0,.49a2.77,2.77,0,0,0-.61,1,2.7,2.7,0,0,1-1.38,1.6c.19-.38.78-.54.83-1l-.41-.23a1.59,1.59,0,0,0,.3-1.43,1.3,1.3,0,0,1-.62,1c0,.1.14.3.19.4a10.16,10.16,0,0,0-1,1.52c-.88.84-1.46,2-2.41,2.73-.73.52-.84,1.51-1.53,2.07a77,77,0,0,0-5.26,5.72,8.78,8.78,0,0,1-.71-4A55.9,55.9,0,0,1,92.31,82.81m37.49,1.56c1.58-.22,3.15-.49,4.73-.61.61,1.32,1.44,2.52,2,3.84a15.34,15.34,0,0,1-2-.23c-.33-.35-.69-.66-1.21-.48l-.18-.73h-.56a5.47,5.47,0,0,0-.41-.71,6.44,6.44,0,0,0-1,0c.32-.45.93-.16,1.36-.05a5.6,5.6,0,0,0,.87-.3,3.84,3.84,0,0,0-3.76-.1c-.83.35-1.17,1.4-2.1,1.58.16-.42.6-.6,1-.78a3.1,3.1,0,0,1,1.27-1.41m26.45,1.09a70.25,70.25,0,0,1,12.51,12,14,14,0,0,1-4.2,4.39A86.27,86.27,0,0,0,154,89.11a6,6,0,0,1-1-1,15.45,15.45,0,0,0,3.24-2.62M132.7,87.85l.68-.84c.45.23,1.14.23,1.3.81a9.13,9.13,0,0,0-1,0,4,4,0,0,1-1.31.72c0,.55.46.85.84,1.14a3.38,3.38,0,0,1,1.37-1c0-.08.08-.24.1-.31a3.55,3.55,0,0,0,2.08-.45,36.77,36.77,0,0,1,2,4.31,61.22,61.22,0,0,1-8.95.87c-.17-1.28-.39-2.54-.58-3.81a3.69,3.69,0,0,0,1.16-.53c.74.1,1.25-.48,1.79-.88h.53m14.37,2.69a25.82,25.82,0,0,0,5.61-2.35,82.68,82.68,0,0,1,11.66,13.86,32.27,32.27,0,0,1-7.72,4c-.49-.81-.87-1.67-1.31-2.5a107.83,107.83,0,0,0-8.24-13m-66.3-.16c.46-.46.78-1.15,1.45-1.35-.22.65-.75,1.12-1,1.75s-.35,1.53-.93,2.08A48.56,48.56,0,0,0,70,111.54c.58-1.67,1.12-3.36,1.85-5l.13.4a16,16,0,0,0,.49,3.84,19.86,19.86,0,0,1-.39-4.61,29.63,29.63,0,0,1,1.75-3.69A51,51,0,0,1,80.46,93a9.84,9.84,0,0,0,.77,4c-6.34,7.89-11.09,17.26-12.52,27.35.05.1.1.2.16.3a29.6,29.6,0,0,1,.62-3.61,48.14,48.14,0,0,1,3.19-9.56,18.45,18.45,0,0,0,4.3,6.18c-.28.86-.59,1.71-.89,2.56a58.79,58.79,0,0,0-3,13l0,.23a20,20,0,0,1-4.29-7.33,2.65,2.65,0,0,1,0-1.12h-.42c0,2.71-.57,5.42-.16,8.12a42,42,0,0,0,1,7,24.15,24.15,0,0,0,3.06,6.42c.48.77,1.23,1.41,1.37,2.35a33,33,0,0,0,2.77,8,10.23,10.23,0,0,0,1.81,3.17,7,7,0,0,0,1.23,1.52c.74.6,1.35,1.33,2,2,1.24,1.22,2.66,2.23,4,3.36,0-.12,0-.37,0-.49a34.24,34.24,0,0,1-4.17-3.43,23.82,23.82,0,0,1-3.59-4.18,34.47,34.47,0,0,1-3.76-10,45.6,45.6,0,0,0,4.58,4.43c1.05.9,2.24,1.64,3.32,2.51l.35-.32a14.86,14.86,0,0,1-2.58-1.72,33.73,33.73,0,0,1-4.94-4.54c-.42-.5-1-1-1-1.66-.49-1.85-.27-3.78-.47-5.66a57.12,57.12,0,0,1,.13-7.74,36.45,36.45,0,0,0,4.68,4.1,39.28,39.28,0,0,0,4.67,3c0,1.21-.19,2.42-.23,3.63a57.81,57.81,0,0,0,.24,7.44c.06,1.29.16,2.57.32,3.85l-.8-.55.12.4.7.37a53,53,0,0,0,1.93,7.19c.48,1.34,1.15,2.6,1.75,3.89a2.68,2.68,0,0,1-.84-.69l-.29.26a3.47,3.47,0,0,1,1.76,1.37A21.85,21.85,0,0,0,92,173.82a22.87,22.87,0,0,1-4.64-5.64,60.78,60.78,0,0,0,12.57,5.89,15.11,15.11,0,0,0,3.36,5.28l-.37.28C101,178.72,99,178,97.17,177a18.4,18.4,0,0,0-2.66-1.34l-.48-.5.31.41a1.42,1.42,0,0,1-.86-.29A57.72,57.72,0,0,1,78.2,160.55,57.09,57.09,0,0,1,68.71,139a58,58,0,0,1,.56-26.23,56.58,56.58,0,0,1,11.5-22.37M93,174.64h0m35-83.49c.14-.69.21-1.46,1-1.7.19,1.2.39,2.4.55,3.6-1.46,0-2.91,0-4.36,0a.48.48,0,0,0-.25-.58c1-.37,2.36-.35,3-1.31m11.05,1.22a75.86,75.86,0,0,0,7.74-1.73,102.72,102.72,0,0,1,9.5,15.44,70.83,70.83,0,0,1-10.91,3,155.52,155.52,0,0,0-6.33-16.74M85.18,93a2.48,2.48,0,0,1,.89-.75c-.19.28-.4.55-.58.84-.17.49.45.77.48,1.23h-.62c-.5,1-.31,2.3-.92,3.31-.11,1.14.38,2.26.34,3.4-.12.28.2.47.24.74s-.09.51-.22.73a69.55,69.55,0,0,0-5,8.76c-1.07,2-1.83,4.2-2.79,6.28a17.42,17.42,0,0,1-4.21-6.22,46,46,0,0,1,3.12-6.14,59.82,59.82,0,0,1,5.49-7.83,11.85,11.85,0,0,0,2.81,3.49l.39.18a14.17,14.17,0,0,1-3.13-3.81c1.19-1.44,2.42-2.86,3.72-4.22m44.66.28a57.47,57.47,0,0,0,9.07-.9,144.78,144.78,0,0,1,6.25,16.76,101.27,101.27,0,0,1-13.24,1.53c-.62-5.81-1.25-11.61-2.08-17.39m-4.69,0c1.47,0,2.95-.07,4.43,0a2.56,2.56,0,0,1,.11.24q1.17,8.56,2,17.18a128.72,128.72,0,0,1-13.89,0c.3-1.23.26-2.5.45-3.76.22-1.86.43-3.73.66-5.59A27.38,27.38,0,0,1,121.43,99c.39.27,1.1.27,1.27-.26a2.6,2.6,0,0,1,.77-.88c-.38-.14-1,0-1.15-.43l1.26.09-.24-.77c-.27-.1-.68,0-.74-.4.77,0,.2-.82.05-1.22H123a10.11,10.11,0,0,1-.35-1.06c0-.35.57-.79.86-.45s-.2.89-.48,1.21l.6.41-.48,1c.66,0,.36-1.16,1.08-1,0-.17,0-.52,0-.69l-.18-.37.55,0a6.58,6.58,0,0,0,.56-.88m44.56-.23a42,42,0,0,1,3.39,4.13,7.2,7.2,0,0,1,.73,1.65,28.58,28.58,0,0,1,1.58,3.53,3.27,3.27,0,0,1-.1,1.16c.2,1.7.85,3.32,1,5a6.06,6.06,0,0,1-.76-1.3A62.35,62.35,0,0,0,169,97.39a4.55,4.55,0,0,0,.68-2c0-.77,0-1.54,0-2.31m1.92.15a2.6,2.6,0,0,1,.67.42c0,.07,0,.21,0,.29a14,14,0,0,0,.8,1.88c-.31-.25-.51-.7-1-.7a15.89,15.89,0,0,1,1,1.75A31.55,31.55,0,0,1,171,94.09c.53.09.86.54,1.24.87a2.77,2.77,0,0,0-.6-1.7m-7,8.77a15.28,15.28,0,0,0,4.2-4.39,62.17,62.17,0,0,1,7.66,12.15c.33.72.08,1.71.77,2.24a15.52,15.52,0,0,1-3.16,4.72A7.68,7.68,0,0,1,172.8,118a75,75,0,0,0-7.36-14.68c-.27-.41-.54-.82-.77-1.25m-78.34-1.19a3.8,3.8,0,0,1,.86.79,3.68,3.68,0,0,1,0,1.24,9.9,9.9,0,0,1-1.1-.72c-.23-.45.32-.84.23-1.31m31.57.67a6.2,6.2,0,0,1,.74-.08c-.14,2-.49,3.93-.65,5.9l-.24,0c.11-1.24-1-2.17-1-3.39,0-.59-.05-1.42.61-1.67.31-.16.3-.57.53-.79m38.77,4.75a36.88,36.88,0,0,0,7.76-4,81.24,81.24,0,0,1,6.28,11.33,46.33,46.33,0,0,1,1.88,4.69,37.8,37.8,0,0,1-9.09,5.6,99.32,99.32,0,0,0-5.56-15,23,23,0,0,0-1.27-2.59m-70.61-3.89,1.08.68a3.62,3.62,0,0,0,.16,2.59l.36.18c-.54.9.39,1.81,0,2.74.28.27.58.53.86.81a3.36,3.36,0,0,0,.47,1.69l.33-.63c.06.78.35,1.52.42,2.29-.24.87-.68,1.67-.94,2.53l.44-.19a4.88,4.88,0,0,1,.54-1.51c.46.59-.49,1-.26,1.58l-.39.17a6.13,6.13,0,0,0,.46,1.39,4.66,4.66,0,0,0,.85.74,3.78,3.78,0,0,0,.7,1.15c.82-.25,1.5.43,1.8,1.13s1,.83,1.61,1c.79.16,1.19,1,2,1.19a10.8,10.8,0,0,0,2.66.3,9.82,9.82,0,0,1-1.24-.66,2.68,2.68,0,0,1,2.54.48c-.42,2-.84,4-1.21,6l-.4,0a74.36,74.36,0,0,1-12-4.1c-.21-.13-.51-.16-.64-.39.29-1.27.76-2.5,1.17-3.73a44.34,44.34,0,0,1,1.63-4.39h-.38c-1,2.65-1.93,5.33-2.72,8.06a17.43,17.43,0,0,1-3.56-2l-.29.24c1.26.68,2.5,1.4,3.8,2a89,89,0,0,0-3.25,17.36,37.75,37.75,0,0,1-9.15-6.88c-.41-.35-.16-.92-.15-1.37A62,62,0,0,1,77.19,118a29.09,29.09,0,0,0,4.91,3.65c0-.09-.07-.26-.09-.34a5,5,0,0,1-1.09-.6,28,28,0,0,1-3.68-2.91A79.14,79.14,0,0,1,84.78,103c.22.87,1,1.84.33,2.71l-.75-.24a3.92,3.92,0,0,0,1,1.07l-.16.37c.21.31.55.6.49,1a13.33,13.33,0,0,1-.43,1.4,5.83,5.83,0,0,1,1.06,2.43c.25-.16.66-.29.63-.65-.18-1.47-.65-2.88-.75-4.36s0-3-.18-4.42M108.14,104c.6-.34,1.29-.08,1.94,0s1.33-.26,2,0a.79.79,0,0,0,.21.9c.51,0,.91-.43,1.41-.52.64.08.76.86,1.26,1.15s.33,1.18.12,1.68l.41-.09c-.1.23-.34.35-.54.49a2.63,2.63,0,0,0,.85.66,4.46,4.46,0,0,0-.06,1.46c.65-.19,1,.39,1,1a96.8,96.8,0,0,1-12.32-1.6c.35-1.49,1-2.91,1.42-4.37.41.25.8.91,1.32.71.15-.43-.26-.84-.26-1.28.43-.06.9.13,1.3-.08m-4.73.2a13.06,13.06,0,0,1,2.16.3c-.48,1.49-1,2.95-1.48,4.44a52.92,52.92,0,0,1-5.57-1.44c.35-.21,1-.43.64-1,.64-.48,1.45-.63,2.11-1.08s1.47-.78,2.14-1.27m75.3,1.64c.43.26.44.83.63,1.24a57.94,57.94,0,0,1,2.6,30.34,15.72,15.72,0,0,1-.66,2.79q0-.51,0-1a16.34,16.34,0,0,0-.89,2.3.86.86,0,0,0,.11.87c.14-.22.28-.45.41-.68a34.12,34.12,0,0,1-1.68,5.58A58.08,58.08,0,0,1,158,174.55a1,1,0,0,1-.72.2l.54-.58a15.28,15.28,0,0,1-3.16,2.05A49.38,49.38,0,0,1,146,180a17,17,0,0,0,3.48-5.57c.27-.11.54-.23.82-.33a59.35,59.35,0,0,0,11.93-5.41A20.41,20.41,0,0,1,158,174a20.65,20.65,0,0,0,4.49-5.44c.84-.77,1.9-1.27,2.79-2a47.44,47.44,0,0,0,5.47-4.84,18,18,0,0,0,1.93-2.74,14.2,14.2,0,0,1,.9-1.94,34.92,34.92,0,0,0,2.62-7.84c.06-.21.13-.41.2-.62a20.29,20.29,0,0,0,3.85-6.44,24.52,24.52,0,0,1-3.79,6.15,24.19,24.19,0,0,0,.29-2.94c0-3.64.23-7.28,0-10.92a21.23,21.23,0,0,0,3.7-5.17,7.64,7.64,0,0,0,.79-2.05,20.16,20.16,0,0,1-4.52,7,60.41,60.41,0,0,0-3.83-16.06,19,19,0,0,0,4.55-6.05,11.16,11.16,0,0,0,.2,1.29c.1.12.22.24.33.36.22,1.57.75,3.16.47,4.75.17.24.34.47.5.73a.6.6,0,0,0,.43.55c-.12.17-.24.35-.35.53l.49,0c-.11.29-.23.57-.34.85h.66c-.27.9.41,1.62.71,2.4a7.94,7.94,0,0,1,.36,1.69c.07.42.37.77.46,1.19a46.53,46.53,0,0,1,.12,5.54c0,1.73,0,3.45,0,5.17,0,.69-.21,1.36-.18,2.05a29,29,0,0,0,.3-5.82c0-1.85.12-3.7,0-5.56a6.08,6.08,0,0,0,.84-2.41,3.82,3.82,0,0,0,.06-1.17,59.45,59.45,0,0,0-1-8.31,55.56,55.56,0,0,0-1.4-5.69c-.43-1.49-1-3-1.48-4.41m-33.24,3.44a76.32,76.32,0,0,0,10.94-3c1,1.72,1.67,3.58,2.5,5.36A115.45,115.45,0,0,1,163,123.11a7.21,7.21,0,0,1,.21.92,72.68,72.68,0,0,1-13.18,4.27,158.47,158.47,0,0,0-4.59-19m-47.42,1.51c.39-1,.22-2.06.56-3,1.77.57,3.58,1,5.4,1.39-1,3.21-1.94,6.44-2.73,9.71-.44.11-1.06.62-1.39.06a.86.86,0,0,0-1.11-.52c-.46-.59-.28-1.42-.69-2a5.05,5.05,0,0,1-.71-3.28,22.47,22.47,0,0,1,.67-2.3m6.21-1.58A93.79,93.79,0,0,0,117.52,111c-.09,1-.24,2-.34,3a24.08,24.08,0,0,0-2.92-.63,3.76,3.76,0,0,0-2.51,1.31c-.13.33.32.26.52.36.28-.26.56-.63,1-.57.76,0,1.39-.48,2.11-.6a2.86,2.86,0,0,0,1.72.67c-.49,5.38-.94,10.75-1.41,16.12-.9-.06-1.8-.13-2.7-.23a14.22,14.22,0,0,1-.35-1.54,4,4,0,0,0-.09-1.39,9.42,9.42,0,0,1,.81-2.38c-.11-.2-.21-.41-.32-.6l.47-.27c-.37-.36-.81-.63-1.17-1-1.92-.25-3.88-.07-5.8-.36-.55-.28.25-.63.46-.85a7.54,7.54,0,0,0,.62-2.3c.69-.4.68-1.3.91-2h-.37c.42-.69.92-1.32,1.41-2-.85-.29-1.74-.81-2.65-.46a2.45,2.45,0,0,0-1.93.82c.09.44.18,1-.27,1.27a1.42,1.42,0,0,1-1,1.17,4.35,4.35,0,0,1-2.19.43c.81-3.26,1.69-6.51,2.73-9.71M132,111a107.82,107.82,0,0,0,13.29-1.59,168.86,168.86,0,0,1,4.55,19c-1.74.52-3.54.74-5.31,1.09-1.48.29-3,.48-4.47.67l-.14.27c3.34-.43,6.67-1,9.95-1.77.44,2.54.87,5.08,1.12,7.64-1.19,0-2.29-.51-3.47-.61-.56,0-.92-.44-1.23-.84l-.5-.18c-.36-1.55-2.24-2.12-3.64-1.94a2.38,2.38,0,0,1,.45-1.26,2.22,2.22,0,0,1-1.06-.56c-.07.77-.46.05-.71-.2,0,.14,0,.43-.05.57a1.92,1.92,0,0,1-.42-.65l-.51,0c0-.14,0-.43.07-.57-.71-.23-1.23.36-1.91.36l-.86.07.41.33-.47-.12-.15.31v-.49a7.58,7.58,0,0,1-3.32,0,24.73,24.73,0,0,1-.21-3c-.36-5.51-.85-11-1.41-16.52m-14.2.05a118.55,118.55,0,0,0,14,0c.24,2.69.48,5.38.76,8.07a2.51,2.51,0,0,0-1.45-.23l-.21-.39a18.19,18.19,0,0,1-2.83-.57,2.87,2.87,0,0,0-2.11-.14c-.1.61,1.08.15,1,.8-.52.82-1.85.31-2.4,1.12a17.35,17.35,0,0,0,3.3.54c.6.1,1.06-.4,1.58-.61l.39.38a11.59,11.59,0,0,0,1.84-.31l.53.31.35-.4c.3,3.61.58,7.23.73,10.85-.68-.17-.68-1-1.26-1.33a5.23,5.23,0,0,0-.87.13,2.32,2.32,0,0,1-.42-1.11c-.67,0-.74.81-1,1.26-.41.25-.86.41-1.26.68l-.54-.86c.36-.27.84-.38,1.14-.73,0-.62-.87-.83-1.37-.78,0,.28,0,.57,0,.86-.68.37-1.49.17-2.21.39-.37.11-.46.52-.63.82-.65-.43-1.23.18-1.68.6-.36.17.27.85-.27.69-2.29-.15-4.6-.15-6.89-.38q.67-7.95,1.34-15.9a2,2,0,0,0,2,.59,2,2,0,0,0,.22.76,7,7,0,0,0,1.64.54c.37.26-.17.53-.36.69,1,.13,1.94,0,2.9.14l.22.22a3.41,3.41,0,0,0,1.15-.43,10.1,10.1,0,0,1-1-.67c-.34,0-.68,0-1,0,.06-.2.13-.4.19-.6a9.84,9.84,0,0,0-1.71-.28c-.19-.28-.36-.6-.69-.72-.64-.28-1.21-.8-2-.76a10.33,10.33,0,0,1-1.36-.18,25.83,25.83,0,0,1,.27-3M131,118.37c.05.61.64-.32,0,0m32.59,5.72a40.5,40.5,0,0,0,9.12-5.71,63.34,63.34,0,0,1,3.09,10.71,32.22,32.22,0,0,1,.73,5.33,20.1,20.1,0,0,1-2.59,2.46,42.49,42.49,0,0,1-7,4.61,94.29,94.29,0,0,0-3.33-17.4m-62.84-1.63c1,.52,1.2,1.72,2.08,2.34.47.45,1.17.22,1.72.51.92.39,1.72,1.21,2.79,1.13l.11-.4a1.27,1.27,0,0,1,.63.66l-.58,0c.35.57,1.07.77,1.35,1.39a6,6,0,0,0,1.14,1.32c-.12.19-.07.73-.45.59-3.35-.38-6.64-1.1-9.93-1.81.29-1.93.72-3.85,1.14-5.76m-14.52,1.38a68,68,0,0,0,12.45,4.33l.56.15c-.22,1.83-.65,3.63-.89,5.47-.53,4.33-1.35,8.66-1.24,13.05H96.9a63.88,63.88,0,0,1-14-5.64,85.38,85.38,0,0,1,3.28-17.36m63.88,4.69a72.73,72.73,0,0,0,13.24-4.34,95.73,95.73,0,0,1,3.36,17.42c-1,.56-2.1,1.07-3.17,1.57-.78.31-1.54.66-2.32,1-.1-.83-1.11-1-1.78-.87a8.38,8.38,0,0,0-1.2-.21,3.42,3.42,0,0,0-1.17.74c0,.13,0,.38,0,.5a6.56,6.56,0,0,0-.76.35,4.65,4.65,0,0,1-.66,1.12c.12-.3.26-.59.4-.87-.07-.18-.15-.35-.23-.52a3.28,3.28,0,0,0,1.42-1.86c-.82-.06-1.6.25-2.41.26a2.55,2.55,0,0,0,0,1.13.75.75,0,0,0-.94.21c0-.15,0-.45.05-.6a5.28,5.28,0,0,0-.83,1.31,2.44,2.44,0,0,1-.89.18c.32-.3.71-.5,1-.79a6.34,6.34,0,0,1,.91-1.47,12,12,0,0,0,1.46-1.79,2.06,2.06,0,0,0-.61-1.41,2.29,2.29,0,0,1-.74-1.77c.08-.34-.25-.5-.44-.71,0,.14-.13.41-.17.55-.39-1.15-1.57-1.62-2.59-2-.27-2.37-.64-4.72-1-7.07m-81.6.93a10.07,10.07,0,0,1,.24-2.63,21.84,21.84,0,0,0,4.34,7.07c-.32,3.18-.06,6.37-.15,9.56a18.94,18.94,0,0,0,.38,4,14.17,14.17,0,0,1-1.64-2.28,19.22,19.22,0,0,1-2.49-6.06,38.4,38.4,0,0,1-.62-4.54,40.39,40.39,0,0,1-.06-5.16m31-1.05a92.78,92.78,0,0,0,10.06,1.88c.09.25.18.51.28.76.29-.37.64-.7,1.15-.56.08.48.11,1,.62,1.29l.42-.37.43.8a2.82,2.82,0,0,0-.07,1l.58,0c-.1-.23-.2-.46-.29-.69.48.16.54.67.63,1.1.5,0,.92-.49,1.43-.36.25.34.41.74.64,1.1-.39,5.23-.44,10.48-.4,15.73a105.75,105.75,0,0,1-10.61-1.49c-2.28-.48-4.54-1-6.8-1.61l-.28-.09a36.52,36.52,0,0,1,.16-4.56c.54-4.68,1.14-9.36,2-14m13.5,2.24c.88,0,1.75.16,2.63.22,0,.48-.06,1-.12,1.44-.48,0-1.26.36-1.41-.32s-.84-.8-1.1-1.34m2.9.25c2.43.2,4.87.27,7.31.39-.07.22-.15.44-.23.66-1-.09-1,1-1.19,1.67,0,.38-.57.54-.7.13a3.33,3.33,0,0,0-3.9-2l-.3.39q-.54,0-1.08.12c0-.46,0-.91.09-1.37m11.76.51a12,12,0,0,1,1.47,0c.06.44,0,1.08-.57,1.13a1.33,1.33,0,0,1-.9-1.11M118,132.52c.59-.34,1,.57,1.42.94,0,.09,0,.27,0,.36a6.58,6.58,0,0,0,1.31,2.05l-.19.52.36.57-.44.24a6.39,6.39,0,0,0,.13,2.09l.59.08c-.31.62-1.12,1-1,1.77a7.76,7.76,0,0,0-1.07.11,2.18,2.18,0,0,0-.74,1.13l.51.4c-.49.54-1.32.16-1.84.58,0,.34.06.68,0,1a6.65,6.65,0,0,1-.59.46l.36.42a8.09,8.09,0,0,1-.89,2.1,1.4,1.4,0,0,0,1,.56,4.34,4.34,0,0,1,.65-1,6.52,6.52,0,0,1-.19,1.52c-.67.09-1.09.66-1.56,1.08a1.54,1.54,0,0,0-.48.69l-.12-.11c-.09-4.44,0-8.88.26-13.31.1-.9.06-1.81.24-2.69L116,134l0,.89a2.86,2.86,0,0,0,1.22-.31c.08-.48-.46-.68-.7-1,.5-.36,1.19-.46,1.43-1.09m53.27,6.58a38.16,38.16,0,0,0,5.3-4.36c.3,3.27.06,6.55.08,9.83a14.92,14.92,0,0,1-.49,4.26,39,39,0,0,1-9.59,7.81c.11-.75.26-1.49.34-2.24s0-1.66.16-2.47c.19-.45.43-.87.65-1.31s.85-.56,1.15-1a4.56,4.56,0,0,0,.12-1.38,11.28,11.28,0,0,0-.17-2.17c-.52-.3-1.2-.1-1.73-.44q0-1.14-.06-2.28c0-.55-.05-1.09-.09-1.63,1.46-.86,2.94-1.69,4.33-2.65m-88.36,2.34A65,65,0,0,0,96.67,147l.39.09c0,1.88,0,3.76,0,5.63a75.88,75.88,0,0,0,.2,9.89,67.8,67.8,0,0,1-10.16-4.13,29.84,29.84,0,0,1-3.84-2.21c-.41-2.11-.32-4.28-.53-6.41a46.36,46.36,0,0,1,.19-8.41m81,1.78c1-.41,1.9-.94,2.86-1.37,0,.51,0,1,.05,1.53s0,1,0,1.51a14.73,14.73,0,0,0-1.61-.87l-1.17.36a1.07,1.07,0,0,0-.68.1c-.38-.08-.74-.22-1.11-.3a4.92,4.92,0,0,0-.83.61l.16-.54c.77-.34,1.56-.63,2.3-1m-3.24,2.32c.19-.44.19-1.12.76-1.22-.26.38-.2,1.18-.76,1.22m-63.31,1.65c2.18.57,4.36,1.15,6.57,1.57A102.1,102.1,0,0,0,115,150.41c-.08,5.26,0,10.53-.07,15.79a84.65,84.65,0,0,1-17.54-3.56,27.83,27.83,0,0,1-.25-3.76c0-3.9.08-7.8.15-11.69m76.7,4a16.58,16.58,0,0,1,2-1.95,33,33,0,0,1-2.64,8,13.9,13.9,0,0,0-.79,1.71,15.6,15.6,0,0,1-2.67,3.38,34.62,34.62,0,0,1-7,5.5A38.88,38.88,0,0,0,166.45,157a47.25,47.25,0,0,0,5.58-4,20.05,20.05,0,0,0,2-1.81m-58.8.1c0-.34-.06-.74.22-1a6.93,6.93,0,0,1,.75,1.18l-.53.43a11.86,11.86,0,0,0,1.4.77c.55.25.74.88,1,1.36a11.38,11.38,0,0,0,1,1.22,13.5,13.5,0,0,0,.92,1.87c.51.56.56,1.36,1,2,.78,0,.84,1,1.39,1.44,0,.45-.19,1,.25,1.3a11.15,11.15,0,0,0,4.28,2.11c.53.32,1.28.39,1.55,1a2.35,2.35,0,0,1,1.43,1.53c-.72.1-1.44.12-2.16.15a76.32,76.32,0,0,1-12.55-.45c0-5,0-9.93,0-14.89m49.36,3.58c1.22-.5,1.24-2.07,2.17-2.84,0,.65,0,1.32,0,2-.14.92-.27,1.84-.44,2.77-.93.53-1.87,1.06-2.83,1.54,0-.18.07-.54.1-.72a6.08,6.08,0,0,1,1-2.73m-81.31,1.7a69.9,69.9,0,0,0,14,6.29,44.22,44.22,0,0,0,2.47,10.89,57.57,57.57,0,0,1-12.44-5.88,1.32,1.32,0,0,1-.5-.52,35.63,35.63,0,0,1-3.57-10.78m80,2.06c1-.43,2-1,2.95-1.55a37.49,37.49,0,0,1-3.44,10.68c-.29.59-.95.82-1.48,1.16A63.28,63.28,0,0,1,150,174h-.3c.4-.87.39-2,1.2-2.6s.58-1.81,1.28-2.53a11.5,11.5,0,0,0,1.7-1.06c.48-.4,1.18-.43,1.6-.91.68-.4,1.37-.78,2-1.21a1.3,1.3,0,0,0,1.32-.46c.33-.47,1-.64,1.18-1.19.5-1.18,1.75-1.86,2.06-3.15a8,8,0,0,0,1.26-2.22m-65.8,4.27a87.14,87.14,0,0,0,17.5,3.51c.06,2.07.17,4.12.38,6.17.18,1.55.24,3.11.56,4.63a71.69,71.69,0,0,1-16-3.44,47.14,47.14,0,0,1-2.44-10.87m17.72,3.52a69.14,69.14,0,0,0,13.79.41l.78,0c-.17.95.22,1.94-.31,2.82L129,170l.4.37a7.69,7.69,0,0,1-1.54,4.09c.08.23.16.45.25.68l-.54.41a11,11,0,0,0,.21,1.28c-.23.28-.44.58-.65.88a67.7,67.7,0,0,1-11.11-.47c-.26-1.61-.36-3.24-.51-4.86a59.11,59.11,0,0,1-.29-5.95m33.47,6.72a7.73,7.73,0,0,1,1.43-1.19,14.82,14.82,0,0,1-.66,2.15c-1.07.31-2.13.69-3.23.9l.29-.47a2,2,0,0,0,1.61-1c-.42.21-.69.67-1.2.71.17-.39.57-.56.9-.77,0-.11.13-.34.17-.46a2,2,0,0,1,.69.14m-48.56,1a79.55,79.55,0,0,0,15.78,3.39,34.7,34.7,0,0,0,1.47,5.42,68.6,68.6,0,0,1-10.53-2.09,21.88,21.88,0,0,1-3-1,14.64,14.64,0,0,1-3.74-5.68m46,1.22c1.09-.27,2.17-.6,3.25-.92a15.73,15.73,0,0,1-3.24,5.28,2.8,2.8,0,0,1-1.34.7,71.77,71.77,0,0,1-9.25,2.17,16.47,16.47,0,0,1-3.42.29c.09-.25.35-.49.19-.77a2.81,2.81,0,0,1,1-.42c-.08-.15-.17-.29-.25-.43l1.15-.56c.09.08.29.22.38.29a10.41,10.41,0,0,0,2-1.07,4.9,4.9,0,0,1,1.77-.52,8.38,8.38,0,0,0,2.59-1.06c.35-.19.34-.63.43-1a7.32,7.32,0,0,1-1.06-.17,3.33,3.33,0,0,1-.29-1l.51-.09-.2.42c.26.42.81.22,1.21.27.79-.07,1.67.2,2.38-.25a8.19,8.19,0,0,1,2.18-1.21m-51.32.47a10.64,10.64,0,0,1,1.8.94,49.49,49.49,0,0,0,7.26,3.31,70.14,70.14,0,0,0,14.25,3.27c2.16.2,4.33.24,6.5.24.26.27.48.62.87.71a3.73,3.73,0,0,1,1.19.26c1-.12,1.81-.68,2.78-.72a7.87,7.87,0,0,1,2.39-.52l-.75.84a7.52,7.52,0,0,1,.94-.85c1.34-.22,2.69-.33,4-.56a59,59,0,0,0,7.55-1.75c.23,0,.5-.18.73,0,1.27-.7,2.72-1,4-1.58a55.46,55.46,0,0,0,7-3.39c-.1.54-.72.66-1.1.94a57.87,57.87,0,0,1-58.38-.21c-.38-.26-.92-.41-1.07-.89M116,177.56a92.72,92.72,0,0,0,11.05.55,2.92,2.92,0,0,1-.82.86,8.14,8.14,0,0,1-.51,1.83,3.16,3.16,0,0,0,.88.79l-.39,1a7.1,7.1,0,0,0-2,.58c.48.05,1,.08,1.44.12a44.61,44.61,0,0,1-8.17-.28,32.4,32.4,0,0,1-1.43-5.41m14.17,5.32c.25-.1.5-.19.76-.27l.39-.1.6-.13c0,.15.11.44.14.58-.61.14-1.36.39-1.89-.08Z"/><path class="logo-globe-3" d="M131.84,70.23c1.38.09,2.73.42,4.1.58a4.52,4.52,0,0,1,1.78.59,9.74,9.74,0,0,0,2.27.34l0,.28a27.21,27.21,0,0,1-3.24-.36.72.72,0,0,1-.06-.36l-.2-.13a17.67,17.67,0,0,0-6.76,0,11.58,11.58,0,0,1-2.33.39,12.62,12.62,0,0,1,2.65-.7,11.48,11.48,0,0,0,2.61-.43l-.62-.09-.25-.12Z"/><path class="logo-globe-4" d="M123.79,70.38c.84.11,1.08,1,1.32,1.63.09-.26.18-.51.28-.76a.5.5,0,0,1,0,.82c.27-.18.55-.35.83-.52l.39.17a3.82,3.82,0,0,1,2.06.15,14,14,0,0,0,3.48,0c1-.06,2,.14,3,.12a17.07,17.07,0,0,1,3.26.32l-.34.08c-1.12.11-2.21-.25-3.32-.2s-2.38-.1-3.57,0a10.82,10.82,0,0,1-4.28-.31,4.2,4.2,0,0,0,2.24.54c.23.06.46.11.69.18.57.19,1.18.16,1.74.34l.1.17a4.81,4.81,0,0,0-1.85,0c1.32.21,2.6.59,3.92.84,0,.08,0,.25,0,.33-1.53-.47-3.11-.76-4.66-1.2l.8-.19c-.64-.18-1.27.18-1.91.07a2,2,0,0,0-1.16.19l-.29-.42A5,5,0,0,0,124,73c-.27.16-.49-.11-.7-.24l-.75-.16c-.22-.16-.42-.34-.63-.52-.47-.51-1.27-.15-1.84-.49l-.11-.14a15.06,15.06,0,0,0,2.22.15,5.23,5.23,0,0,0,.69-.12c.39.08.81.4,1.19.16.31-.05.55.23.82.35a7,7,0,0,0-1.07-1.59m-1.11,1.67c-.14.43.83.06.35-.11l-.35.11m2.21.15c0,.66.62-.3,0,0M68.41,125.07h.42a2.65,2.65,0,0,0,0,1.12,20,20,0,0,0,4.29,7.33l0,.37a21.84,21.84,0,0,1-4.34-7.07,10.07,10.07,0,0,0-.24,2.63,40.39,40.39,0,0,0,.06,5.16,38.4,38.4,0,0,0,.62,4.54,19.22,19.22,0,0,0,2.49,6.06,14.17,14.17,0,0,0,1.64,2.28,18.94,18.94,0,0,1-.38-4c.09-.52.19-1,.24-1.56.2,1.88,0,3.81.47,5.66,0,.7.59,1.16,1,1.66a33.73,33.73,0,0,0,4.94,4.54,14.86,14.86,0,0,0,2.58,1.72l-.35.32c-1.08-.87-2.27-1.61-3.32-2.51a45.6,45.6,0,0,1-4.58-4.43,34.47,34.47,0,0,0,3.76,10,23.82,23.82,0,0,0,3.59,4.18,34.24,34.24,0,0,0,4.17,3.43c0,.12,0,.37,0,.49-1.31-1.13-2.73-2.14-4-3.36-.69-.65-1.3-1.38-2-2a7,7,0,0,1-1.23-1.52A10.23,10.23,0,0,1,76.41,157a33,33,0,0,1-2.77-8c-.14-.94-.89-1.58-1.37-2.35a24.15,24.15,0,0,1-3.06-6.42,42,42,0,0,1-1-7c-.41-2.7.21-5.41.16-8.12Z"/><path class="logo-globe-5" d="M113.61,71.31a11.91,11.91,0,0,1,3.84-.52,22,22,0,0,1,4.71.79,15.06,15.06,0,0,1-2.22-.15,16.19,16.19,0,0,1-1.84-.09c-1.49-.36-3,.13-4.49,0Z"/><path class="logo-globe-6" d="M118.1,71.34a16.19,16.19,0,0,0,1.84.09l.11.14c-.69,0-1.63-.3-2,.48,1.28,0,2.57,0,3.85,0,.21.18.41.36.63.52-.69,1.24-2.24.85-3.35,1.3-.06.1-.16.3-.21.4a21.6,21.6,0,0,0-2.7,1.06c-.53.26-1.3-.12-1.63.53l1.09-.32c-.92.61-2.15.76-2.9,1.62.06.44.17.88.26,1.32.42,0,.83.07,1.24.14a45.59,45.59,0,0,1,5.82-3.92,15.06,15.06,0,0,1,2.67-1.32,43.68,43.68,0,0,0-8.3,5.28c1.14.45,2.36.6,3.52,1a38.23,38.23,0,0,1,5.57-6.08,41.58,41.58,0,0,0-5.39,6.09c1.49,0,3-.12,4.46,0,.19-.58.35-1.16.49-1.75-.3-.17-.6-.34-.89-.52a4.86,4.86,0,0,1,1.11-.79,9.29,9.29,0,0,1-.17-1.38c1.39-.38,2.64.52,4,.64a2,2,0,0,1,.87.32,4.65,4.65,0,0,0-1.12.49l.83,0c0,.58.62.55,1,.69l.34.55a10.29,10.29,0,0,0,1.2-.26,36.62,36.62,0,0,0-3.91-4.25,31.72,31.72,0,0,1,3.75,3.85l.46-.89a1.81,1.81,0,0,1,.72.87,3.32,3.32,0,0,0,.83.18V78c.34.12.67.24,1,.38a1,1,0,0,0,.6,1.09c.67-.08,1.3-.38,2-.51a43.79,43.79,0,0,0-8.19-5.5A39.3,39.3,0,0,1,136,78.88a10.41,10.41,0,0,0,2.93-1,61.33,61.33,0,0,0-10.74-4.67,29.77,29.77,0,0,1,3.9,1.31A65.15,65.15,0,0,1,152.83,88a15.27,15.27,0,0,0,3.33-2.55,67.23,67.23,0,0,0-20.43-10.66,15.88,15.88,0,0,0-1.77-.46c.17-.08.34-.2.54,0a64.29,64.29,0,0,1,6.44,2.2c.35.22.55-.3.78-.48-.15.2-.3.4-.44.61a71.44,71.44,0,0,1,18.91,11.71,65.42,65.42,0,0,1,8.67,8.94c1.07-1.15.64-2.78.78-4.19a20.43,20.43,0,0,0-2.14-2.32,62.36,62.36,0,0,0-10.1-8.15,3.37,3.37,0,0,1-.9,2.38,4.34,4.34,0,0,0,.82-2.42,63.79,63.79,0,0,0-25.66-9.43l-.1-.17a64.06,64.06,0,0,1,21.74,6.95c1.3.64,2.5,1.45,3.77,2.15a13.47,13.47,0,0,0-.51-2.06,52.86,52.86,0,0,0-10-4.52A64.48,64.48,0,0,0,135,72.83a25.28,25.28,0,0,0-5.22-.24c-.23-.07-.46-.12-.69-.18,1.21.09,2.42-.09,3.63,0a68.91,68.91,0,0,1,8.43,1.28l-.06-.2a2,2,0,0,0,.87.39,50.09,50.09,0,0,1,10.62,3.7c.87.39,1.68.89,2.56,1.26a12.64,12.64,0,0,0-4-2.64,47.51,47.51,0,0,0-10.41-3.4l.13.25c-.84-.53-1.89-.43-2.82-.69l.34-.08a46.13,46.13,0,0,1,14,4.36,8.82,8.82,0,0,1,1.77.94,13.27,13.27,0,0,1,1.49,1.32,11.39,11.39,0,0,0,2.56,1.78c-.37-1.34-1.91-1.65-2.8-2.56.71.47,1.62.65,2.17,1.35.2.31.73.36.77.77l.34,0,0,.27.27-.1-.07.34.42-.12,0,.29.3-.12-.12.34c.3-.3.56,0,.81.19a13.24,13.24,0,0,0,1.52,1c.68.37,1.08,1.08,1.74,1.47a46.74,46.74,0,0,1,8.15,9.43,2.77,2.77,0,0,1,.6,1.7c-.38-.33-.71-.78-1.24-.87a31.55,31.55,0,0,0,2.19,2.81,15.89,15.89,0,0,0-1-1.75c.44,0,.64.45,1,.7a14,14,0,0,1-.8-1.88,57,57,0,0,1,6.36,11.91c.51,1.46,1,2.92,1.48,4.41-.94,1-1.5,2.26-2.54,3.13a11.16,11.16,0,0,1-.2-1.29,19,19,0,0,1-4.55,6.05,60.41,60.41,0,0,1,3.83,16.06,20.16,20.16,0,0,0,4.52-7,7.64,7.64,0,0,1-.79,2.05,21.23,21.23,0,0,1-3.7,5.17c.25,3.64,0,7.28,0,10.92a24.19,24.19,0,0,1-.29,2.94,2.47,2.47,0,0,1-.06.29c-.07.21-.14.41-.2.62,0-.1-.07-.28-.1-.38a14.92,14.92,0,0,0,.49-4.26c0-3.28.22-6.56-.08-9.83a38.16,38.16,0,0,1-5.3,4.36c-1.39,1-2.87,1.79-4.33,2.65,0,.54.07,1.08.09,1.63h-.23c0-.51,0-1-.05-1.53-1,.43-1.88,1-2.86,1.37l-.34,0c1.07-.5,2.13-1,3.17-1.57a95.73,95.73,0,0,0-3.36-17.42,72.73,72.73,0,0,1-13.24,4.34c.41,2.35.78,4.7,1,7.07,1,.42,2.2.89,2.59,2,0-.14.13-.41.17-.55.19.21.52.37.44.71a2.29,2.29,0,0,0,.74,1.77q-10.16,13.83-20.28,27.7c-2.34,3.2-4.66,6.42-7.05,9.59a11,11,0,0,1-.21-1.28l.54-.41c-.09-.23-.17-.45-.25-.68a7.69,7.69,0,0,0,1.54-4.09L129,170l.48-.38c.53-.88.14-1.87.31-2.82l-.78,0c-.42-.05-.83-.14-1.25-.2.72,0,1.44,0,2.16-.15a2.35,2.35,0,0,0-1.43-1.53c-.27-.63-1-.7-1.55-1a11.15,11.15,0,0,1-4.28-2.11c-.44-.32-.29-.85-.25-1.3-.55-.42-.61-1.39-1.39-1.44-.45-.61-.5-1.41-1-2a13.5,13.5,0,0,1-.92-1.87,11.38,11.38,0,0,1-1-1.22c-.29-.48-.48-1.11-1-1.36a11.86,11.86,0,0,1-1.4-.77l.53-.43a6.93,6.93,0,0,0-.75-1.18c-.28.27-.19.67-.22,1,0,5-.07,9.92,0,14.89l-.23,0c.08-5.26,0-10.53.07-15.79a102.1,102.1,0,0,1-11.14-1.65l.52-.11A105.75,105.75,0,0,0,115,150.14c0-5.25,0-10.5.4-15.73-.23-.36-.39-.76-.64-1.1-.51-.13-.93.32-1.43.36-.09-.43-.15-.94-.63-1.1.09.23.19.46.29.69l-.58,0a2.82,2.82,0,0,1,.07-1l-.43-.8-.42.37c-.51-.24-.54-.81-.62-1.29-.51-.14-.86.19-1.15.56-.1-.25-.19-.51-.28-.76a92.78,92.78,0,0,1-10.06-1.88c-.91,4.62-1.51,9.3-2,14a36.52,36.52,0,0,0-.16,4.56l.28.09-.54,0-.39-.09.23-.15h.19c-.11-4.39.71-8.72,1.24-13.05.24-1.84.67-3.64.89-5.47l-.56-.15.24-.13.4,0c.37-2,.79-4,1.21-6a2.68,2.68,0,0,0-2.54-.48,9.82,9.82,0,0,0,1.24.66,10.8,10.8,0,0,1-2.66-.3c-.76-.21-1.16-1-2-1.19-.6-.19-1.35-.37-1.61-1s-1-1.38-1.8-1.13a3.78,3.78,0,0,1-.7-1.15,4.66,4.66,0,0,1-.85-.74,6.13,6.13,0,0,1-.46-1.39l.39-.17c-.23-.6.72-1,.26-1.58a4.88,4.88,0,0,0-.54,1.51l-.44.19c.26-.86.7-1.66.94-2.53-.07-.77-.36-1.51-.42-2.29l-.33.63a3.36,3.36,0,0,1-.47-1.69c-.28-.28-.58-.54-.86-.81.34-.93-.59-1.84,0-2.74l-.36-.18a3.62,3.62,0,0,1-.16-2.59l-1.08-.68c.14,1.47,0,2.95.18,4.42s.57,2.89.75,4.36c0,.36-.38.49-.63.65a5.83,5.83,0,0,0-1.06-2.43,13.33,13.33,0,0,0,.43-1.4c.06-.42-.28-.71-.49-1l.16-.37a3.92,3.92,0,0,1-1-1.07l.75.24c.68-.87-.11-1.84-.33-2.71a79.14,79.14,0,0,0-7.54,14.71,28,28,0,0,0,3.68,2.91,5,5,0,0,0,1.09.6c0,.08.07.25.09.34A29.09,29.09,0,0,1,77.19,118,62,62,0,0,0,73.4,132.8l-.27.5a58.79,58.79,0,0,1,3-13c.3-.85.61-1.7.89-2.56a18.45,18.45,0,0,1-4.3-6.18,48.14,48.14,0,0,0-3.19,9.56,29.6,29.6,0,0,0-.62,3.61c-.06-.1-.11-.2-.16-.3,1.43-10.09,6.18-19.46,12.52-27.35a9.84,9.84,0,0,1-.77-4,51,51,0,0,0-6.66,9.49,29.63,29.63,0,0,0-1.75,3.69,19.86,19.86,0,0,0,.39,4.61A16,16,0,0,1,72,107l-.13-.4c-.73,1.62-1.27,3.31-1.85,5A48.56,48.56,0,0,1,80.28,92.86c.58-.55.56-1.41.93-2.08s.79-1.1,1-1.75l0-.12h0A2.35,2.35,0,0,1,81.75,90a5.72,5.72,0,0,0-.93,2.2A60.69,60.69,0,0,1,93,82l.14-.12a17.53,17.53,0,0,0,1.41-1.57c.13-.23.39-.08.58-.06l.35-.52-.4-.17a6,6,0,0,0,1.11-1,12.19,12.19,0,0,0-2,1.07c.05-.17.11-.35.17-.52a3.39,3.39,0,0,0,.94-.7l-.13.37a3.44,3.44,0,0,0,1.66-1h.44a5.84,5.84,0,0,1-.33-.53,11.51,11.51,0,0,0-1.64,1.11l.38-.4a3,3,0,0,1,1.34-.76,3.13,3.13,0,0,1,.74-.62,59.37,59.37,0,0,1,7.63-3.55,18.46,18.46,0,0,1,2.23-.5l.53-.08c0,.12,0,.37,0,.5l.21-.54.35.08a1.8,1.8,0,0,0,1.71-.16l.2,0c-.14.16-.27.33-.41.5l.06.08c.24.28.49.57.75.84a3.58,3.58,0,0,1,1.23-1.06l.34.2a1.68,1.68,0,0,1,.85-.19l.21.08.12.39a3,3,0,0,0,.15-.31c.68-.09,1.35-.19,2-.25-.1.28-.21.56-.3.85a2.25,2.25,0,0,0,.7-.77l1,0c-.17-.19-.34-.38-.52-.56L116.7,72a1.58,1.58,0,0,0,1-.32l.35-.34m0,.86c.08.33.82.36.91,0a1.67,1.67,0,0,0-.91,0m1.22,0c.2.31,1.08.34,1.26,0a3.34,3.34,0,0,0-1.26,0m-.6.37c0,.26.18.3.45.12,0-.26-.19-.29-.45-.12m1,0c0,.65.61-.33,0,0m-.55.39v.15l.31,0V73l-.31,0m-1.88.62c0,.35,1,.59,1.11.21a3.83,3.83,0,0,0-1.11-.21m6,4.34c-.14.53-.27,1.06-.38,1.61.65-.21,1.19-1.25.38-1.61m15.4.36c-.31-.24-.62.11-.92.16-.51.23-1.14.2-1.57.58A67.09,67.09,0,0,1,147,90.41,24,24,0,0,0,152.55,88a83.54,83.54,0,0,0-7-5.8A57.55,57.55,0,0,0,139,78l-.37.32M134,79.52a.67.67,0,0,0,.81.21l.39.4c.07-.15.22-.45.3-.6a4,4,0,0,1,1.41.71,2.64,2.64,0,0,0-1.13.54c.85.11,1.7.26,2.55.33a29.62,29.62,0,0,0-2.37-2.1,6.75,6.75,0,0,0-2,.51m-14.54.2c.76.84.58,2,1,3,.08.28.42.29.65.39l-.24-.67c.23,0,.48.23.72.17.16-.24.29-.5.43-.76l-.41-.57c0-.15.15-.44.19-.59-.21-.19-.42-.37-.61-.57.19-.34.64-.24,1-.34a9.17,9.17,0,0,0-2.67-.09m37.73,2.37a59.84,59.84,0,0,1,12.57,10.59c.34.35.57.86,1,1.06-.41-.72-1.08-1.26-1.47-2a23.52,23.52,0,0,0-2.4-3c-.33-.33,0-.55.34-.49a7.66,7.66,0,0,0-1.28-1.39c-1.72-1.45-3.41-3-5.25-4.25a4.3,4.3,0,0,0-.79-.26c-.19-.15-.14-.47-.39-.57-.84-.57-1.7-1.1-2.56-1.64a8.31,8.31,0,0,0,.19,1.91M93.44,82c-.34,0-.27.57.08.36s.25-.55-.08-.36m45.42-.29c0,1-1.12.92-1.82,1-.32,1-1.52.89-2.37,1.06,1.47,2.68,3,5.36,4.21,8.16.09.42.55.16.83.16a57.64,57.64,0,0,0,7-1.56c-1-1.4-2.09-2.69-3.19-4a52.82,52.82,0,0,0-4.64-4.82M92.31,82.81A55.9,55.9,0,0,0,80.59,92.89a8.78,8.78,0,0,0,.71,4,77,77,0,0,1,5.26-5.72c.69-.56.8-1.55,1.53-2.07,1-.77,1.53-1.89,2.41-2.73a10.16,10.16,0,0,1,1-1.52c0-.1-.15-.3-.19-.4a1.3,1.3,0,0,0,.62-1,1.59,1.59,0,0,1-.3,1.43l.41.23c0,.42-.64.58-.83,1a2.7,2.7,0,0,0,1.38-1.6,2.77,2.77,0,0,1,.61-1c0-.12,0-.37,0-.49a4,4,0,0,1-.85-.18m37.49,1.56a3.1,3.1,0,0,0-1.27,1.41c-.37.18-.81.36-1,.78.93-.18,1.27-1.23,2.1-1.58a3.84,3.84,0,0,1,3.76.1,5.6,5.6,0,0,1-.87.3c-.43-.11-1-.4-1.36.05a6.44,6.44,0,0,1,1,0,5.47,5.47,0,0,1,.41.71h.56l.18.73c.52-.18.88.13,1.21.48a15.34,15.34,0,0,0,2,.23c-.6-1.32-1.43-2.52-2-3.84-1.58.12-3.15.39-4.73.61m26.45,1.09A15.45,15.45,0,0,1,153,88.08a6,6,0,0,0,1,1,86.27,86.27,0,0,1,10.57,12.78,14,14,0,0,0,4.2-4.39,70.25,70.25,0,0,0-12.51-12M132.7,87.85h-.53c-.54.4-1,1-1.79.88a3.69,3.69,0,0,1-1.16.53c.19,1.27.41,2.53.58,3.81a61.22,61.22,0,0,0,8.95-.87,36.77,36.77,0,0,0-2-4.31,3.55,3.55,0,0,1-2.08.45c0,.07-.07.23-.1.31a3.38,3.38,0,0,0-1.37,1c-.38-.29-.87-.59-.84-1.14a4,4,0,0,0,1.31-.72,9.13,9.13,0,0,1,1,0c-.16-.58-.85-.58-1.3-.81l-.68.84m14.37,2.69a107.83,107.83,0,0,1,8.24,13c.44.83.82,1.69,1.31,2.5a32.27,32.27,0,0,0,7.72-4,82.68,82.68,0,0,0-11.66-13.86,25.82,25.82,0,0,1-5.61,2.35m-19,.61c-.69,1-2,.94-3,1.31a.48.48,0,0,1,.25.58c1.45,0,2.9,0,4.36,0-.16-1.2-.36-2.4-.55-3.6-.8.24-.87,1-1,1.7m11.05,1.22a155.52,155.52,0,0,1,6.33,16.74,70.83,70.83,0,0,0,10.91-3,102.72,102.72,0,0,0-9.5-15.44,75.86,75.86,0,0,1-7.74,1.73M85.18,93c-1.3,1.36-2.53,2.78-3.72,4.22A14.17,14.17,0,0,0,84.59,101l-.39-.18a11.85,11.85,0,0,1-2.81-3.49,59.82,59.82,0,0,0-5.49,7.83,46,46,0,0,0-3.12,6.14A17.42,17.42,0,0,0,77,117.56c1-2.08,1.72-4.25,2.79-6.28a69.55,69.55,0,0,1,5-8.76c.13-.22.35-.46.22-.73s-.36-.46-.24-.74c0-1.14-.45-2.26-.34-3.4.61-1,.42-2.26.92-3.31H86c0-.46-.65-.74-.48-1.23.18-.29.39-.56.58-.84a2.48,2.48,0,0,0-.89.75m44.66.28c.83,5.78,1.46,11.58,2.08,17.39a101.27,101.27,0,0,0,13.24-1.53,144.78,144.78,0,0,0-6.25-16.76,57.47,57.47,0,0,1-9.07.9m-4.69,0a6.58,6.58,0,0,1-.56.88l-.55,0,.18.37c0,.17,0,.52,0,.69-.72-.21-.42.94-1.08,1l.48-1-.6-.41c.28-.32.62-.75.48-1.21s-.83.1-.86.45a10.11,10.11,0,0,0,.35,1.06h-.31c.15.4.72,1.2-.05,1.22.06.35.47.3.74.4l.24.77-1.26-.09c.18.48.77.29,1.15.43a2.6,2.6,0,0,0-.77.88c-.17.53-.88.53-1.27.26a27.38,27.38,0,0,0-2.54,2.39c-.23,1.86-.44,3.73-.66,5.59-.19,1.26-.15,2.53-.45,3.76a128.72,128.72,0,0,0,13.89,0q-.81-8.61-2-17.18a2.56,2.56,0,0,0-.11-.24c-1.48,0-3,0-4.43,0m44.56-.23c-.05.77,0,1.54,0,2.31a4.55,4.55,0,0,1-.68,2,62.35,62.35,0,0,1,6.55,9.92,6.06,6.06,0,0,0,.76,1.3c-.16-1.71-.81-3.33-1-5a3.27,3.27,0,0,0,.1-1.16,28.58,28.58,0,0,0-1.58-3.53,7.2,7.2,0,0,0-.73-1.65,42,42,0,0,0-3.39-4.13m-5,8.92c.23.43.5.84.77,1.25A75,75,0,0,1,172.8,118a7.68,7.68,0,0,0,1.34-1.21A15.52,15.52,0,0,0,177.3,112c-.69-.53-.44-1.52-.77-2.24a62.17,62.17,0,0,0-7.66-12.15,15.28,15.28,0,0,1-4.2,4.39m-78.34-1.19c.09.47-.46.86-.23,1.31a9.9,9.9,0,0,0,1.1.72,3.68,3.68,0,0,0,0-1.24,3.8,3.8,0,0,0-.86-.79m31.57.67c-.23.22-.22.63-.53.79-.66.25-.63,1.08-.61,1.67,0,1.22,1.1,2.15,1,3.39l.24,0c.16-2,.51-3.93.65-5.9a6.2,6.2,0,0,0-.74.08m38.77,4.75a23,23,0,0,1,1.27,2.59,99.32,99.32,0,0,1,5.56,15,37.8,37.8,0,0,0,9.09-5.6,46.33,46.33,0,0,0-1.88-4.69,81.24,81.24,0,0,0-6.28-11.33,36.88,36.88,0,0,1-7.76,4M108.14,104c-.4.21-.87,0-1.3.08,0,.44.41.85.26,1.28-.52.2-.91-.46-1.32-.71-.47,1.46-1.07,2.88-1.42,4.37a96.8,96.8,0,0,0,12.32,1.6c0-.56-.31-1.14-1-1a4.46,4.46,0,0,1,.06-1.46,2.63,2.63,0,0,1-.85-.66c.2-.14.44-.26.54-.49l-.41.09c.21-.5.45-1.33-.12-1.68s-.62-1.07-1.26-1.15c-.5.09-.9.5-1.41.52a.79.79,0,0,1-.21-.9c-.65-.24-1.32.12-2,0s-1.34-.3-1.94,0m-4.73.2c-.67.49-1.45.81-2.14,1.27s-1.47.6-2.11,1.08c.38.52-.29.74-.64,1a52.92,52.92,0,0,0,5.57,1.44c.45-1.49,1-3,1.48-4.44a13.06,13.06,0,0,0-2.16-.3m42.06,5.08a158.47,158.47,0,0,1,4.59,19A72.68,72.68,0,0,0,163.24,124a7.21,7.21,0,0,0-.21-.92,115.45,115.45,0,0,0-4.12-11.44c-.83-1.78-1.52-3.64-2.5-5.36a76.32,76.32,0,0,1-10.94,3m-47.42,1.51a22.47,22.47,0,0,0-.67,2.3,5.05,5.05,0,0,0,.71,3.28c.41.61.23,1.44.69,2a.86.86,0,0,1,1.11.52c.33.56,1,.05,1.39-.06.79-3.27,1.72-6.5,2.73-9.71-1.82-.4-3.63-.82-5.4-1.39-.34,1-.17,2.06-.56,3m6.21-1.58c-1,3.2-1.92,6.45-2.73,9.71a4.35,4.35,0,0,0,2.19-.43,1.42,1.42,0,0,0,1-1.17c.45-.29.36-.83.27-1.27a2.45,2.45,0,0,1,1.93-.82c.91-.35,1.8.17,2.65.46-.49.65-1,1.28-1.41,2h.37c-.23.67-.22,1.57-.91,2A7.54,7.54,0,0,1,107,122c-.21.22-1,.57-.46.85,1.92.29,3.88.11,5.8.36.36.37.8.64,1.17,1l-.47.27c.11.19.21.4.32.6a9.42,9.42,0,0,0-.81,2.38,4,4,0,0,1,.09,1.39,14.22,14.22,0,0,0,.35,1.54c.9.1,1.8.17,2.7.23.47-5.37.92-10.74,1.41-16.12a2.86,2.86,0,0,1-1.72-.67c-.72.12-1.35.61-2.11.6-.43-.06-.71.31-1,.57-.2-.1-.65,0-.52-.36a3.76,3.76,0,0,1,2.51-1.31,24.08,24.08,0,0,1,2.92.63c.1-1,.25-2,.34-3a93.79,93.79,0,0,1-13.26-1.73M132,111c.56,5.5,1.05,11,1.41,16.52a24.73,24.73,0,0,0,.21,3,7.58,7.58,0,0,0,3.32,0V131l.15-.31.47.12-.41-.33.86-.07c.68,0,1.2-.59,1.91-.36,0,.14-.05.43-.07.57l.51,0a1.92,1.92,0,0,0,.42.65c0-.14,0-.43.05-.57.25.25.64,1,.71.2a2.22,2.22,0,0,0,1.06.56,2.38,2.38,0,0,0-.45,1.26c1.4-.18,3.28.39,3.64,1.94l.5.18c.31.4.67.85,1.23.84,1.18.1,2.28.61,3.47.61-.25-2.56-.68-5.1-1.12-7.64-3.28.76-6.61,1.34-9.95,1.77l.14-.27c1.49-.19,3-.38,4.47-.67,1.77-.35,3.57-.57,5.31-1.09a168.86,168.86,0,0,0-4.55-19A107.82,107.82,0,0,1,132,111m-14.2.05a25.83,25.83,0,0,0-.27,3,10.33,10.33,0,0,0,1.36.18c.74,0,1.31.48,2,.76.33.12.5.44.69.72a9.84,9.84,0,0,1,1.71.28c-.06.2-.13.4-.19.6.33,0,.67,0,1,0a10.1,10.1,0,0,0,1,.67,3.41,3.41,0,0,1-1.15.43l-.22-.22c-1-.12-1.94,0-2.9-.14.19-.16.73-.43.36-.69a7,7,0,0,1-1.64-.54,2,2,0,0,1-.22-.76,2,2,0,0,1-2-.59q-.67,8-1.34,15.9c2.29.23,4.6.23,6.89.38.54.16-.09-.52.27-.69.45-.42,1-1,1.68-.6.17-.3.26-.71.63-.82.72-.22,1.53,0,2.21-.39,0-.29,0-.58,0-.86.5-.05,1.35.16,1.37.78-.3.35-.78.46-1.14.73l.54.86c.4-.27.85-.43,1.26-.68.28-.45.35-1.23,1-1.26a2.32,2.32,0,0,0,.42,1.11,5.23,5.23,0,0,1,.87-.13c.58.29.58,1.16,1.26,1.33-.15-3.62-.43-7.24-.73-10.85l-.35.4-.53-.31a11.59,11.59,0,0,1-1.84.31l-.39-.38c-.52.21-1,.71-1.58.61a17.35,17.35,0,0,1-3.3-.54c.55-.81,1.88-.3,2.4-1.12.07-.65-1.11-.19-1-.8a2.87,2.87,0,0,1,2.11.14,18.19,18.19,0,0,0,2.83.57l.21.39a2.51,2.51,0,0,1,1.45.23c-.28-2.69-.52-5.38-.76-8.07a118.55,118.55,0,0,1-14,0m45.82,13.08a94.29,94.29,0,0,1,3.33,17.4,42.49,42.49,0,0,0,7-4.61,20.1,20.1,0,0,0,2.59-2.46,32.22,32.22,0,0,0-.73-5.33,63.34,63.34,0,0,0-3.09-10.71,40.5,40.5,0,0,1-9.12,5.71m-56-5.33c-.26.13-.43.67-.07.78s.4-.73.07-.78m-6.87,3.7c-.42,1.91-.85,3.83-1.14,5.76,3.29.71,6.58,1.43,9.93,1.81.38.14.33-.4.45-.59a6,6,0,0,1-1.14-1.32c-.28-.62-1-.82-1.35-1.39l.58,0a1.27,1.27,0,0,0-.63-.66l-.11.4c-1.07.08-1.87-.74-2.79-1.13-.55-.29-1.25-.06-1.72-.51-.88-.62-1.1-1.82-2.08-2.34M128,131a.82.82,0,0,0,.73,0,.52.52,0,0,0-.19-.44c-.2,0-.57.22-.54.45m-15-.37c.26.54,1,.73,1.1,1.34s.93.31,1.41.32c.06-.48.09-1,.12-1.44-.88-.06-1.75-.17-2.63-.22m2.9.25c0,.46-.07.91-.09,1.37q.54-.08,1.08-.12l.3-.39a3.33,3.33,0,0,1,3.9,2c.13.41.66.25.7-.13.2-.67.21-1.76,1.19-1.67.08-.22.16-.44.23-.66-2.44-.12-4.88-.19-7.31-.39m11.76.51a1.33,1.33,0,0,0,.9,1.11c.55-.05.63-.69.57-1.13a12,12,0,0,0-1.47,0M118,132.52c-.24.63-.93.73-1.43,1.09.24.31.78.51.7,1a2.86,2.86,0,0,1-1.22.31l0-.89-.25.09c-.18.88-.14,1.79-.24,2.69-.22,4.43-.35,8.87-.26,13.31l.12.11a1.54,1.54,0,0,1,.48-.69c.47-.42.89-1,1.56-1.08a6.52,6.52,0,0,0,.19-1.52,4.34,4.34,0,0,0-.65,1,1.4,1.4,0,0,1-1-.56,8.09,8.09,0,0,0,.89-2.1l-.36-.42a6.65,6.65,0,0,0,.59-.46c0-.34,0-.68,0-1,.52-.42,1.35,0,1.84-.58l-.51-.4a2.18,2.18,0,0,1,.74-1.13,7.76,7.76,0,0,1,1.07-.11c-.16-.79.65-1.15,1-1.77l-.59-.08a6.39,6.39,0,0,1-.13-2.09l.44-.24-.36-.57.19-.52a6.58,6.58,0,0,1-1.31-2.05c0-.09,0-.27,0-.36-.39-.37-.83-1.28-1.42-.94Z"/><path class="logo-globe-7" d="M128.68,71.68a41,41,0,0,1,5.86-.33,9.52,9.52,0,0,0,2.2,0,.72.72,0,0,0,.06.36c-1.74-.17-3.5-.09-5.24-.09a17.35,17.35,0,0,1-2.88.11M93,80.12c.35-.19.68-.51,1.11-.51a4.39,4.39,0,0,0-.94,2.28L93,82a3.35,3.35,0,0,1,.69-2.07,43.38,43.38,0,0,0-6.94,4.85,18.49,18.49,0,0,0-2.15,1.9,14.38,14.38,0,0,0-1.94,2c.1-.21.21-.41.32-.61,1-1.1,2.23-2.08,3.21-3.23l.14,0,.24-.08A48.17,48.17,0,0,1,93,80.12m83.49,68.18a24.52,24.52,0,0,0,3.79-6.15,20.29,20.29,0,0,1-3.85,6.44,2.47,2.47,0,0,0,.06-.29m-10.25,3.5a42.94,42.94,0,0,1,2.72-3.53,4.56,4.56,0,0,1-.12,1.38c-.3.41-.92.5-1.15,1s-.46.86-.65,1.31c-.12.81,0,1.65-.16,2.47l-.15-.35c0-.66,0-1.33,0-2-.93.77-1,2.34-2.17,2.84a6.08,6.08,0,0,0-1,2.73c-.09.35-.18.69-.29,1a8,8,0,0,1-1.26,2.22c-.31,1.29-1.56,2-2.06,3.15-.22.55-.85.72-1.18,1.19a1.3,1.3,0,0,1-1.32.46c-.65.43-1.34.81-2,1.21a4,4,0,0,1,1-1.65c3.27-4.5,6.56-9,9.83-13.45Z"/><path class="logo-globe-8" d="M112.27,71.84a18.65,18.65,0,0,1,5.48-.16,1.58,1.58,0,0,1-1,.32,30,30,0,0,0-5.68.37,3.16,3.16,0,0,1,1.25-.53Z"/><path class="logo-globe-9" d="M118,72.05c.38-.78,1.32-.48,2-.48.57.34,1.37,0,1.84.49-1.28,0-2.57,0-3.85,0m1.27.19a3.34,3.34,0,0,1,1.26,0c-.18.34-1.06.31-1.26,0Z"/><path class="logo-globe-10" d="M122.68,72.05l.35-.11c.48.17-.49.54-.35.11Z"/><path class="logo-globe-11" d="M118.09,72.2a1.67,1.67,0,0,1,.91,0c-.09.31-.83.28-.91,0Z"/><path class="logo-globe-12" d="M124.89,72.2c.62-.3,0,.66,0,0Z"/><path class="logo-globe-13" d="M119.68,72.59c.61-.33,0,.65,0,0Z"/><path class="logo-globe-14" d="M119.13,73l.31,0v.16l-.31,0V73Z"/><path class="logo-globe-15" d="M140.56,77Z"/><path class="logo-globe-16" d="M139.59,77.53c.6-.23-.08.69,0,0m40.6,32.76a55.56,55.56,0,0,1,1.4,5.69c-1.07.93-1.66,2.26-2.64,3.28-.16-.26-.33-.49-.5-.73.28-1.59-.25-3.18-.47-4.75-.11-.12-.23-.24-.33-.36,1-.87,1.6-2.17,2.54-3.13Z"/><path class="logo-globe-17" d="M154.15,77.59a3.17,3.17,0,0,1,1.25.54c.89.91,2.43,1.22,2.8,2.56a11.39,11.39,0,0,1-2.56-1.78,13.27,13.27,0,0,0-1.49-1.32Z"/><path class="logo-globe-18" d="M123.23,77.94c.81.36.27,1.4-.38,1.61.11-.55.24-1.08.38-1.61Z"/><path class="logo-globe-19" d="M93.44,82c.33-.19.38.3.08.36S93.1,82,93.44,82Z"/><path class="logo-globe-20" d="M88.72,115.44h.38a44.34,44.34,0,0,0-1.63,4.39c-.41,1.23-.88,2.46-1.17,3.73.13.23.43.26.64.39a74.36,74.36,0,0,0,12,4.1l-.24.13a68,68,0,0,1-12.45-4.33,85.38,85.38,0,0,0-3.28,17.36,63.88,63.88,0,0,0,14,5.64l-.23.15a65,65,0,0,1-13.79-5.55,46.36,46.36,0,0,0-.19,8.41c.21,2.13.12,4.3.53,6.41a29.84,29.84,0,0,0,3.84,2.21,67.8,67.8,0,0,0,10.16,4.13,75.88,75.88,0,0,1-.2-9.89c0-1.87,0-3.75,0-5.63l.54,0c2.26.57,4.52,1.13,6.8,1.61l-.52.11c-2.21-.42-4.39-1-6.57-1.57-.07,3.89-.11,7.79-.15,11.69a27.83,27.83,0,0,0,.25,3.76A84.65,84.65,0,0,0,115,166.2l.23,0a76.32,76.32,0,0,0,12.55.45c.42.06.83.15,1.25.2a69.14,69.14,0,0,1-13.79-.41,59.11,59.11,0,0,0,.29,5.95c.15,1.62.25,3.25.51,4.86a67.7,67.7,0,0,0,11.11.47c.21-.3.42-.6.65-.88,2.39-3.17,4.71-6.39,7.05-9.59q10.15-13.85,20.28-27.7a2.06,2.06,0,0,1,.61,1.41,12,12,0,0,1-1.46,1.79,6.34,6.34,0,0,0-.91,1.47c-.34.29-.73.49-1,.79a2.44,2.44,0,0,0,.89-.18,5.28,5.28,0,0,1,.83-1.31c0,.15,0,.45-.05.6a.75.75,0,0,1,.94-.21,2.55,2.55,0,0,1,0-1.13c.81,0,1.59-.32,2.41-.26a3.28,3.28,0,0,1-1.42,1.86c.08.17.16.34.23.52-.14.28-.28.57-.4.87a4.65,4.65,0,0,0,.66-1.12,6.56,6.56,0,0,1,.76-.35c0-.12,0-.37,0-.5a3.42,3.42,0,0,1,1.17-.74,8.38,8.38,0,0,1,1.2.21,6,6,0,0,1-1.19,1.89q-12.48,17-25,34.11c-.73,1.14-1.68,2.13-2.35,3.32-.26.08-.51.17-.76.27.53.47,1.28.22,1.89.08,0-.14-.1-.43-.14-.58l-.6.13a4.25,4.25,0,0,0,.94-.39c.16.28-.1.52-.19.77a16.47,16.47,0,0,0,3.42-.29l.51.16c-1.33.23-2.68.34-4,.56a7.52,7.52,0,0,0-.94.85l.75-.84a7.87,7.87,0,0,0-2.39.52c-1,0-1.82.6-2.78.72a3.73,3.73,0,0,0-1.19-.26c-.39-.09-.61-.44-.87-.71-2.17,0-4.34,0-6.5-.24a70.14,70.14,0,0,1-14.25-3.27,49.49,49.49,0,0,1-7.26-3.31,10.64,10.64,0,0,0-1.8-.94l-.22-.05-.18-.22-.31-.41.48.5A18.4,18.4,0,0,1,97.17,177c1.85,1,3.83,1.72,5.73,2.63l.37-.28a15.11,15.11,0,0,1-3.36-5.28,60.78,60.78,0,0,1-12.57-5.89A22.87,22.87,0,0,0,92,173.82a21.85,21.85,0,0,1-4.68-5.42A3.47,3.47,0,0,0,85.54,167l.29-.26a2.68,2.68,0,0,0,.84.69c-.6-1.29-1.27-2.55-1.75-3.89A53,53,0,0,1,83,156.38l-.7-.37-.12-.4.8.55c-.16-1.28-.26-2.56-.32-3.85a57.81,57.81,0,0,1-.24-7.44c0-1.21.25-2.42.23-3.63a39.28,39.28,0,0,1-4.67-3,36.45,36.45,0,0,1-4.68-4.1,57.12,57.12,0,0,0-.13,7.74c0,.52-.15,1-.24,1.56.09-3.19-.17-6.38.15-9.56l0-.37,0-.23.27-.5c0,.45-.26,1,.15,1.37a37.75,37.75,0,0,0,9.15,6.88A89,89,0,0,1,86,123.69c-1.3-.6-2.54-1.32-3.8-2l.29-.24a17.43,17.43,0,0,0,3.56,2c.79-2.73,1.71-5.41,2.72-8.06m65.93,29.2c-.23.22.07.69.36.51s-.13-.6-.36-.51m-71.39,12a35.63,35.63,0,0,0,3.57,10.78,1.32,1.32,0,0,0,.5.52,57.57,57.57,0,0,0,12.44,5.88A44.22,44.22,0,0,1,97.3,162.9a69.9,69.9,0,0,1-14-6.29m14.21,6.33a47.14,47.14,0,0,0,2.44,10.87,71.69,71.69,0,0,0,16,3.44c-.32-1.52-.38-3.08-.56-4.63-.21-2.05-.32-4.1-.38-6.17a87.14,87.14,0,0,1-17.5-3.51m2.63,11.21a14.64,14.64,0,0,0,3.74,5.68,21.88,21.88,0,0,0,3,1A68.6,68.6,0,0,0,117.35,183a34.7,34.7,0,0,1-1.47-5.42,79.55,79.55,0,0,1-15.78-3.39M116,177.56a32.4,32.4,0,0,0,1.43,5.41,44.61,44.61,0,0,0,8.17.28c-.48,0-1-.07-1.44-.12a7.1,7.1,0,0,1,2-.58l.39-1a3.16,3.16,0,0,1-.88-.79,8.14,8.14,0,0,0,.51-1.83,2.92,2.92,0,0,0,.82-.86,92.72,92.72,0,0,1-11.05-.55Z"/><path class="logo-globe-21" d="M179,119.26c1-1,1.57-2.35,2.64-3.28a59.45,59.45,0,0,1,1,8.31,3.82,3.82,0,0,1-.06,1.17,6.08,6.08,0,0,1-.84,2.41c.08,1.86-.06,3.71,0,5.56a29,29,0,0,1-.3,5.82c0-.69.18-1.36.18-2.05,0-1.72,0-3.44,0-5.17a46.53,46.53,0,0,0-.12-5.54c-.09-.42-.39-.77-.46-1.19a7.94,7.94,0,0,0-.36-1.69c-.3-.78-1-1.5-.71-2.4h-.66c.11-.28.23-.56.34-.85l-.49,0c.11-.18.23-.36.35-.53a.6.6,0,0,1-.43-.55m-12.41,37.38a39,39,0,0,0,9.59-7.81c0,.1.07.28.1.38a34.92,34.92,0,0,1-2.62,7.84,14.2,14.2,0,0,0-.9,1.94,18,18,0,0,1-1.93,2.74,47.44,47.44,0,0,1-5.47,4.84c-.89.73-1.95,1.23-2.79,2A20.65,20.65,0,0,1,158,174a20.41,20.41,0,0,0,4.19-5.33,59.35,59.35,0,0,1-11.93,5.41L150,174a63.28,63.28,0,0,0,11.35-5c.53-.34,1.19-.57,1.48-1.16a37.49,37.49,0,0,0,3.44-10.68c-1,.52-1.93,1.12-2.95,1.55.11-.34.2-.68.29-1,0,.18-.07.54-.1.72,1-.48,1.9-1,2.83-1.54.17-.93.3-1.85.44-2.77l.15.35c-.08.75-.23,1.49-.34,2.24m7.47-5.41a20.05,20.05,0,0,1-2,1.81,47.25,47.25,0,0,1-5.58,4,38.88,38.88,0,0,1-3.53,10.92,34.62,34.62,0,0,0,7-5.5,15.6,15.6,0,0,0,2.67-3.38,13.9,13.9,0,0,1,.79-1.71,33,33,0,0,0,2.64-8,16.58,16.58,0,0,0-2,1.95Z"/><path class="logo-globe-22" d="M131,118.37c.64-.32.05.61,0,0Z"/><path class="logo-globe-23" d="M107.6,118.76c.33,0,.27.75-.07.78s-.19-.65.07-.78Z"/><path class="logo-globe-24" d="M128,131c0-.23.34-.44.54-.45a.52.52,0,0,1,.19.44.82.82,0,0,1-.73,0Z"/><path class="logo-globe-25" d="M180.39,141.53a16.34,16.34,0,0,1,.89-2.3q0,.51,0,1a10.9,10.9,0,0,1-.37,1.47c-.13.23-.27.46-.41.68a.86.86,0,0,1-.11-.87Z"/><path class="logo-globe-26" d="M159.42,143.29c.67-.1,1.68,0,1.78.87.78-.32,1.54-.67,2.32-1l.34,0c-.74.4-1.53.69-2.3,1l-.16.54a4.92,4.92,0,0,1,.83-.61c.37.08.73.22,1.11.3.21.3-.1.55-.25.8-5.47,7.52-11,15-16.46,22.52-2.08,2.76-4,5.61-6.14,8.34l-.51.09a3.33,3.33,0,0,0,.29,1,7.32,7.32,0,0,0,1.06.17c-.09.33-.08.77-.43,1a8.38,8.38,0,0,1-2.59,1.06,4.9,4.9,0,0,0-1.77.52,10.41,10.41,0,0,1-2,1.07c-.09-.07-.29-.21-.38-.29l-1.15.56c.08.14.17.28.25.43a2.81,2.81,0,0,0-1,.42,4.25,4.25,0,0,1-.94.39l-.39.1c.67-1.19,1.62-2.18,2.35-3.32q12.49-17.06,25-34.11a6,6,0,0,0,1.19-1.89m1.2,2.25c.56,0,.5-.84.76-1.22-.57.1-.57.78-.76,1.22Z"/><path class="logo-globe-27" d="M166.77,143.38H167q.06,1.14.06,2.28c.53.34,1.21.14,1.73.44a11.28,11.28,0,0,1,.17,2.17,42.94,42.94,0,0,0-2.72,3.53c-3.27,4.48-6.56,8.95-9.83,13.45a4,4,0,0,0-1,1.65c-.42.48-1.12.51-1.6.91a11.5,11.5,0,0,1-1.7,1.06c-.7.72-.48,1.87-1.28,2.53s-.8,1.73-1.2,2.6h.3l.34.09c-.28.1-.55.22-.82.33A17,17,0,0,1,146,180a49.38,49.38,0,0,0,8.63-3.77,15.28,15.28,0,0,0,3.16-2.05l-.54.58a16.56,16.56,0,0,1-2,1.25,55.46,55.46,0,0,1-7,3.39c-1.32.59-2.77.88-4,1.58-.23-.14-.5,0-.73,0a59,59,0,0,1-7.55,1.75l-.51-.16a71.77,71.77,0,0,0,9.25-2.17,2.8,2.8,0,0,0,1.34-.7,15.73,15.73,0,0,0,3.24-5.28c-1.08.32-2.16.65-3.25.92a8.19,8.19,0,0,0-2.18,1.21c-.71.45-1.59.18-2.38.25-.4-.05-.95.15-1.21-.27l.2-.42c2.11-2.73,4.06-5.58,6.14-8.34,5.48-7.51,11-15,16.46-22.52.15-.25.46-.5.25-.8a1.07,1.07,0,0,1,.68-.1l1.17-.36a14.73,14.73,0,0,1,1.61.87c0-.51,0-1,0-1.51m-18.11,29.8A2,2,0,0,0,148,173c0,.12-.13.35-.17.46-.33.21-.73.38-.9.77.51,0,.78-.5,1.2-.71a2,2,0,0,1-1.61,1l-.29.47c1.1-.21,2.16-.59,3.23-.9a14.82,14.82,0,0,0,.66-2.15,7.73,7.73,0,0,0-1.43,1.19Z"/><path class="logo-globe-28" d="M154.65,144.64c.23-.09.54.3.36.51s-.59-.29-.36-.51Z"/></g></svg>
