<svg id="white-ring"  class="svg-element" data-name="white-ring" xmlns="http://www.w3.org/2000/svg" viewBox="0 0 250 250"><defs><style>.white-ring{fill:#fff;}</style></defs><path class="white-ring" d="M121.48,21.28h4.94A104.06,104.06,0,0,1,228,115.45c.21,2.11.27,4.22.49,6.33V129c-.3,3.31-.44,6.64-.9,9.94A104.08,104.08,0,0,1,20.3,127.59v-4.43a104.14,104.14,0,0,1,78-98.61,106.63,106.63,0,0,1,23.17-3.27m-.78,40.29a66.37,66.37,0,0,0-15,129.68A66.7,66.7,0,0,0,138,192.9a65.76,65.76,0,0,0,24.67-10.35,66.77,66.77,0,0,0,17.2-17.19A66.35,66.35,0,0,0,120.7,61.53"/></svg>